<?xml version="1.0" encoding="utf-8"?>
<!-- Generator: Adobe Illustrator 22.1.0, SVG Export Plug-In . SVG Version: 6.00 Build 0)  -->
<svg version="1.1" id="Layer_1" xmlns="http://www.w3.org/2000/svg" xmlns:xlink="http://www.w3.org/1999/xlink" x="0px" y="0px"
	 viewBox="0 0 3001 1908.7" style="enable-background:new 0 0 3001 1908.7;" xml:space="preserve">
<style type="text/css">
	.st0{fill:url(#SVGID_1_);}
	.st1{fill:url(#SVGID_2_);}
	.st2{fill:url(#SVGID_3_);}
	.st3{fill:url(#SVGID_4_);}
	.st4{fill:url(#SVGID_5_);}
	.st5{fill:url(#SVGID_6_);}
	.st6{fill:url(#SVGID_7_);}
	.st7{fill:url(#SVGID_8_);}
	.st8{fill:url(#SVGID_9_);}
	.st9{fill:url(#SVGID_10_);}
	.st10{fill:url(#SVGID_11_);}
	.st11{fill:url(#SVGID_12_);}
	.st12{fill:url(#SVGID_13_);}
	.st13{fill:url(#SVGID_14_);}
	.st14{fill:url(#SVGID_15_);}
	.st15{fill:url(#SVGID_16_);}
	.st16{fill:url(#SVGID_17_);}
	.st17{fill:url(#SVGID_18_);}
	.st18{fill:url(#SVGID_19_);}
	.st19{fill:url(#SVGID_20_);}
	.st20{fill:url(#SVGID_21_);}
	.st21{fill:url(#SVGID_22_);}
	.st22{fill:url(#SVGID_23_);}
	.st23{fill:url(#SVGID_24_);}
	.st24{fill:url(#SVGID_25_);}
	.st25{fill:url(#SVGID_26_);}
	.st26{fill:url(#SVGID_27_);}
	.st27{fill:url(#SVGID_28_);}
</style>
<g>
	<linearGradient id="SVGID_1_" gradientUnits="userSpaceOnUse" x1="1478.9188" y1="970.8541" x2="1886.8984" y2="760.8646">
		<stop  offset="0" style="stop-color:#DCB45A"/>
		<stop  offset="0.2279" style="stop-color:#A88028"/>
		<stop  offset="0.414" style="stop-color:#C7A14E"/>
		<stop  offset="0.586" style="stop-color:#B28416"/>
		<stop  offset="0.7721" style="stop-color:#8D5B00"/>
		<stop  offset="1" style="stop-color:#D0A853"/>
		<stop  offset="1" style="stop-color:#D2AA5F"/>
	</linearGradient>
	<path class="st0" d="M1145.4,1247.4h-39.5l-52.6-79.4v79.4h-39.5v-142.1h39.5l52.6,80.4v-80.4h39.5V1247.4z"/>
	<linearGradient id="SVGID_2_" gradientUnits="userSpaceOnUse" x1="1513.9258" y1="1038.8676" x2="1921.9054" y2="828.8781">
		<stop  offset="0" style="stop-color:#DCB45A"/>
		<stop  offset="0.2279" style="stop-color:#A88028"/>
		<stop  offset="0.414" style="stop-color:#C7A14E"/>
		<stop  offset="0.586" style="stop-color:#B28416"/>
		<stop  offset="0.7721" style="stop-color:#8D5B00"/>
		<stop  offset="1" style="stop-color:#D0A853"/>
		<stop  offset="1" style="stop-color:#D2AA5F"/>
	</linearGradient>
	<path class="st1" d="M1275.5,1198.8h-74.8c0.4,6.2,2.1,10.8,5.1,13.8c3,3,6.9,4.5,11.6,4.5c6.6,0,11.3-3,14.1-8.9h42.1
		c-1.7,7.8-5.1,14.8-10.2,20.9c-5,6.1-11.4,10.9-19,14.4c-7.7,3.5-16.1,5.2-25.4,5.2c-11.2,0-21.1-2.3-29.7-7.1
		c-8.7-4.7-15.5-11.4-20.4-20.2c-4.9-8.7-7.4-19-7.4-30.8c0-11.8,2.4-22.1,7.3-30.7c4.8-8.7,11.6-15.4,20.3-20.1
		c8.7-4.7,18.6-7.1,29.9-7.1c11.2,0,21,2.3,29.6,6.9c8.6,4.6,15.3,11.1,20.2,19.7c4.8,8.5,7.3,18.6,7.3,30.1
		C1276.1,1192.7,1275.9,1195.8,1275.5,1198.8z M1235.8,1179.7c0-4.8-1.6-8.6-4.8-11.4c-3.2-2.8-7.3-4.1-12.1-4.1s-8.8,1.3-11.9,3.9
		c-3.1,2.6-5.1,6.5-6,11.6H1235.8z"/>
	<linearGradient id="SVGID_3_" gradientUnits="userSpaceOnUse" x1="1541.3766" y1="1092.2007" x2="1949.3562" y2="882.2112">
		<stop  offset="0" style="stop-color:#DCB45A"/>
		<stop  offset="0.2279" style="stop-color:#A88028"/>
		<stop  offset="0.414" style="stop-color:#C7A14E"/>
		<stop  offset="0.586" style="stop-color:#B28416"/>
		<stop  offset="0.7721" style="stop-color:#8D5B00"/>
		<stop  offset="1" style="stop-color:#D0A853"/>
		<stop  offset="1" style="stop-color:#D2AA5F"/>
	</linearGradient>
	<path class="st2" d="M1407.9,1134.3v113.1h-39.7v-16.1c-3.4,5.1-8,9.2-13.9,12.4c-5.9,3.2-12.7,4.7-20.4,4.7
		c-13.2,0-23.6-4.3-31.1-13c-7.6-8.7-11.4-20.5-11.4-35.4v-65.7h39.3v60.7c0,6.5,1.7,11.5,5.1,15.2c3.4,3.7,8,5.5,13.6,5.5
		c5.8,0,10.3-1.8,13.7-5.5c3.4-3.7,5-8.8,5-15.2v-60.7H1407.9z"/>
	<linearGradient id="SVGID_4_" gradientUnits="userSpaceOnUse" x1="1562.4436" y1="1133.1309" x2="1970.4232" y2="923.1413">
		<stop  offset="0" style="stop-color:#DCB45A"/>
		<stop  offset="0.2279" style="stop-color:#A88028"/>
		<stop  offset="0.414" style="stop-color:#C7A14E"/>
		<stop  offset="0.586" style="stop-color:#B28416"/>
		<stop  offset="0.7721" style="stop-color:#8D5B00"/>
		<stop  offset="1" style="stop-color:#D0A853"/>
		<stop  offset="1" style="stop-color:#D2AA5F"/>
	</linearGradient>
	<path class="st3" d="M1486.1,1139c6.3-3.8,13.1-5.6,20.4-5.6v42.1h-11.1c-8.6,0-15,1.7-19.2,5c-4.2,3.4-6.2,9.2-6.2,17.5v49.4
		h-39.5v-113.1h39.5v20C1474.4,1147.8,1479.8,1142.7,1486.1,1139z"/>
	<linearGradient id="SVGID_5_" gradientUnits="userSpaceOnUse" x1="1592.073" y1="1190.6964" x2="2000.0526" y2="980.707">
		<stop  offset="0" style="stop-color:#DCB45A"/>
		<stop  offset="0.2279" style="stop-color:#A88028"/>
		<stop  offset="0.414" style="stop-color:#C7A14E"/>
		<stop  offset="0.586" style="stop-color:#B28416"/>
		<stop  offset="0.7721" style="stop-color:#8D5B00"/>
		<stop  offset="1" style="stop-color:#D0A853"/>
		<stop  offset="1" style="stop-color:#D2AA5F"/>
	</linearGradient>
	<path class="st4" d="M1520.5,1160.1c4.2-8.7,10-15.5,17.3-20.2c7.3-4.7,15.5-7.1,24.5-7.1c7.8,0,14.5,1.5,20.2,4.6
		c5.6,3.1,10,7.3,13.1,12.5v-15.7h39.5v113.1h-39.5v-15.7c-3.1,5.2-7.5,9.4-13.2,12.5c-5.7,3.1-12.4,4.6-20.1,4.6
		c-9,0-17.2-2.3-24.5-7.1c-7.3-4.7-13.1-11.5-17.3-20.3c-4.2-8.8-6.3-19-6.3-30.7S1516.3,1168.9,1520.5,1160.1z M1589.6,1173.7
		c-4-4.2-8.8-6.2-14.6-6.2c-5.9,0-10.8,2.1-14.7,6.1c-3.9,4.1-5.8,9.8-5.8,17.2c0,7.3,1.9,13,5.8,17.2c3.9,4.2,8.8,6.3,14.7,6.3
		c5.8,0,10.6-2.1,14.6-6.2c4-4.2,5.9-9.9,5.9-17.3C1595.6,1183.5,1593.6,1177.8,1589.6,1173.7z"/>
	<linearGradient id="SVGID_6_" gradientUnits="userSpaceOnUse" x1="1606.0054" y1="1217.7653" x2="2013.985" y2="1007.7757">
		<stop  offset="0" style="stop-color:#DCB45A"/>
		<stop  offset="0.2279" style="stop-color:#A88028"/>
		<stop  offset="0.414" style="stop-color:#C7A14E"/>
		<stop  offset="0.586" style="stop-color:#B28416"/>
		<stop  offset="0.7721" style="stop-color:#8D5B00"/>
		<stop  offset="1" style="stop-color:#D0A853"/>
		<stop  offset="1" style="stop-color:#D2AA5F"/>
	</linearGradient>
	<path class="st5" d="M1752,1107.3v18.7h-37.3v121.4h-23v-121.4h-37.5v-18.7H1752z"/>
	<linearGradient id="SVGID_7_" gradientUnits="userSpaceOnUse" x1="1641.5487" y1="1286.8208" x2="2049.5283" y2="1076.8313">
		<stop  offset="0" style="stop-color:#DCB45A"/>
		<stop  offset="0.2279" style="stop-color:#A88028"/>
		<stop  offset="0.414" style="stop-color:#C7A14E"/>
		<stop  offset="0.586" style="stop-color:#B28416"/>
		<stop  offset="0.7721" style="stop-color:#8D5B00"/>
		<stop  offset="1" style="stop-color:#D0A853"/>
		<stop  offset="1" style="stop-color:#D2AA5F"/>
	</linearGradient>
	<path class="st6" d="M1924.4,1136.4l-34.5,111.1h-24.2l-22.4-82l-22.4,82h-24.2l-34.7-111.1h23.4l23.2,89.3l23.6-89.3h24l22.6,88.9
		l23-88.9H1924.4z"/>
	<linearGradient id="SVGID_8_" gradientUnits="userSpaceOnUse" x1="1659.9896" y1="1322.6488" x2="2067.9692" y2="1112.6593">
		<stop  offset="0" style="stop-color:#DCB45A"/>
		<stop  offset="0.2279" style="stop-color:#A88028"/>
		<stop  offset="0.414" style="stop-color:#C7A14E"/>
		<stop  offset="0.586" style="stop-color:#B28416"/>
		<stop  offset="0.7721" style="stop-color:#8D5B00"/>
		<stop  offset="1" style="stop-color:#D0A853"/>
		<stop  offset="1" style="stop-color:#D2AA5F"/>
	</linearGradient>
	<path class="st7" d="M1942.7,1117.4c-2.8-2.8-4.2-6.3-4.2-10.5c0-4.2,1.4-7.7,4.2-10.5c2.8-2.8,6.3-4.2,10.5-4.2
		c4,0,7.5,1.4,10.3,4.2c2.8,2.8,4.2,6.3,4.2,10.5c0,4.2-1.4,7.7-4.2,10.5c-2.8,2.8-6.2,4.2-10.3,4.2
		C1949,1121.6,1945.5,1120.2,1942.7,1117.4z M1964.5,1136.4v111.1h-23v-111.1H1964.5z"/>
	<linearGradient id="SVGID_9_" gradientUnits="userSpaceOnUse" x1="1687.5248" y1="1376.1456" x2="2095.5044" y2="1166.1561">
		<stop  offset="0" style="stop-color:#DCB45A"/>
		<stop  offset="0.2279" style="stop-color:#A88028"/>
		<stop  offset="0.414" style="stop-color:#C7A14E"/>
		<stop  offset="0.586" style="stop-color:#B28416"/>
		<stop  offset="0.7721" style="stop-color:#8D5B00"/>
		<stop  offset="1" style="stop-color:#D0A853"/>
		<stop  offset="1" style="stop-color:#D2AA5F"/>
	</linearGradient>
	<path class="st8" d="M2074.2,1140c6.9,3.6,12.3,9,16.2,16.1c3.9,7.1,5.8,15.7,5.8,25.8v65.5h-22.8v-62.1c0-9.9-2.5-17.6-7.5-22.9
		c-5-5.3-11.8-8-20.4-8c-8.6,0-15.4,2.7-20.5,8c-5,5.3-7.6,12.9-7.6,22.9v62.1h-23v-111.1h23v12.7c3.8-4.6,8.6-8.1,14.4-10.7
		c5.8-2.6,12.1-3.8,18.6-3.8C2059.5,1134.5,2067.3,1136.4,2074.2,1140z"/>
</g>
<g>
	<linearGradient id="SVGID_10_" gradientUnits="userSpaceOnUse" x1="1839.1945" y1="983.8546" x2="1802.1945" y2="686.8546">
		<stop  offset="0" style="stop-color:#DCB45A"/>
		<stop  offset="0.2279" style="stop-color:#A88028"/>
		<stop  offset="0.414" style="stop-color:#C7A14E"/>
		<stop  offset="0.586" style="stop-color:#B28416"/>
		<stop  offset="0.7721" style="stop-color:#8D5B00"/>
		<stop  offset="1" style="stop-color:#D0A853"/>
		<stop  offset="1" style="stop-color:#D2AA5F"/>
	</linearGradient>
	<path class="st9" d="M1782.1,608.6c-1.8-4.4-6.8-6.6-11.2-4.9v0c-2.1,0.8-3.7,2.3-4.6,4.2l18.8,8.4L1782.1,608.6z M1833.6,722.4
		c-1.8-4.6-5.7-7.8-10.1-8.9h0l-3.9-9.9h0l-25.7-18.2l13.6,34.4c0,0,0,0,0,0c-2.5,3.9-3.1,8.8-1.3,13.4c3,7.6,11.6,11.3,19.2,8.3
		C1832.8,738.5,1836.6,729.9,1833.6,722.4z M1822.8,735.2c-4.1,1.6-8.8-0.4-10.4-4.5c-1.6-4.1,0.4-8.8,4.5-10.4
		c4.1-1.6,8.8,0.4,10.4,4.5C1828.9,729,1826.9,733.6,1822.8,735.2z M1787.8,623L1787.8,623l-22.2-9.9c0.1,0.6,0.3,1.2,0.5,1.8
		l24.5,62l0,0l25.7,18.2L1787.8,623z"/>
	<linearGradient id="SVGID_11_" gradientUnits="userSpaceOnUse" x1="1417.4369" y1="1036.3967" x2="1380.4369" y2="739.3967">
		<stop  offset="0" style="stop-color:#DCB45A"/>
		<stop  offset="0.2279" style="stop-color:#A88028"/>
		<stop  offset="0.414" style="stop-color:#C7A14E"/>
		<stop  offset="0.586" style="stop-color:#B28416"/>
		<stop  offset="0.7721" style="stop-color:#8D5B00"/>
		<stop  offset="1" style="stop-color:#D0A853"/>
		<stop  offset="1" style="stop-color:#D2AA5F"/>
	</linearGradient>
	<path class="st10" d="M1375.8,712.1l-6.2,30.9l24.6,15.7L1375.8,712.1z M1414.3,896.1l11.3,28.6c3.2,8.2,12.4,12.2,20.6,9
		c5-2,8.4-6.2,9.6-11L1414.3,896.1z M1455.1,913l-57.7-146.3h0l-28.8-18.4l-4.3,21.2v0l46.8,118.7l45,28.7
		C1455.9,915.5,1455.6,914.2,1455.1,913z M1366,687.1C1366,687.1,1366,687.1,1366,687.1c3.8-6.5,4.8-14.6,1.8-22.1
		c-5.1-13-19.8-19.3-32.8-14.2c-13,5.1-19.3,19.8-14.2,32.8c2.8,7.2,8.6,12.3,15.4,14.6l22,55.8l6.2-14.3l0.7,0.5l7.4-36.6
		L1366,687.1z M1349,686.4c-6.7,2.6-14.3-0.6-16.9-7.4c-2.6-6.7,0.7-14.3,7.3-16.9c6.7-2.6,14.3,0.7,16.9,7.4
		C1359,676.1,1355.7,683.7,1349,686.4z"/>
	<linearGradient id="SVGID_12_" gradientUnits="userSpaceOnUse" x1="1363.5448" y1="1043.1106" x2="1326.5448" y2="746.1106">
		<stop  offset="0" style="stop-color:#DCB45A"/>
		<stop  offset="0.2279" style="stop-color:#A88028"/>
		<stop  offset="0.414" style="stop-color:#C7A14E"/>
		<stop  offset="0.586" style="stop-color:#B28416"/>
		<stop  offset="0.7721" style="stop-color:#8D5B00"/>
		<stop  offset="1" style="stop-color:#D0A853"/>
		<stop  offset="1" style="stop-color:#D2AA5F"/>
	</linearGradient>
	<path class="st11" d="M1290.6,791.7l21.3,53.9l5.3,2.4l12.5-28.7L1290.6,791.7z M1309.9,754.1c-3.2-8.2-12.4-12.2-20.6-9
		c-8.2,3.2-12.2,12.5-9,20.6l6.9,17.5l44.4,31.5l1.1-2.6L1309.9,754.1z M1338,825.3l-4.2-3l-14.1,32.3l-5.2-2.3l31,78.6l17.9-41.2
		L1338,825.3z M1401.4,959.3c-3-7.6-9.2-12.8-16.4-15l-18.9-48l-17.9,41.2l7.5,19.1c-3.4,6.3-4.1,14-1.3,21.2
		c5.1,13,19.8,19.4,32.8,14.2C1400.2,986.9,1406.5,972.3,1401.4,959.3z M1382.7,980.6c-6.6,2.6-14.1-0.6-16.8-7.3
		c-2.6-6.6,0.6-14.1,7.3-16.8c6.6-2.6,14.1,0.6,16.8,7.3C1392.5,970.4,1389.3,977.9,1382.7,980.6z"/>
	<linearGradient id="SVGID_13_" gradientUnits="userSpaceOnUse" x1="1242.635" y1="1058.1735" x2="1205.635" y2="761.1734">
		<stop  offset="0" style="stop-color:#DCB45A"/>
		<stop  offset="0.2279" style="stop-color:#A88028"/>
		<stop  offset="0.414" style="stop-color:#C7A14E"/>
		<stop  offset="0.586" style="stop-color:#B28416"/>
		<stop  offset="0.7721" style="stop-color:#8D5B00"/>
		<stop  offset="1" style="stop-color:#D0A853"/>
		<stop  offset="1" style="stop-color:#D2AA5F"/>
	</linearGradient>
	<path class="st12" d="M1239.2,940.4l-11-27.9c0.2-0.3,0.4-0.6,0.6-0.9c1.2-2.1,1.4-4.8,0.4-7.2c-1.7-4.4-6.7-6.6-11.1-4.8
		c-4.4,1.7-6.6,6.7-4.8,11.1c1,2.6,3.1,4.4,5.6,5.1c0.2,0.1,0.4,0.1,0.7,0.2l11,27.9c1,2.4,3.7,3.6,6.1,2.6c1.3-0.5,2.2-1.5,2.7-2.7
		v0l0.2-0.6l0-0.1C1239.6,942.3,1239.5,941.4,1239.2,940.4z M1222.6,911.2c-2,0.8-4.2-0.2-4.9-2.1c-0.8-2,0.2-4.2,2.1-4.9
		c2-0.8,4.2,0.2,4.9,2.1C1225.5,908.2,1224.5,910.4,1222.6,911.2z"/>
	<linearGradient id="SVGID_14_" gradientUnits="userSpaceOnUse" x1="1706.5682" y1="1000.377" x2="1669.5682" y2="703.377">
		<stop  offset="0" style="stop-color:#DCB45A"/>
		<stop  offset="0.2279" style="stop-color:#A88028"/>
		<stop  offset="0.414" style="stop-color:#C7A14E"/>
		<stop  offset="0.586" style="stop-color:#B28416"/>
		<stop  offset="0.7721" style="stop-color:#8D5B00"/>
		<stop  offset="1" style="stop-color:#D0A853"/>
		<stop  offset="1" style="stop-color:#D2AA5F"/>
	</linearGradient>
	<path class="st13" d="M1675.4,751l-7.3,36.2l-19.9-18.7l35.6,90.2l11.5-57.3L1675.4,751z M1648.6,683.3l-45.6-29.1l40.9,103.6
		l21.1,19.7l7.1-35L1648.6,683.3z M1767.2,957.1c-3.2-8.1-9.6-13.9-16.9-16.3c-0.2-0.1-0.4-0.1-0.5-0.2c0.2,0.1,0.4,0.1,0.5,0.2
		L1698.6,810l-11.5,57.3v0l33.8,85.8c-3.3,6.6-3.8,14.8-0.8,22.5c5.5,13.9,20.5,21,33.4,15.9C1766.6,986.4,1772.7,971,1767.2,957.1z
		 M1748.3,978c-6,2.4-12.9-0.9-15.5-7.3c-2.5-6.4,0.3-13.6,6.3-15.9c6-2.4,12.9,0.9,15.4,7.4C1757.1,968.5,1754.3,975.6,1748.3,978z
		 M1623.9,620.6c-3.4-8.8-12.9-13.2-21-10c-8.2,3.2-12,12.9-8.5,21.7l5.5,13.9l45.6,29.1L1623.9,620.6z"/>
</g>
<g>
	<linearGradient id="SVGID_15_" gradientUnits="userSpaceOnUse" x1="1295.437" y1="863.4865" x2="1641.9197" y2="651.997">
		<stop  offset="0" style="stop-color:#DCB45A"/>
		<stop  offset="0.2279" style="stop-color:#A88028"/>
		<stop  offset="0.414" style="stop-color:#C7A14E"/>
		<stop  offset="0.586" style="stop-color:#B28416"/>
		<stop  offset="0.7721" style="stop-color:#8D5B00"/>
		<stop  offset="1" style="stop-color:#D0A853"/>
		<stop  offset="1" style="stop-color:#D2AA5F"/>
	</linearGradient>
	<path class="st14" d="M1679.3,626c4.2,0.6,8.6,0.2,12.9-1.5c0.2-0.1,0.3-0.1,0.5-0.2c-0.2,0.1-0.3,0.1-0.5,0.2
		C1687.9,626.1,1683.5,626.6,1679.3,626z"/>
	<linearGradient id="SVGID_16_" gradientUnits="userSpaceOnUse" x1="1352.5653" y1="957.0795" x2="1699.048" y2="745.5901">
		<stop  offset="0" style="stop-color:#DCB45A"/>
		<stop  offset="0.2279" style="stop-color:#A88028"/>
		<stop  offset="0.414" style="stop-color:#C7A14E"/>
		<stop  offset="0.586" style="stop-color:#B28416"/>
		<stop  offset="0.7721" style="stop-color:#8D5B00"/>
		<stop  offset="1" style="stop-color:#D0A853"/>
		<stop  offset="1" style="stop-color:#D2AA5F"/>
	</linearGradient>
	<path class="st15" d="M1375.3,943.4c-0.3,0-0.7,0.1-1,0.1C1374.7,943.5,1375,943.5,1375.3,943.4z"/>
	<linearGradient id="SVGID_17_" gradientUnits="userSpaceOnUse" x1="1353.1556" y1="958.0466" x2="1699.6383" y2="746.5572">
		<stop  offset="0" style="stop-color:#DCB45A"/>
		<stop  offset="0.2279" style="stop-color:#A88028"/>
		<stop  offset="0.414" style="stop-color:#C7A14E"/>
		<stop  offset="0.586" style="stop-color:#B28416"/>
		<stop  offset="0.7721" style="stop-color:#8D5B00"/>
		<stop  offset="1" style="stop-color:#D0A853"/>
		<stop  offset="1" style="stop-color:#D2AA5F"/>
	</linearGradient>
	<path class="st16" d="M1375.4,943.4c1.2-0.1,2.4-0.1,3.6-0.1h0C1377.8,943.3,1376.6,943.3,1375.4,943.4z"/>
	<linearGradient id="SVGID_18_" gradientUnits="userSpaceOnUse" x1="1354.2324" y1="959.8107" x2="1700.7151" y2="748.3213">
		<stop  offset="0" style="stop-color:#DCB45A"/>
		<stop  offset="0.2279" style="stop-color:#A88028"/>
		<stop  offset="0.414" style="stop-color:#C7A14E"/>
		<stop  offset="0.586" style="stop-color:#B28416"/>
		<stop  offset="0.7721" style="stop-color:#8D5B00"/>
		<stop  offset="1" style="stop-color:#D0A853"/>
		<stop  offset="1" style="stop-color:#D2AA5F"/>
	</linearGradient>
	<path class="st17" d="M1379.6,943.4c0.2,0,0.5,0,0.7,0c0.3,0,0.6,0.1,0.9,0.1c0.2,0,0.4,0,0.6,0.1c0.2,0,0.4,0.1,0.6,0.1
		c-1-0.2-1.9-0.3-2.9-0.4C1379.5,943.4,1379.5,943.4,1379.6,943.4z"/>
	<linearGradient id="SVGID_19_" gradientUnits="userSpaceOnUse" x1="1352.2806" y1="956.6132" x2="1698.7633" y2="745.1237">
		<stop  offset="0" style="stop-color:#DCB45A"/>
		<stop  offset="0.2279" style="stop-color:#A88028"/>
		<stop  offset="0.414" style="stop-color:#C7A14E"/>
		<stop  offset="0.586" style="stop-color:#B28416"/>
		<stop  offset="0.7721" style="stop-color:#8D5B00"/>
		<stop  offset="1" style="stop-color:#D0A853"/>
		<stop  offset="1" style="stop-color:#D2AA5F"/>
	</linearGradient>
	<path class="st18" d="M1374.1,943.6c-0.4,0.1-0.8,0.1-1.2,0.2C1373.2,943.7,1373.6,943.7,1374.1,943.6z"/>
	<linearGradient id="SVGID_20_" gradientUnits="userSpaceOnUse" x1="1362.7666" y1="973.7924" x2="1709.2493" y2="762.3029">
		<stop  offset="0" style="stop-color:#DCB45A"/>
		<stop  offset="0.2279" style="stop-color:#A88028"/>
		<stop  offset="0.414" style="stop-color:#C7A14E"/>
		<stop  offset="0.586" style="stop-color:#B28416"/>
		<stop  offset="0.7721" style="stop-color:#8D5B00"/>
		<stop  offset="1" style="stop-color:#D0A853"/>
		<stop  offset="1" style="stop-color:#D2AA5F"/>
	</linearGradient>
	<path class="st19" d="M1858.9,671.1c-0.2,0-0.3,0-0.5,0C1858.6,671.1,1858.8,671.1,1858.9,671.1z"/>
	<linearGradient id="SVGID_21_" gradientUnits="userSpaceOnUse" x1="1362.1705" y1="972.8159" x2="1708.6532" y2="761.3265">
		<stop  offset="0" style="stop-color:#DCB45A"/>
		<stop  offset="0.2279" style="stop-color:#A88028"/>
		<stop  offset="0.414" style="stop-color:#C7A14E"/>
		<stop  offset="0.586" style="stop-color:#B28416"/>
		<stop  offset="0.7721" style="stop-color:#8D5B00"/>
		<stop  offset="1" style="stop-color:#D0A853"/>
		<stop  offset="1" style="stop-color:#D2AA5F"/>
	</linearGradient>
	<path class="st20" d="M1856.3,671.2c-0.1,0-0.1,0-0.2,0C1856.2,671.2,1856.3,671.2,1856.3,671.2z"/>
	<linearGradient id="SVGID_22_" gradientUnits="userSpaceOnUse" x1="1362.4432" y1="973.2625" x2="1708.9259" y2="761.7731">
		<stop  offset="0" style="stop-color:#DCB45A"/>
		<stop  offset="0.2279" style="stop-color:#A88028"/>
		<stop  offset="0.414" style="stop-color:#C7A14E"/>
		<stop  offset="0.586" style="stop-color:#B28416"/>
		<stop  offset="0.7721" style="stop-color:#8D5B00"/>
		<stop  offset="1" style="stop-color:#D0A853"/>
		<stop  offset="1" style="stop-color:#D2AA5F"/>
	</linearGradient>
	<path class="st21" d="M1857.4,671.1c0.1,0,0.2,0,0.2,0C1857.6,671.1,1857.5,671.1,1857.4,671.1z"/>
	<linearGradient id="SVGID_23_" gradientUnits="userSpaceOnUse" x1="1362.1396" y1="972.7652" x2="1708.6223" y2="761.2758">
		<stop  offset="0" style="stop-color:#DCB45A"/>
		<stop  offset="0.2279" style="stop-color:#A88028"/>
		<stop  offset="0.414" style="stop-color:#C7A14E"/>
		<stop  offset="0.586" style="stop-color:#B28416"/>
		<stop  offset="0.7721" style="stop-color:#8D5B00"/>
		<stop  offset="1" style="stop-color:#D0A853"/>
		<stop  offset="1" style="stop-color:#D2AA5F"/>
	</linearGradient>
	<path class="st22" d="M1851.7,674c0.1-0.1,0.2-0.3,0.3-0.4C1851.9,673.8,1851.8,673.9,1851.7,674z"/>
	<linearGradient id="SVGID_24_" gradientUnits="userSpaceOnUse" x1="1311.4138" y1="889.6613" x2="1657.8965" y2="678.1718">
		<stop  offset="0" style="stop-color:#DCB45A"/>
		<stop  offset="0.2279" style="stop-color:#A88028"/>
		<stop  offset="0.414" style="stop-color:#C7A14E"/>
		<stop  offset="0.586" style="stop-color:#B28416"/>
		<stop  offset="0.7721" style="stop-color:#8D5B00"/>
		<stop  offset="1" style="stop-color:#D0A853"/>
		<stop  offset="1" style="stop-color:#D2AA5F"/>
	</linearGradient>
	<path class="st23" d="M1481.1,759.1l-54.2-50.7l37.5,95.1l4.7,3l14.3-41.5L1481.1,759.1z M1434.7,641.6c-3.2-8.2-12.4-12.2-20.6-9
		c-6.3,2.5-10.1,8.5-10.1,14.8c0,1.9,0.4,3.9,1.1,5.8l17.5,44.3l54.2,50.7L1434.7,641.6z M1552.2,912.8c-3-7.5-9.2-12.8-16.4-14.9
		l-21.3-53.9l-15.9,46.3v0l7.8,19.8v0c-3.4,6.3-4.1,14-1.3,21.2c5.1,13,19.8,19.3,32.8,14.2C1551,940.4,1557.3,925.7,1552.2,912.8z
		 M1532.7,932c-5.5,2.2-11.7-0.5-13.9-6c-2.2-5.5,0.5-11.7,6-13.9c5.5-2.2,11.7,0.5,13.9,6C1540.8,923.6,1538.2,929.8,1532.7,932z
		 M1486.3,772.2l-14.4,42l-4.2-2.7l28.2,71.6l15.9-46.3L1486.3,772.2z"/>
	<linearGradient id="SVGID_25_" gradientUnits="userSpaceOnUse" x1="1300.2809" y1="871.4222" x2="1646.7635" y2="659.9327">
		<stop  offset="0" style="stop-color:#DCB45A"/>
		<stop  offset="0.2279" style="stop-color:#A88028"/>
		<stop  offset="0.414" style="stop-color:#C7A14E"/>
		<stop  offset="0.586" style="stop-color:#B28416"/>
		<stop  offset="0.7721" style="stop-color:#8D5B00"/>
		<stop  offset="1" style="stop-color:#D0A853"/>
		<stop  offset="1" style="stop-color:#D2AA5F"/>
	</linearGradient>
	<path class="st24" d="M1295.3,931.2l-25.3-64.2c0.5-0.6,0.9-1.3,1.3-2c2.7-5,3.2-11,1-16.6c-4-10.1-15.5-15.1-25.6-11.1
		c-10.2,4-15.1,15.5-11.1,25.6c2.3,5.9,7.2,10,12.8,11.7c0.5,0.1,1,0.3,1.5,0.4l25.3,64.2c2.2,5.6,8.5,8.3,14,6.1
		C1294.7,943.1,1297.5,936.8,1295.3,931.2z M1257,863.8c-4.5,1.8-9.6-0.4-11.4-4.9c-1.8-4.5,0.4-9.6,4.9-11.4
		c4.5-1.8,9.6,0.4,11.4,4.9C1263.8,856.9,1261.6,862,1257,863.8z"/>
	<linearGradient id="SVGID_26_" gradientUnits="userSpaceOnUse" x1="1314.9579" y1="895.4674" x2="1661.4406" y2="683.978">
		<stop  offset="0" style="stop-color:#DCB45A"/>
		<stop  offset="0.2279" style="stop-color:#A88028"/>
		<stop  offset="0.414" style="stop-color:#C7A14E"/>
		<stop  offset="0.586" style="stop-color:#B28416"/>
		<stop  offset="0.7721" style="stop-color:#8D5B00"/>
		<stop  offset="1" style="stop-color:#D0A853"/>
		<stop  offset="1" style="stop-color:#D2AA5F"/>
	</linearGradient>
	<path class="st25" d="M1546.6,673.5L1546.6,673.5l-19.9-18.7l-11,31.9l23.1,58.5l16.8-49v0L1546.6,673.5z M1643.4,919l-24.5-62.1
		l0,0l-57.3-53.6l50.5,128.1c3.4,8.6,13.2,12.9,21.8,9.5C1642.6,937.4,1646.8,927.6,1643.4,919z M1558.4,703.5l-16.8,49l15.7,39.9
		l57.3,53.7L1558.4,703.5z M1514.5,592.3c4.1-6.8,5-15.4,1.9-23.4c-5.4-13.7-20.9-20.5-34.7-15.1c-13.7,5.4-20.5,21-15.1,34.7
		c3,7.6,9.1,13,16.3,15.5l29.8,75.6l11.6-33.7l17.9,16.7L1514.5,592.3z M1497.8,594.6c-8.8,3.5-18.8-0.8-22.2-9.6
		c-3.5-8.8,0.9-18.8,9.7-22.2c8.8-3.5,18.8,0.9,22.2,9.7C1511,581.2,1506.6,591.2,1497.8,594.6z"/>
	<linearGradient id="SVGID_27_" gradientUnits="userSpaceOnUse" x1="1339.6427" y1="935.9084" x2="1686.1254" y2="724.419">
		<stop  offset="0" style="stop-color:#DCB45A"/>
		<stop  offset="0.2279" style="stop-color:#A88028"/>
		<stop  offset="0.414" style="stop-color:#C7A14E"/>
		<stop  offset="0.586" style="stop-color:#B28416"/>
		<stop  offset="0.7721" style="stop-color:#8D5B00"/>
		<stop  offset="1" style="stop-color:#D0A853"/>
		<stop  offset="1" style="stop-color:#D2AA5F"/>
	</linearGradient>
	<path class="st26" d="M1709.1,625.4l-7.5-5.3l-9.7,48.3l2,5.2l17.9-41.2L1709.1,625.4z M1714.5,639l-17.9,41.2l26.3,66.8l47.4,33.6
		L1714.5,639z M1780.6,806.4l-6.9-17.4l-47.4-33.6L1751,818c3.2,8.2,12.4,12.2,20.6,9C1779.8,823.8,1783.8,814.5,1780.6,806.4z
		 M1706.4,591.7c-5.1-13-19.8-19.3-32.8-14.2c-13,5.1-19.3,19.8-14.2,32.8c2.8,7.2,8.6,12.4,15.4,14.6l13.8,35l7.5-37.4l2.2-10.9
		l5.3,3.8l2.2,1.5l-1.2-3C1708.4,607.4,1709.3,599.3,1706.4,591.7z M1688.2,614.6c-7.5,3-16-0.7-19-8.3c-3-7.5,0.7-16,8.3-19
		c7.5-3,16,0.7,19,8.2C1699.4,603.1,1695.8,611.6,1688.2,614.6z"/>
	<linearGradient id="SVGID_28_" gradientUnits="userSpaceOnUse" x1="1349.3728" y1="951.8494" x2="1695.8555" y2="740.3599">
		<stop  offset="0" style="stop-color:#DCB45A"/>
		<stop  offset="0.2279" style="stop-color:#A88028"/>
		<stop  offset="0.414" style="stop-color:#C7A14E"/>
		<stop  offset="0.586" style="stop-color:#B28416"/>
		<stop  offset="0.7721" style="stop-color:#8D5B00"/>
		<stop  offset="1" style="stop-color:#D0A853"/>
		<stop  offset="1" style="stop-color:#D2AA5F"/>
	</linearGradient>
	<path class="st27" d="M1865.6,676.2c-1-2.5-3.1-4.3-5.6-4.9c0,0,0,0,0,0l-22.9-58c-1-2.5-3.7-3.7-6.2-2.7c-1.9,0.7-3,2.5-3,4.4
		c0,0.6,0.1,1.2,0.3,1.7l22.9,58c-0.8,1.3-1.3,2.8-1.3,4.4c0,1,0.2,2,0.6,3c1.7,4.2,6.4,6.2,10.6,4.6
		C1865.2,685.1,1867.2,680.4,1865.6,676.2z M1859.6,683.3c-2.3,0.9-4.8-0.2-5.7-2.5c-0.9-2.3,0.2-4.8,2.5-5.7
		c2.3-0.9,4.8,0.2,5.7,2.5C1863,679.8,1861.9,682.4,1859.6,683.3z"/>
</g>
</svg>
