<svg width="252" height="160" viewBox="0 0 252 160" fill="none" xmlns="http://www.w3.org/2000/svg">
<path opacity="0.1" d="M125.573 158.712C194.898 158.712 251.097 153.096 251.097 146.168C251.097 139.24 194.898 133.624 125.573 133.624C56.2474 133.624 0.0480957 139.24 0.0480957 146.168C0.0480957 153.096 56.2474 158.712 125.573 158.712Z" fill="#DCD4C3"/>
<g opacity="0.1">
<path opacity="0.1" d="M12.0221 27.3004C11.8447 26.572 11.8533 25.8107 12.0473 25.0865C12.2413 24.3623 12.6143 23.6984 13.1322 23.156L14.6532 24.772L13.9469 22.4821C14.7444 21.9689 15.6844 21.7222 16.6313 21.7777C17.5783 21.8331 18.4831 22.1879 19.2151 22.7907C19.9471 23.3935 20.4685 24.2132 20.704 25.1315C20.9395 26.0497 20.8768 27.019 20.5252 27.8993C20.1735 28.7797 19.551 29.5256 18.7475 30.0294C17.944 30.5331 17.0011 30.7687 16.0549 30.702C15.1087 30.6354 14.2081 30.27 13.4833 29.6586C12.7584 29.0472 12.2468 28.2214 12.0221 27.3004V27.3004Z" fill="#A52A2A"/>
<path opacity="0.1" d="M12.9377 28.2744C13.9592 28.0924 15.015 28.117 16.0266 27.8858C17.0382 27.6546 18.0621 27.0963 18.4633 26.1395C18.6799 25.623 18.6946 25.0474 18.8472 24.5088C18.9937 24.0058 19.2626 23.547 19.6299 23.1732C20.0671 23.6359 20.4005 24.1865 20.6079 24.7882C20.8152 25.3898 20.8917 26.0288 20.8323 26.6624C20.7729 27.296 20.5789 27.9097 20.2633 28.4624C19.9477 29.0151 19.5177 29.4942 19.0021 29.8676C18.4865 30.241 17.8971 30.5003 17.2732 30.628C16.6494 30.7557 16.0055 30.7489 15.3844 30.6081C14.7634 30.4674 14.1796 30.1958 13.6719 29.8116C13.1643 29.4274 12.7445 28.9394 12.4406 28.3802C12.6055 28.3408 12.7704 28.304 12.9377 28.2744Z" fill="black"/>
</g>
<g opacity="0.1">
<path opacity="0.1" d="M220.777 0.670282C221.271 0.318957 221.845 0.0972387 222.447 0.0254705C223.049 -0.0462977 223.66 0.0341831 224.223 0.259528L223.462 1.88533L224.971 0.670282C225.596 1.11371 226.063 1.7442 226.306 2.47061C226.549 3.19702 226.554 3.98173 226.321 4.71135C226.088 5.44097 225.629 6.0777 225.011 6.52951C224.392 6.98133 223.645 7.22484 222.879 7.22484C222.113 7.22484 221.366 6.98133 220.747 6.52951C220.128 6.0777 219.669 5.44097 219.437 4.71135C219.204 3.98173 219.209 3.19702 219.452 2.47061C219.694 1.7442 220.162 1.11371 220.787 0.670282H220.777Z" fill="#A52A2A"/>
<path opacity="0.1" d="M220.322 1.6492C220.765 2.36003 221.06 3.15693 221.537 3.84808C222.015 4.53923 222.741 5.13692 223.58 5.14922C224.031 5.14922 224.469 4.99672 224.917 4.94999C225.336 4.91099 225.758 4.97429 226.147 5.13446C225.931 5.60081 225.618 6.01571 225.229 6.35146C224.839 6.68721 224.383 6.93608 223.889 7.08147C223.396 7.22685 222.877 7.2654 222.368 7.19454C221.859 7.12368 221.37 6.94504 220.936 6.67054C220.501 6.39605 220.13 6.03201 219.847 5.60275C219.564 5.17349 219.376 4.68888 219.296 4.18127C219.215 3.67365 219.244 3.15472 219.38 2.65913C219.516 2.16353 219.757 1.70267 220.085 1.30731C220.171 1.41799 220.25 1.53114 220.322 1.6492Z" fill="black"/>
</g>
<g opacity="0.1">
<path opacity="0.1" d="M235.953 18.4065C236.525 17.9996 237.189 17.7429 237.886 17.6599C238.583 17.577 239.289 17.6705 239.94 17.9318L239.062 19.8134L240.809 18.404C241.532 18.9184 242.072 19.6487 242.352 20.4897C242.631 21.3308 242.637 22.2389 242.366 23.0831C242.096 23.9273 241.565 24.6638 240.848 25.1864C240.132 25.709 239.268 25.9907 238.381 25.9907C237.494 25.9907 236.63 25.709 235.914 25.1864C235.198 24.6638 234.666 23.9273 234.396 23.0831C234.126 22.2389 234.131 21.3308 234.411 20.4897C234.691 19.6487 235.231 18.9184 235.953 18.404V18.4065Z" fill="#A52A2A"/>
<path opacity="0.1" d="M235.424 19.5379C235.938 20.3619 236.281 21.2867 236.834 22.0861C237.388 22.8854 238.225 23.5766 239.197 23.5938C239.721 23.5938 240.226 23.4143 240.748 23.3601C241.235 23.3143 241.726 23.3886 242.178 23.5766C241.927 24.115 241.564 24.5938 241.114 24.9812C240.663 25.3685 240.135 25.6555 239.565 25.8231C238.995 25.9906 238.396 26.0349 237.807 25.9529C237.218 25.8709 236.654 25.6645 236.151 25.3476C235.649 25.0306 235.22 24.6103 234.892 24.1146C234.565 23.6189 234.347 23.0592 234.253 22.4727C234.159 21.8863 234.191 21.2866 234.347 20.7136C234.503 20.1405 234.78 19.6073 235.158 19.1493C235.252 19.2723 235.34 19.4026 235.424 19.5379Z" fill="black"/>
</g>
<path d="M231.712 17.2136L231.658 139.773C223.044 139.773 231.658 139.773 222.96 139.817H190.592L190.494 139.778C185.663 137.809 180.253 137.809 175.423 139.778L175.342 139.813H142.905C141.812 139.37 140.746 138.884 139.705 138.356C137.004 136.999 134.023 136.292 131 136.292C127.977 136.292 124.995 136.999 122.294 138.356C121.246 138.883 120.179 139.368 119.095 139.813H86.633L86.5518 139.778C81.7215 137.809 76.3117 137.809 71.4814 139.778L71.383 139.817H39.0198C33.4867 137.567 28.4759 134.203 24.299 129.935V17.2136H231.712Z" fill="white"/>
<path d="M231.712 12.4198V17.7055H24.2965V12.4198C24.2962 12.1814 24.3429 11.9452 24.4341 11.7248C24.5253 11.5044 24.6591 11.3042 24.8278 11.1356C24.9965 10.9669 25.1969 10.8333 25.4174 10.7421C25.638 10.651 25.8743 10.6043 26.1129 10.6046H229.891C230.13 10.6037 230.367 10.6499 230.588 10.7407C230.809 10.8315 231.01 10.9651 231.179 11.1338C231.349 11.3025 231.483 11.503 231.574 11.7237C231.666 11.9443 231.713 12.1809 231.712 12.4198V12.4198Z" fill="#EDEDF4"/>
<path opacity="0.8" d="M27.5847 14.9507C28.0537 14.9507 28.4339 14.5708 28.4339 14.1022C28.4339 13.6335 28.0537 13.2536 27.5847 13.2536C27.1158 13.2536 26.7356 13.6335 26.7356 14.1022C26.7356 14.5708 27.1158 14.9507 27.5847 14.9507Z" fill="#FA5959"/>
<path opacity="0.8" d="M29.918 14.9507C30.3869 14.9507 30.7671 14.5708 30.7671 14.1022C30.7671 13.6335 30.3869 13.2536 29.918 13.2536C29.449 13.2536 29.0688 13.6335 29.0688 14.1022C29.0688 14.5708 29.449 14.9507 29.918 14.9507Z" fill="#FED253"/>
<path opacity="0.8" d="M32.2488 14.9507C32.7178 14.9507 33.0979 14.5708 33.0979 14.1022C33.0979 13.6335 32.7178 13.2536 32.2488 13.2536C31.7798 13.2536 31.3997 13.6335 31.3997 14.1022C31.3997 14.5708 31.7798 14.9507 32.2488 14.9507Z" fill="#8CCF4D"/>
<path d="M51.4886 17.7055V140.063C51.4886 140.063 40.4129 140.019 24.299 139.773V17.7055H51.4886Z" fill="#EDEDF4"/>
<path d="M232.015 17.7055V140.265C231.912 140.341 222.111 140.152 221.678 140.309H204.818V17.7055H232.015Z" fill="#EDEDF4"/>
<path d="M47.7376 23.6799H28.0475V26.1395H47.7376V23.6799Z" fill="white"/>
<path d="M47.7376 29.337H28.0475V31.7966H47.7376V29.337Z" fill="white"/>
<path d="M47.7376 34.9941H28.0475V37.4537H47.7376V34.9941Z" fill="white"/>
<path d="M47.7376 40.6512H28.0475V43.1108H47.7376V40.6512Z" fill="white"/>
<path d="M47.7376 46.3082H28.0475V48.7678H47.7376V46.3082Z" fill="white"/>
<path d="M47.7966 63.0335H28.1064V65.4931H47.7966V63.0335Z" fill="white"/>
<path d="M47.7966 68.6906H28.1064V71.1502H47.7966V68.6906Z" fill="white"/>
<path d="M47.7966 74.3477H28.1064V76.8073H47.7966V74.3477Z" fill="white"/>
<path d="M47.7966 80.0049H28.1064V82.4644H47.7966V80.0049Z" fill="white"/>
<path d="M47.7966 85.6619H28.1064V88.1215H47.7966V85.6619Z" fill="white"/>
<path d="M47.8532 102.387H28.1631V104.847H47.8532V102.387Z" fill="white"/>
<path d="M47.8532 108.044H28.1631V110.504H47.8532V108.044Z" fill="white"/>
<path d="M47.8532 113.701H28.1631V116.161H47.8532V113.701Z" fill="white"/>
<path d="M47.8532 119.359H28.1631V121.818H47.8532V119.359Z" fill="white"/>
<path d="M47.8532 125.016H28.1631V127.475H47.8532V125.016Z" fill="white"/>
<path d="M208.764 18.7607H206.302V21.2203H208.764V18.7607Z" fill="white"/>
<path d="M211.717 18.7607H209.256V21.2203H211.717V18.7607Z" fill="white"/>
<path d="M214.671 18.7607H212.209V21.2203H214.671V18.7607Z" fill="white"/>
<path d="M217.624 18.7607H215.163V21.2203H217.624V18.7607Z" fill="white"/>
<path d="M220.578 18.7607H218.116V21.2203H220.578V18.7607Z" fill="white"/>
<path d="M208.764 29.091H206.302V31.5506H208.764V29.091Z" fill="white"/>
<path d="M211.717 29.091H209.256V31.5506H211.717V29.091Z" fill="white"/>
<path d="M214.671 29.091H212.209V31.5506H214.671V29.091Z" fill="white"/>
<path d="M217.624 29.091H215.163V31.5506H217.624V29.091Z" fill="white"/>
<path d="M220.578 29.091H218.116V31.5506H220.578V29.091Z" fill="white"/>
<path d="M208.764 39.4214H206.302V41.881H208.764V39.4214Z" fill="white"/>
<path d="M211.717 39.4214H209.256V41.881H211.717V39.4214Z" fill="white"/>
<path d="M214.671 39.4214H212.209V41.881H214.671V39.4214Z" fill="white"/>
<path d="M217.624 39.4214H215.163V41.881H217.624V39.4214Z" fill="white"/>
<path d="M220.578 39.4214H218.116V41.881H220.578V39.4214Z" fill="white"/>
<path d="M208.764 49.7517H206.302V52.2113H208.764V49.7517Z" fill="white"/>
<path d="M211.717 49.7517H209.256V52.2113H211.717V49.7517Z" fill="white"/>
<path d="M214.671 49.7517H212.209V52.2113H214.671V49.7517Z" fill="white"/>
<path d="M217.624 49.7517H215.163V52.2113H217.624V49.7517Z" fill="white"/>
<path d="M220.578 49.7517H218.116V52.2113H220.578V49.7517Z" fill="white"/>
<path d="M208.764 60.082H206.302V62.5417H208.764V60.082Z" fill="white"/>
<path d="M211.717 60.082H209.256V62.5417H211.717V60.082Z" fill="white"/>
<path d="M214.671 60.082H212.209V62.5417H214.671V60.082Z" fill="white"/>
<path d="M217.624 60.082H215.163V62.5417H217.624V60.082Z" fill="white"/>
<path d="M220.578 60.082H218.116V62.5417H220.578V60.082Z" fill="white"/>
<path d="M208.764 70.4124H206.302V72.872H208.764V70.4124Z" fill="white"/>
<path d="M211.717 70.4124H209.256V72.872H211.717V70.4124Z" fill="white"/>
<path d="M214.671 70.4124H212.209V72.872H214.671V70.4124Z" fill="white"/>
<path d="M217.624 70.4124H215.163V72.872H217.624V70.4124Z" fill="white"/>
<path d="M220.578 70.4124H218.116V72.872H220.578V70.4124Z" fill="white"/>
<path d="M208.764 80.7427H206.302V83.2023H208.764V80.7427Z" fill="white"/>
<path d="M211.717 80.7427H209.256V83.2023H211.717V80.7427Z" fill="white"/>
<path d="M214.671 80.7427H212.209V83.2023H214.671V80.7427Z" fill="white"/>
<path d="M217.624 80.7427H215.163V83.2023H217.624V80.7427Z" fill="white"/>
<path d="M220.578 80.7427H218.116V83.2023H220.578V80.7427Z" fill="white"/>
<path d="M208.764 91.073H206.302V93.5326H208.764V91.073Z" fill="white"/>
<path d="M211.717 91.073H209.256V93.5326H211.717V91.073Z" fill="white"/>
<path d="M214.671 91.073H212.209V93.5326H214.671V91.073Z" fill="white"/>
<path d="M217.624 91.073H215.163V93.5326H217.624V91.073Z" fill="white"/>
<path d="M220.578 91.073H218.116V93.5326H220.578V91.073Z" fill="white"/>
<path d="M208.764 101.403H206.302V103.863H208.764V101.403Z" fill="white"/>
<path d="M211.717 101.403H209.256V103.863H211.717V101.403Z" fill="white"/>
<path d="M214.671 101.403H212.209V103.863H214.671V101.403Z" fill="white"/>
<path d="M217.624 101.403H215.163V103.863H217.624V101.403Z" fill="white"/>
<path d="M220.578 101.403H218.116V103.863H220.578V101.403Z" fill="white"/>
<path d="M208.764 111.734H206.302V114.193H208.764V111.734Z" fill="white"/>
<path d="M211.717 111.734H209.256V114.193H211.717V111.734Z" fill="white"/>
<path d="M214.671 111.734H212.209V114.193H214.671V111.734Z" fill="white"/>
<path d="M217.624 111.734H215.163V114.193H217.624V111.734Z" fill="white"/>
<path d="M220.578 111.734H218.116V114.193H220.578V111.734Z" fill="white"/>
<path d="M208.764 122.064H206.302V124.524H208.764V122.064Z" fill="white"/>
<path d="M211.717 122.064H209.256V124.524H211.717V122.064Z" fill="white"/>
<path d="M214.671 122.064H212.209V124.524H214.671V122.064Z" fill="white"/>
<path d="M217.624 122.064H215.163V124.524H217.624V122.064Z" fill="white"/>
<path d="M220.578 122.064H218.116V124.524H220.578V122.064Z" fill="white"/>
<path d="M208.764 132.394H206.302V134.854H208.764V132.394Z" fill="white"/>
<path d="M211.717 132.394H209.256V134.854H211.717V132.394Z" fill="white"/>
<path d="M214.671 132.394H212.209V134.854H214.671V132.394Z" fill="white"/>
<path d="M217.624 132.394H215.163V134.854H217.624V132.394Z" fill="white"/>
<path d="M220.578 132.394H218.116V134.854H220.578V132.394Z" fill="white"/>
<path d="M135.538 45.0292L127.768 46.1902L111.733 48.5834L76.4064 53.8592L76.2809 53.8764L64.7129 130.001L64.6661 130.304L196.344 72.8424L196.693 72.6899L135.538 45.0292ZM188.758 69.4703L184.702 71.0051L178.721 68.1003L182.745 66.75L188.758 69.4703ZM124.428 48.1898L124.561 48.1701L126.038 49.0827L125.031 49.245L123.239 49.5328L121.868 48.5858L123.97 48.2661L124.428 48.1898ZM123.17 49.8919L124.472 50.7921L125.13 51.2471L124.472 51.3775L123.98 51.4759L122.678 51.7341L120.793 50.2756L123.023 49.9165L123.17 49.8919ZM125.223 49.5598L126.491 49.3532L128.482 50.583L125.59 51.1586L124.952 50.7183L123.65 49.8181L125.223 49.5598ZM130.852 48.6498L133.372 48.2439L135.25 49.2278L132.543 49.7664L131.534 49.1909L130.638 48.6793L130.852 48.6498ZM133.235 50.556L134.394 51.2176L134.128 51.2717L131.206 51.8522L129.393 50.738L132.479 50.1255L133.235 50.556ZM124.893 53.4608L127.554 52.9295L127.948 53.205L128.039 53.2664L128.607 53.66L125.9 54.2429L125.139 53.6428L125.083 53.596L124.893 53.4608ZM128.017 52.8385L131.14 52.2162L131.878 52.6688L132.016 52.7524L132.228 52.8828L129.077 53.5641L128.556 53.2025L128.462 53.1361L128.017 52.8385ZM118.002 71.7012L111.878 73.3147L110.104 70.1787L115.89 68.7792L118.002 71.7012ZM115.688 68.4766L109.929 69.8737L108.452 67.2591L113.778 65.9998L113.891 65.9728L115.302 67.9404V67.9577L115.688 68.4766ZM134.278 57.5732L134.844 57.9668L133.441 58.2693L131.785 58.6235L131.608 58.6628L131.157 58.3136L130.635 57.9077L128.42 56.186L131.312 55.5268L133.385 56.9608L134.278 57.5732ZM124.098 57.1797L124.477 57.0936L128.007 56.2893L130.202 57.9889L130.724 58.3947L131.192 58.7563L127.037 59.654L126.449 59.1621L126.05 58.8276L124.327 57.3814L124.098 57.1797ZM131.539 59.0268L131.92 59.322L132.053 59.4253L133.938 60.8838L129.68 61.8923L127.355 59.9246L131.539 59.0268ZM126.616 59.745L125.27 60.0353H125.245L118.189 61.5602L117.896 61.6242L115.735 59.0785L118.11 58.5374L123.663 57.2731L126.616 59.745ZM118.199 61.9095L124.982 60.4337L125.565 60.3083L126.941 60.0107L129.277 61.9784L127.716 62.3473L127.143 62.4826L120.05 64.16L118.199 61.9808L118.142 61.9144L118.199 61.9095ZM121.974 66.9541L118.356 67.8298L116.043 68.3906L114.243 65.8891L118.277 64.9348L119.926 64.5462L121.974 66.9541ZM118.364 68.1839L122.22 67.2518L124.539 69.9844L118.455 71.588L118.351 71.6151L116.254 68.6956L118.364 68.1839ZM120.298 64.465L127.436 62.7777L128.009 62.6425L129.597 62.2661L132.225 64.4798L131.081 64.7577L128.866 65.2915L122.334 66.8754L120.298 64.465ZM130.013 62.1678L134.283 61.1593L135.181 61.8554L137.057 63.309L135.181 63.764L132.639 64.3789L130.013 62.1678ZM135.181 61.4299L134.706 61.0609L135.181 60.9478L138.135 60.2517L141.133 62.3252L137.485 63.2082L135.181 61.4299ZM135.181 60.5985L134.362 60.7928L132.319 59.2113L131.962 58.9408L132.868 58.744L135.172 58.2521H135.213L137.744 60.0033L135.181 60.5985ZM128.086 55.9253L126.257 54.5135L128.994 53.9256L130.938 55.271L128.086 55.9253ZM127.657 56.0237L124.475 56.7492L123.983 56.8599L123.771 56.9091L122.019 55.4334L123.988 55.0103L124.48 54.9045L125.838 54.6119L127.657 56.0237ZM123.355 57.0075L118.09 58.2029L115.477 58.7981L114.064 57.1379L118.031 56.2844L121.58 55.5194L123.355 57.0075ZM115.115 58.8842L112.122 59.5655L110.04 60.0402L108.779 58.2865L112.053 57.5831L113.695 57.219L115.115 58.8842ZM112.134 59.9123L115.361 59.1744L117.51 61.7103L112.225 62.854L112.078 62.886L110.244 60.3329L112.134 59.9123ZM117.756 62.003L118.204 62.5293L119.668 64.251L118.26 64.5978L114.019 65.5817L112.297 63.1762L117.756 62.003ZM122.58 67.1558L128.63 65.6801L131.251 65.043L132.54 64.7307L135.169 66.9443L135.366 67.1091L135.169 67.1608L124.891 69.8663L122.58 67.1558ZM135.172 66.5114L132.956 64.6421L135.172 64.1059L137.387 63.5673L140.301 65.8277L135.77 67.023L135.172 66.5114ZM137.813 63.464L141.49 62.5736L144.561 64.6987L140.714 65.712L137.813 63.464ZM141.933 62.4678L146.156 61.4446L149.385 63.4271L144.992 64.5978L141.933 62.4678ZM141.559 62.2071L138.566 60.1361L142.504 59.2039L145.743 61.1938L141.559 62.2071ZM138.184 59.8754L135.664 58.1315L139.437 57.3174L142.103 58.9408L138.184 59.8754ZM135.282 57.8684L135.167 57.7872L131.76 55.4309L135.122 54.6635L135.167 54.6906L139.019 57.0592L135.282 57.8684ZM131.381 55.1628L129.444 53.8223L132.644 53.1336L134.714 54.4052L131.381 55.1628ZM124.647 53.687L125.467 54.3192L124.458 54.5356L123.965 54.6414L121.672 55.1333L120.662 54.2847L121.893 54.0388L122.346 53.9502H122.366L123.953 53.6329L124.445 53.537L124.578 53.6428L124.647 53.687ZM118.002 54.8185L120.244 54.3708L121.261 55.2268L118.031 55.9228L113.818 56.8452L112.964 55.8392L118.002 54.8185ZM113.446 56.9091L112.031 57.2141L108.553 57.952L107.763 56.8501L111.989 56.0065L112.587 55.8884L113.446 56.9091ZM108.191 58.0405L103.761 58.9924L103.079 57.7921L107.391 56.9313L108.191 58.0405ZM108.408 58.3406L109.67 60.0992L104.994 61.1642L103.941 59.3023L108.408 58.3406ZM109.885 60.3968L111.716 62.945L106.626 64.0469L105.169 61.4717L109.885 60.3968ZM111.932 63.2475L112.255 63.6878L113.66 65.6555L113.53 65.685L108.26 66.932L106.801 64.3519L111.932 63.2475ZM109.574 69.9376L103.266 71.4847L102.112 68.757L108.093 67.3428L109.574 69.9376ZM109.747 70.2451L111.526 73.386L104.827 75.1741L103.402 71.8045L109.747 70.2451ZM111.698 73.6885L113.818 77.437L106.655 79.4735L104.957 75.4841L111.698 73.6885ZM112.038 73.6L118.191 71.9767L120.709 75.4767L114.155 77.3411L112.038 73.6ZM118.553 71.8783L124.773 70.2549L127.549 73.5238L121.049 75.3709L118.553 71.8783ZM125.144 70.1566L135.179 67.51L135.693 67.3747L139.087 70.2549L127.908 73.4328L125.144 70.1566ZM136.087 67.2616L140.645 66.0736L144.165 68.7988L139.489 70.1295L136.087 67.2616ZM141.054 65.9531L144.928 64.9324L148.654 67.5125L144.566 68.6734L141.054 65.9531ZM145.359 64.8438L149.789 63.678L153.727 66.0957L149.083 67.4166L145.359 64.8438ZM150.244 63.5525L154.207 62.5096L158.241 64.8094L154.173 65.9654L150.244 63.5525ZM149.846 63.3066L146.629 61.3389L150.491 60.3944L153.781 62.2711L149.846 63.3066ZM146.223 61.0782L142.986 59.0908L146.678 58.2176L150.062 60.146L146.223 61.0782ZM142.578 58.8375L139.922 57.219L143.535 56.4369L146.242 57.9791L142.578 58.8375ZM139.511 56.9534L135.607 54.5553L138.923 53.8002L143.107 56.1811L139.511 56.9534ZM135.194 54.2995H135.179L133.124 53.0377L135.172 52.5974L136.358 52.3515L138.482 53.5641L135.194 54.2995ZM135.179 52.2457L134.076 52.4917H134.052L132.705 52.7917L132.55 52.6958L132.408 52.6073L131.632 52.1301L134.473 51.5644L134.844 51.4906L135.915 52.1006L135.179 52.2457ZM130.724 51.953L127.638 52.5679L125.981 51.4193L128.91 50.8388L130.724 51.953ZM127.175 52.6589L124.549 53.1828L124.472 53.1238L123.98 52.7426L123.03 52.0047L123.98 51.8153L124.472 51.7169L125.516 51.5103L127.175 52.6589ZM123.975 53.173L124.103 53.2714L123.975 53.296L120.338 54.0215L118.915 52.8237L122.582 52.0858L123.975 53.173ZM119.914 54.1052L117.945 54.5012L112.735 55.5391L111.959 54.6266L111.637 54.2675L111.927 54.2109L116.604 53.2812L118.492 52.9049L119.914 54.1052ZM111.962 55.1726L112.338 55.6154L111.982 55.6867L107.551 56.5722L106.616 55.2686L111.265 54.3462L111.962 55.1726ZM107.182 56.6484L102.912 57.4994L102.154 56.1614L106.247 55.3473L107.182 56.6484ZM102.56 57.5708L97.7849 58.5226L97.2041 57.1452L101.799 56.2352L102.56 57.5708ZM102.737 57.8807L103.419 59.0859L98.4741 60.1509L97.9203 58.8399L102.737 57.8807ZM103.594 59.3958L104.652 61.2626L99.4463 62.4482L98.6095 60.4682L103.594 59.3958ZM104.824 61.5701L106.279 64.1404L100.672 65.3529L99.5792 62.7654L104.824 61.5701ZM106.454 64.4503L107.911 67.0329L101.972 68.4373L100.8 65.6678L106.454 64.4503ZM102.934 71.5659L96.5888 73.1032L95.7766 70.2549L101.777 68.8357L102.934 71.5659ZM103.067 71.8832L104.494 75.2578L97.7013 77.0484L96.6749 73.4303L103.067 71.8832ZM104.627 75.5726L106.318 79.567L99.0033 81.6454L97.7948 77.373L104.627 75.5726ZM106.451 79.8818L108.42 84.5551L100.527 86.9802L99.1091 81.9799L106.451 79.8818ZM106.781 79.7884L113.983 77.7395L116.461 82.1152L108.757 84.4616L106.781 79.7884ZM114.31 77.646L120.906 75.7694L123.845 79.8622L116.786 82.0143L114.31 77.646ZM121.253 75.6784L127.783 73.8238L131.054 77.6731L124.187 79.7662L121.253 75.6784ZM128.145 73.7107L139.395 70.5132L143.417 73.8976L131.416 77.56L128.145 73.7107ZM139.789 70.4001L144.49 69.0645L148.674 72.2989L143.813 73.7746L139.789 70.4001ZM144.894 68.9489L149.014 67.7953L153.444 70.86L149.068 72.1931L144.894 68.9489ZM149.435 67.6601L154.111 66.3319L158.787 69.2121L153.845 70.7173L149.435 67.6601ZM154.552 66.204L158.642 65.043L163.466 67.7953L159.235 69.0842L154.552 66.204ZM159.105 64.9151L162.935 63.8255L167.899 66.4426L163.917 67.6576L159.105 64.9151ZM158.694 64.6692L154.675 62.3842L158.367 61.4127L162.509 63.5943L158.694 64.6692ZM154.246 62.1382L150.968 60.2714L154.552 59.4032L157.911 61.1741L154.246 62.1382ZM150.54 60.0254L147.155 58.0971L150.552 57.2953L154.099 59.1646L150.54 60.0254ZM146.725 57.8512L144.032 56.3164L147.34 55.6031L150.097 57.0542L146.725 57.8512ZM143.599 56.0729L139.415 53.6895L142.408 53.0057L146.877 55.362L143.599 56.0729ZM138.979 53.4411L136.862 52.2334L139.759 51.6087L141.95 52.7647L138.979 53.4411ZM136.419 51.9825L135.359 51.3775L138.231 50.8044L139.292 51.3627L136.419 51.9825ZM134.911 51.1217L132.993 50.0272L135.728 49.486L137.756 50.5535L134.911 51.1217ZM132.031 49.8722L128.969 50.4822L127 49.2721L130.099 48.7801L132.031 49.8722ZM122.228 51.8227L118.583 52.5458L116.673 50.9397L120.325 50.3494L122.228 51.8227ZM118.159 52.6319L116.294 53.0033L111.918 53.8715L111.388 53.9773L109.754 52.0539L111.841 51.7169L114.433 51.2988L116.23 51.0085L118.159 52.6319ZM111.007 54.0511L106.394 54.9685L104.868 52.8459L109.365 52.108L111.007 54.0511ZM106.028 55.0349L101.976 55.8392L100.66 53.5296L104.492 52.9098L106.028 55.0349ZM101.625 55.9105L97.0687 56.8157L95.9882 54.2675L100.3 53.5714L101.625 55.9105ZM96.7266 56.8944L92.2446 57.7847L91.457 55.0054L95.6412 54.329L96.7266 56.8944ZM96.862 57.2117L97.4453 58.589L92.7393 59.5261L92.3382 58.1119L96.862 57.2117ZM97.5807 58.9088L98.1369 60.2247L93.2365 61.2798L92.8329 59.8557L97.5807 58.9088ZM98.2723 60.542L99.1091 62.5244L93.9232 63.705L93.3276 61.607L98.2723 60.542ZM99.2445 62.8417L100.337 65.4267L94.7527 66.6319L94.0143 64.0321L99.2445 62.8417ZM100.475 65.744L101.649 68.5185L95.6879 69.9278L94.8487 66.9591L100.475 65.744ZM96.254 73.1819L89.3034 74.8642L88.9195 71.8734L95.4443 70.3312L96.254 73.1819ZM96.3451 73.509L97.3714 77.1418L89.8498 79.1095L89.3576 75.1987L96.3451 73.509ZM97.465 77.4591L98.6784 81.7388L90.4848 84.0681L89.8941 79.4539L97.465 77.4591ZM98.7694 82.066L100.19 87.0737L91.2232 89.8039L90.5291 84.4075L98.7694 82.066ZM100.281 87.3984L102.004 93.4687L92.1216 96.7842L91.2675 90.1433L100.281 87.3984ZM100.606 87.3L108.563 84.8748L110.933 90.4753L102.319 93.3605L100.606 87.3ZM108.895 84.7666L116.636 82.4078L119.56 87.573L111.26 90.3573L108.895 84.7666ZM116.968 82.307L124.066 80.145L127.492 84.9142L119.885 87.4722L116.968 82.307ZM124.401 80.0491L131.293 77.9486L135.058 82.3759L127.815 84.806L124.401 80.0491ZM131.652 77.8354L143.729 74.146L148.243 77.9461L135.41 82.2504L131.652 77.8354ZM144.116 74.0378L148.997 72.562L153.641 76.158L148.622 77.8404L144.116 74.0378ZM149.393 72.4292L153.798 71.0887L158.672 74.4609L154.025 76.0178L149.393 72.4292ZM154.212 70.9535L159.186 69.4383L164.274 72.5842L159.066 74.3305L154.212 70.9535ZM159.627 69.308L163.877 68.0118L169.066 70.9633L164.709 72.4268L159.627 69.308ZM164.325 67.8765L168.327 66.6467L173.617 69.4334L169.499 70.8157L164.325 67.8765ZM168.788 66.5163L172.425 65.4071L177.84 68.0315L174.072 69.2932L168.788 66.5163ZM168.362 66.2901L163.41 63.6804L166.855 62.6966L171.98 65.1832L168.362 66.2901ZM162.969 63.464L158.839 61.2872L162.127 60.4165L166.39 62.485L162.969 63.464ZM158.396 61.0536L155.051 59.29L158.216 58.5226L161.662 60.1927L158.396 61.0536ZM154.596 59.0514L151.054 57.1846L154.008 56.4836L157.727 58.289L154.596 59.0514ZM150.599 56.9436L147.857 55.4973L150.714 54.8799L153.535 56.25L150.599 56.9436ZM147.399 55.2514L142.92 52.8901L145.445 52.317L150.23 54.6389L147.399 55.2514ZM142.459 52.6491L140.279 51.498L142.691 50.979L144.958 52.0785L142.459 52.6491ZM139.811 51.252L138.763 50.6986L141.138 50.2264L142.196 50.738L139.811 51.252ZM138.285 50.4477L136.259 49.3803L138.475 48.9375L140.623 49.9804L138.285 50.4477ZM135.782 49.1294L133.931 48.1456L136.146 47.7889L137.99 48.6842L135.782 49.1294ZM133.431 47.8996L131.856 47.0707L133.958 46.7485L135.607 47.5503L133.431 47.8996ZM132.875 47.9906L130.488 48.3645L130.163 48.4161L128.639 47.5503L129.338 47.4446L131.285 47.147L132.875 47.9906ZM129.636 48.5145L126.565 49.0064L125.088 48.0988L128.093 47.6266L129.636 48.5145ZM122.769 49.6213L120.426 50.0001L119.146 49.0163L121.388 48.6744L122.769 49.6213ZM119.971 50.064L116.343 50.6494L115.112 49.6139L118.684 49.0679L119.971 50.064ZM115.9 50.7208L114.125 51.0085L111.841 51.3775L109.51 51.7538L108.543 50.615L111.797 50.1231L112.961 49.9435L114.667 49.6853L115.9 50.7208ZM109.107 51.8079L104.644 52.5458L103.786 51.3504L108.137 50.6863L109.107 51.8079ZM104.27 52.5876L100.48 53.2L99.7687 51.9432L103.409 51.3873L104.27 52.5876ZM100.123 53.2566L95.8504 53.9576L95.2917 52.6343L99.4069 52.0071L100.123 53.2566ZM95.5083 53.9945L91.3635 54.6635L90.9722 53.2837L94.9471 52.6786L95.5083 53.9945ZM91.0263 54.7348L86.8077 55.4161L86.6182 53.9576L90.6325 53.3452L91.0263 54.7348ZM91.1198 55.0644L91.9074 57.8487L87.231 58.776L86.8495 55.7433L91.1198 55.0644ZM92.001 58.1758L92.4022 59.5926L87.4796 60.5764L87.2901 59.1154L92.001 58.1758ZM92.4932 59.9197L92.8969 61.3487L87.7085 62.4654L87.5092 60.9109L92.4932 59.9197ZM92.9855 61.6758L93.5811 63.7788L88.0359 65.043L87.7479 62.8023L92.9855 61.6758ZM93.6746 64.1059L94.413 66.7033L88.4174 67.9995L88.0802 65.38L93.6746 64.1059ZM94.5016 67.0304L95.3581 70.009L88.8801 71.5389L88.4715 68.3414L94.5016 67.0304ZM88.9638 74.9454L81.5086 76.7508L81.5627 73.6098L88.5798 71.9521L88.9638 74.9454ZM89.0081 75.2848L89.5003 79.203L81.4347 81.3232L81.5086 77.0926L89.0081 75.2848ZM89.5545 79.5424L90.1476 84.1615L81.3289 86.6679L81.4175 81.6847L89.5545 79.5424ZM90.1895 84.501L90.8836 89.9121L81.2206 92.8636L81.324 87.0368L90.1895 84.501ZM90.9279 90.2466L91.7795 96.8875L81.0828 100.481L81.2132 93.2055L90.9279 90.2466ZM91.8238 97.2368L92.9166 105.74L80.9105 110.285L81.0779 100.84L91.8238 97.2368ZM92.1536 97.1261L102.085 93.7958L104.253 101.45L93.2439 105.617L92.1536 97.1261ZM102.407 93.6827L111.056 90.7828L114.01 97.7533L104.576 101.325L102.407 93.6827ZM111.388 90.6697L119.725 87.8829L123.321 94.2361L114.33 97.6377L111.388 90.6697ZM120.054 87.7624L127.684 85.202L131.846 90.9968L123.645 94.1131L120.054 87.7624ZM128.031 85.0888L135.302 82.6513L139.828 87.9788L132.184 90.8713L128.031 85.0888ZM135.661 82.5333L148.563 78.2068L153.865 82.671L140.178 87.851L135.661 82.5333ZM148.94 78.0814L153.963 76.4039L159.378 80.5853L154.209 82.5382L148.94 78.0814ZM154.355 76.2638L159.031 74.697L164.653 78.5856L159.755 80.4402L154.355 76.2638ZM159.43 74.5617L164.665 72.8055L170.481 76.3794L165.034 78.4405L159.43 74.5617ZM165.091 72.6653L169.467 71.1896L175.337 74.5346L170.887 76.2195L165.091 72.6653ZM169.898 71.0518L174.037 69.6646L179.967 72.7908L175.748 74.3871L169.898 71.0518ZM174.471 69.5171L178.261 68.2479L184.266 71.1625L180.38 72.6383L174.471 69.5171ZM182.293 66.5385L178.286 67.8814L172.888 65.2742L176.826 64.0764L182.293 66.5385ZM176.363 63.86L172.45 65.0504L167.338 62.5687L171.128 61.4914L176.363 63.86ZM170.648 61.2798L166.88 62.3522L162.629 60.2886L166.321 59.3048L170.648 61.2798ZM165.819 59.0957L162.162 60.0599L158.736 58.3972L162.342 57.524L165.819 59.0957ZM161.839 57.2953L158.256 58.1635L154.539 56.3606L157.973 55.549L161.839 57.2953ZM157.466 55.3276L154.057 56.1319L151.251 54.7594L154.625 54.0215L157.466 55.3276ZM154.106 53.8076L150.759 54.5135L145.964 52.1867L149.014 51.5005L154.106 53.8076ZM148.521 51.2693L145.489 51.9579L143.232 50.8634L145.977 50.2731L145.94 50.1009L148.521 51.2693ZM145.689 49.9878L142.735 50.6224L141.691 50.1157L144.217 49.6115L144.153 49.2917L145.689 49.9878ZM144.133 49.2843L141.18 49.8697L139.031 48.8269L141.876 48.2636L144.133 49.2843ZM141.344 48.0226L138.534 48.5834L136.707 47.7028L139.592 47.238L141.344 48.0226ZM139.048 46.9846L136.193 47.4446L134.539 46.6427L137.347 46.2148L139.048 46.9846ZM135.501 45.381L136.794 45.9639L134 46.3968L132.769 45.7966L135.501 45.381ZM132.184 45.8729L133.414 46.4755L131.344 46.7903L130.17 46.173L132.184 45.8729ZM128.14 46.4755L129.617 46.2566L130.793 46.8764L128.989 47.1519L128.177 47.2773L127.059 46.6378L128.14 46.4755ZM126.513 46.7214L127.633 47.3609L124.645 47.816L123.577 47.1617L126.513 46.7214ZM123.067 47.238L124.138 47.8971L121.487 48.3005L120.502 47.6217L123.067 47.238ZM120.015 47.6954L121 48.3743L118.784 48.7113L117.881 48.0127L120.015 47.6954ZM117.421 48.0816L118.327 48.7826L114.78 49.3237L113.899 48.6104L117.421 48.0816ZM111.76 48.9277L111.846 48.9154L113.471 48.6694L114.325 49.3901L112.646 49.6361L111.79 49.7664L108.292 50.3002L107.637 49.5303L111.76 48.9277ZM107.224 49.5943L107.881 50.3641L103.564 51.0233L102.988 50.2338L107.224 49.5943ZM102.614 50.2829L103.187 51.0799L99.5891 51.6284L99.1214 50.8044L102.614 50.2829ZM98.7621 50.856L99.2297 51.6825L95.1563 52.3047L94.7945 51.4488L98.7621 50.856ZM94.4475 51.5005L94.8117 52.3564L90.8737 52.9565L90.6276 52.0711L94.4475 51.5005ZM90.2879 52.1227L90.5341 53.0082L86.5714 53.6133L86.4533 52.6934L90.2879 52.1227ZM81.9196 53.3698L86.1038 52.745L86.2219 53.6649L81.895 54.3241L81.9196 53.3698ZM81.8975 54.6684L86.2834 54.0215L86.4705 55.485L81.8802 56.2229L81.8975 54.6684ZM81.863 56.55L86.505 55.7998L86.8938 58.835L81.8212 59.8557L81.863 56.55ZM81.8212 60.2025L86.948 59.1867L87.135 60.6477L81.7818 61.7152L81.8212 60.2025ZM81.7892 62.0546L87.1917 60.9798L87.391 62.5367L81.7572 63.7493L81.7892 62.0546ZM81.7523 64.0985L87.4353 62.8687L87.7233 65.1119L81.7104 66.4819L81.7523 64.0985ZM81.703 66.8361L87.7651 65.4562L88.1023 68.0708L81.6563 69.4629L81.703 66.8361ZM88.1442 68.4078L88.5552 71.6053L81.5898 73.2532L81.6513 69.8098L88.1442 68.4078ZM76.5984 54.1765L81.6021 53.4386L81.5849 54.393L76.4482 55.1776L76.5984 54.1765ZM76.3965 55.5194L81.5652 54.7275L81.5381 56.2672L76.1381 57.1403L76.3965 55.5194ZM76.0963 57.4871L81.5455 56.6066L81.4741 59.9246L75.5351 61.1052L76.0963 57.4871ZM75.4933 61.4545L81.479 60.264L81.4544 61.7718L75.257 63.0016L75.4933 61.4545ZM75.1905 63.368L81.4347 62.1235L81.4052 63.8231L74.9099 65.2201L75.1905 63.368ZM74.8558 65.5817L81.3978 64.1748L81.356 66.568L74.4644 68.1372L74.8558 65.5817ZM74.4128 68.4963L81.3511 66.9173L81.3043 69.5392L74.014 71.1158L74.4128 68.4963ZM73.9599 71.4847L81.2969 69.8983L81.2354 73.354L73.3938 75.2061L73.9599 71.4847ZM73.3396 75.5677L81.2305 73.6984L81.1739 76.8418L72.84 78.8636L73.3396 75.5677ZM72.7834 79.2276L81.1689 77.1984L81.0828 81.4215L72.0795 83.7951L72.7834 79.2276ZM72.045 84.1738L81.0976 81.788L81.009 86.7761L71.2279 89.5579L72.045 84.1738ZM71.1713 89.9244L81.004 87.1303L80.9007 92.9669L70.2138 96.221L71.1713 89.9244ZM70.1474 96.5727L80.881 93.3039L80.753 100.587L68.9389 104.549L70.1474 96.5727ZM80.3444 123.095L65.1018 129.736L67.216 115.819L80.5635 110.767L80.3444 123.095ZM67.2726 115.448L68.8774 104.935L80.7456 100.956L80.5905 110.415L67.2726 115.448ZM80.6865 122.945L80.9056 110.647L92.9658 106.084L94.3736 116.987L80.6865 122.945ZM94.6862 116.837L93.2907 105.963L104.349 101.782L107.081 111.431L94.6862 116.837ZM107.396 111.289L104.667 101.657L114.14 98.0731L117.807 106.746L107.396 111.289ZM118.12 106.615L114.458 97.9575L123.485 94.5386L127.916 102.345L118.12 106.615ZM128.211 102.208L123.801 94.4181L132.046 91.2969L137.096 98.3313L128.211 102.208ZM137.414 98.1911L132.388 91.1616L140.062 88.2592L145.499 94.6542L137.414 98.1911ZM145.814 94.5239L140.399 88.1289L154.153 82.9244L160.377 88.1658L145.814 94.5239ZM160.715 88.0207L154.512 82.7989L159.681 80.8312L165.996 85.7209L160.715 88.0207ZM166.344 85.5611L160.053 80.6886L164.975 78.8267L171.473 83.3228L166.344 85.5611ZM171.837 83.1629L165.361 78.6791L170.835 76.6081L177.481 80.6984L171.837 83.1629ZM177.867 80.5312L171.222 76.4581L175.691 74.7659L182.357 78.5659L177.867 80.5312ZM182.758 78.3962L176.112 74.6109L180.348 73.0072L187.033 76.5294L182.758 78.3962ZM187.434 76.3572L180.774 72.8474L184.678 71.3716L191.392 74.6306L187.434 76.3572ZM191.803 74.451L185.116 71.2043L189.189 69.6622L195.861 72.6801L191.803 74.451Z" fill="#EDEDF4"/>
<path d="M135.172 52.108V67.9134L118.265 71.7283L112.267 64.0986L111.738 48.8343L111.723 48.2956L126.99 45.5704L135.172 52.108Z" fill="#EDEDF4"/>
<path opacity="0.1" d="M135.172 52.2187V67.9134L118.445 71.6889L118.265 71.7283L112.267 64.0986L111.738 48.8343L117.992 54.5602L135.172 52.2187Z" fill="black"/>
<path opacity="0.1" d="M135.172 52.2679V67.9134L118.445 71.6889L117.992 54.5602L134.898 52.381L135.172 52.2679Z" fill="black"/>
<path d="M125.883 50.7134L125.051 49.2696L124.219 47.8282L123.385 49.2696L122.553 50.7134H123.973V57.3764H124.465V50.7134H125.883Z" fill="#A52A2A"/>
<path d="M130.958 64.5437L130.126 63.1L129.55 64.0986L125.248 60.0255L124.911 60.3821L129.297 64.5364L129.292 64.5437L128.46 65.9851H130.126H131.79L130.958 64.5437Z" fill="#A52A2A"/>
<path d="M132.937 56.8009L131.371 56.2278L131.632 57.7306L126.021 58.7317L126.107 59.2162L131.716 58.2152L131.942 59.5089L133.22 58.4415L134.5 57.374L132.937 56.8009Z" fill="#A52A2A"/>
<path opacity="0.1" d="M49.5171 55.4604C49.5409 55.4559 49.5653 55.4562 49.589 55.4613C49.6126 55.4664 49.6351 55.4761 49.6549 55.49L49.5171 55.4604Z" fill="black"/>
</svg>
