<svg width="227" height="172" viewBox="0 0 227 172" fill="none" xmlns="http://www.w3.org/2000/svg">
<g clip-path="url(#clip0)">
<path d="M121.497 116.603C121.497 116.603 126.318 149.126 154.755 159.967H39.5598C67.9963 149.126 72.8172 116.603 72.8172 116.603H121.497Z" fill="#E0E0E0"/>
<path d="M155.263 159.96H38.9807V166.829H155.263V159.96Z" fill="url(#paint0_linear)"/>
<path d="M154.755 159.96H39.5598V165.258H154.755V159.96Z" fill="#F5F5F5"/>
<path d="M192.233 0H2.53339C1.85357 0.00730486 1.20443 0.283927 0.728487 0.769136C0.252539 1.25435 -0.0113213 1.90849 -0.0051682 2.58796V122.96C-0.0109528 123.588 0.10701 124.211 0.341985 124.793C0.576959 125.375 0.924343 125.905 1.3643 126.353C1.80426 126.8 2.32817 127.157 2.90612 127.403C3.48408 127.648 4.10475 127.778 4.7327 127.783H190.036C190.664 127.778 191.284 127.648 191.862 127.403C192.44 127.157 192.964 126.8 193.404 126.353C193.844 125.905 194.191 125.375 194.426 124.793C194.661 124.211 194.779 123.588 194.774 122.96V2.58796C194.78 1.90809 194.516 1.2536 194.039 0.768329C193.563 0.283053 192.913 0.00669776 192.233 0Z" fill="url(#paint1_linear)"/>
<path d="M192.229 107.933H2.08398V5.27048C2.08459 4.94467 2.14943 4.62217 2.27481 4.32141C2.40019 4.02066 2.58365 3.74755 2.81469 3.5177C3.04573 3.28786 3.31983 3.10577 3.62132 2.98186C3.92282 2.85794 4.24578 2.79463 4.57177 2.79554H189.746C190.403 2.79493 191.034 3.05526 191.5 3.51934C191.965 3.98341 192.228 4.61326 192.229 5.27048V107.933Z" fill="#F5F5F5"/>
<path d="M187.602 125.276H6.71102C5.4869 125.276 4.31291 124.79 3.44732 123.925C2.58174 123.06 2.09546 121.886 2.09546 120.663V107.933H192.229V120.651C192.23 121.259 192.112 121.861 191.88 122.423C191.648 122.985 191.307 123.495 190.877 123.925C190.447 124.355 189.936 124.695 189.374 124.927C188.812 125.159 188.21 125.278 187.602 125.276Z" fill="white"/>
<path d="M183.782 15.8507H11.7144V96.1858H183.782V15.8507Z" fill="#A52A2A"/>
<path d="M183.782 11.3114H11.4834V18.3879H183.782V11.3114Z" fill="#E0E0E0"/>
<path d="M15.2313 17.0039C16.3784 17.0039 17.3083 16.0745 17.3083 14.928C17.3083 13.7816 16.3784 12.8521 15.2313 12.8521C14.0842 12.8521 13.1543 13.7816 13.1543 14.928C13.1543 16.0745 14.0842 17.0039 15.2313 17.0039Z" fill="#FF5252"/>
<path d="M20.0777 17.0039C21.2248 17.0039 22.1547 16.0745 22.1547 14.928C22.1547 13.7816 21.2248 12.8521 20.0777 12.8521C18.9306 12.8521 18.0007 13.7816 18.0007 14.928C18.0007 16.0745 18.9306 17.0039 20.0777 17.0039Z" fill="#FFFF00"/>
<path d="M24.9239 17.0039C26.071 17.0039 27.0009 16.0745 27.0009 14.928C27.0009 13.7816 26.071 12.8521 24.9239 12.8521C23.7768 12.8521 22.8469 13.7816 22.8469 14.928C22.8469 16.0745 23.7768 17.0039 24.9239 17.0039Z" fill="#69F0AE"/>
<path d="M95.542 24.8716L64.387 81.2024H126.697L95.542 24.8716Z" fill="url(#paint2_linear)"/>
<path d="M95.5419 29.2102L68.1462 79.0319H122.938L95.5419 29.2102Z" fill="white"/>
<path d="M95.542 77.1867C97.3901 77.1867 98.8882 75.6893 98.8882 73.8422C98.8882 71.995 97.3901 70.4977 95.542 70.4977C93.6939 70.4977 92.1957 71.995 92.1957 73.8422C92.1957 75.6893 93.6939 77.1867 95.542 77.1867Z" fill="url(#paint3_linear)"/>
<path d="M95.542 76.61C97.0715 76.61 98.3114 75.3708 98.3114 73.8421C98.3114 72.3135 97.0715 71.0743 95.542 71.0743C94.0126 71.0743 92.7727 72.3135 92.7727 73.8421C92.7727 75.3708 94.0126 76.61 95.542 76.61Z" fill="#A52A2A"/>
<path d="M96.4651 48.5853H94.6189V68.4217H96.4651V48.5853Z" fill="url(#paint4_linear)"/>
<path d="M96.119 48.7007H94.9651V68.0757H96.119V48.7007Z" fill="#A52A2A"/>
<path d="M224.558 68.3663L171.45 68.4404C170.175 68.4422 169.143 69.4763 169.145 70.7502L169.283 169.685C169.285 170.959 170.32 171.99 171.594 171.989L224.703 171.914C225.978 171.913 227.009 170.879 227.008 169.605L226.869 70.6696C226.868 69.3957 225.833 68.3645 224.558 68.3663Z" fill="url(#paint5_linear)"/>
<path d="M223.231 69.4383L172.781 69.5087C171.506 69.5105 170.474 70.5446 170.476 71.8185L170.607 165.73C170.609 167.004 171.644 168.035 172.918 168.033L223.368 167.963C224.643 167.961 225.675 166.927 225.673 165.653L225.542 71.7417C225.54 70.4678 224.505 69.4366 223.231 69.4383Z" fill="white"/>
<path d="M219.331 76.4096L176.7 76.4691L176.812 156.647L219.443 156.588L219.331 76.4096Z" fill="#A52A2A"/>
<path d="M198.141 165.791C200.019 165.788 201.539 164.265 201.536 162.388C201.533 160.512 200.009 158.993 198.132 158.996C196.254 158.998 194.735 160.521 194.737 162.398C194.74 164.274 196.264 165.793 198.141 165.791Z" fill="#F7EDED"/>
<path d="M191.428 73.6922C191.804 73.6922 192.109 73.3876 192.109 73.0118C192.109 72.636 191.804 72.3313 191.428 72.3313C191.052 72.3313 190.747 72.636 190.747 73.0118C190.747 73.3876 191.052 73.6922 191.428 73.6922Z" fill="#F7EDED"/>
<path d="M204.802 72.1813L194.957 72.195C194.766 72.1953 194.611 72.3504 194.612 72.5415L194.612 72.869C194.612 73.0601 194.768 73.2148 194.959 73.2145L204.804 73.2008C204.995 73.2005 205.15 73.0454 205.149 72.8543L205.149 72.5268C205.149 72.3357 204.993 72.181 204.802 72.1813Z" fill="#F7EDED"/>
<path d="M198.07 92.4584L182.958 119.782H213.181L198.07 92.4584Z" fill="url(#paint6_linear)"/>
<path d="M198.07 94.562L184.781 118.728H211.358L198.07 94.562Z" fill="white"/>
<path d="M198.07 117.833C198.966 117.833 199.692 117.107 199.692 116.211C199.692 115.316 198.966 114.59 198.07 114.59C197.174 114.59 196.447 115.316 196.447 116.211C196.447 117.107 197.174 117.833 198.07 117.833Z" fill="url(#paint7_linear)"/>
<path d="M198.07 117.554C198.811 117.554 199.413 116.953 199.413 116.211C199.413 115.47 198.811 114.869 198.07 114.869C197.328 114.869 196.727 115.47 196.727 116.211C196.727 116.953 197.328 117.554 198.07 117.554Z" fill="#A52A2A"/>
<path d="M198.517 103.961H197.622V113.582H198.517V103.961Z" fill="url(#paint8_linear)"/>
<path d="M198.351 104.017H197.79V113.413H198.351V104.017Z" fill="#A52A2A"/>
</g>
<defs>
<linearGradient id="paint0_linear" x1="97.1229" y1="166.829" x2="97.1229" y2="159.96" gradientUnits="userSpaceOnUse">
<stop stop-color="#808080" stop-opacity="0.25"/>
<stop offset="0.54" stop-color="#808080" stop-opacity="0.12"/>
<stop offset="1" stop-color="#808080" stop-opacity="0.1"/>
</linearGradient>
<linearGradient id="paint1_linear" x1="103270" y1="80650.4" x2="103270" y2="9858.48" gradientUnits="userSpaceOnUse">
<stop stop-color="#808080" stop-opacity="0.25"/>
<stop offset="0.54" stop-color="#808080" stop-opacity="0.12"/>
<stop offset="1" stop-color="#808080" stop-opacity="0.1"/>
</linearGradient>
<linearGradient id="paint2_linear" x1="95.542" y1="81.2024" x2="95.542" y2="24.8716" gradientUnits="userSpaceOnUse">
<stop stop-opacity="0.12"/>
<stop offset="0.55" stop-opacity="0.09"/>
<stop offset="1" stop-opacity="0.02"/>
</linearGradient>
<linearGradient id="paint3_linear" x1="2862.92" y1="2308.91" x2="2862.92" y2="2114.92" gradientUnits="userSpaceOnUse">
<stop stop-color="#808080" stop-opacity="0.25"/>
<stop offset="0.54" stop-color="#808080" stop-opacity="0.12"/>
<stop offset="1" stop-color="#808080" stop-opacity="0.1"/>
</linearGradient>
<linearGradient id="paint4_linear" x1="858.955" y1="5932.85" x2="858.955" y2="4226.92" gradientUnits="userSpaceOnUse">
<stop stop-color="#808080" stop-opacity="0.25"/>
<stop offset="0.54" stop-color="#808080" stop-opacity="0.12"/>
<stop offset="1" stop-color="#808080" stop-opacity="0.1"/>
</linearGradient>
<linearGradient id="paint5_linear" x1="198.151" y1="172.665" x2="198.006" y2="68.7349" gradientUnits="userSpaceOnUse">
<stop offset="0.01" stop-color="#808080" stop-opacity="0.25"/>
<stop offset="0.54" stop-color="#808080" stop-opacity="0.12"/>
<stop offset="1" stop-color="#808080" stop-opacity="0.1"/>
</linearGradient>
<linearGradient id="paint6_linear" x1="26122.2" y1="14281.8" x2="26122.2" y2="11045.1" gradientUnits="userSpaceOnUse">
<stop stop-opacity="0.12"/>
<stop offset="0.55" stop-opacity="0.09"/>
<stop offset="1" stop-opacity="0.02"/>
</linearGradient>
<linearGradient id="paint7_linear" x1="2981.31" y1="1771.31" x2="2981.31" y2="1725.72" gradientUnits="userSpaceOnUse">
<stop stop-color="#808080" stop-opacity="0.25"/>
<stop offset="0.54" stop-color="#808080" stop-opacity="0.12"/>
<stop offset="1" stop-color="#808080" stop-opacity="0.1"/>
</linearGradient>
<linearGradient id="paint8_linear" x1="966.144" y1="4841.46" x2="966.144" y2="4440.18" gradientUnits="userSpaceOnUse">
<stop stop-color="#808080" stop-opacity="0.25"/>
<stop offset="0.54" stop-color="#808080" stop-opacity="0.12"/>
<stop offset="1" stop-color="#808080" stop-opacity="0.1"/>
</linearGradient>
<clipPath id="clip0">
<rect width="227" height="172" fill="white"/>
</clipPath>
</defs>
</svg>
