<svg width="220" height="200" viewBox="0 0 220 200" fill="none" xmlns="http://www.w3.org/2000/svg">
<g opacity="0.5">
<path opacity="0.5" d="M160.55 13.8365H61.5756V150.44H160.55V13.8365Z" fill="url(#paint0_linear)"/>
</g>
<path d="M159.291 14.8428H62.8348V148.428H159.291V14.8428Z" fill="white"/>
<path d="M135.114 11.3157H87.2635V22.8931H135.114V11.3157Z" fill="url(#paint1_linear)"/>
<path d="M111.189 0C107.494 0 104.5 3.06415 104.5 6.84277C104.5 10.6214 107.494 13.6855 111.189 13.6855C114.883 13.6855 117.878 10.6214 117.878 6.84277C117.878 3.06415 114.883 0 111.189 0ZM111.189 10.7899C110.403 10.8104 109.629 10.5965 108.966 10.1754C108.303 9.75438 107.78 9.14533 107.465 8.42612C107.15 7.70692 107.057 6.91024 107.198 6.13789C107.338 5.36555 107.706 4.65262 108.255 4.09024C108.803 3.52785 109.507 3.14154 110.276 2.98069C111.045 2.81984 111.845 2.89175 112.573 3.18723C113.301 3.48271 113.924 3.98834 114.363 4.6395C114.802 5.29065 115.037 6.05775 115.037 6.84277C115.049 7.87548 114.651 8.87087 113.929 9.61076C113.208 10.3507 112.222 10.7747 111.189 10.7899Z" fill="url(#paint2_linear)"/>
<path d="M134.61 11.3208H87.7673V22.3899H134.61V11.3208Z" fill="#9D8960"/>
<path d="M111.189 0.503143C109.894 0.503143 108.628 0.886759 107.551 1.60548C106.474 2.3242 105.635 3.34575 105.139 4.54094C104.644 5.73613 104.514 7.05128 104.767 8.32009C105.019 9.58889 105.643 10.7544 106.559 11.6691C107.474 12.5839 108.641 13.2068 109.911 13.4592C111.181 13.7116 112.498 13.5821 113.694 13.087C114.891 12.5919 115.914 11.7536 116.633 10.6779C117.353 9.6023 117.737 8.33769 117.737 7.04402C117.737 5.30927 117.047 3.64558 115.819 2.41892C114.591 1.19227 112.925 0.503143 111.189 0.503143ZM111.189 10.8176C110.442 10.8176 109.711 10.5963 109.09 10.1816C108.469 9.767 107.985 9.17764 107.699 8.48811C107.413 7.79858 107.338 7.03984 107.484 6.30783C107.629 5.57583 107.989 4.90344 108.517 4.3757C109.046 3.84795 109.719 3.48855 110.452 3.34295C111.184 3.19734 111.944 3.27207 112.634 3.55769C113.325 3.8433 113.915 4.32697 114.33 4.94753C114.745 5.56809 114.966 6.29768 114.966 7.04402C114.966 8.04484 114.568 9.00467 113.86 9.71235C113.151 10.42 112.191 10.8176 111.189 10.8176Z" fill="#9D8960"/>
<path d="M88.0192 36.478H67.368V57.1069H88.0192V36.478Z" fill="url(#paint3_linear)"/>
<path d="M88.0896 77.3585H67.4385V97.9874H88.0896V77.3585Z" fill="url(#paint4_linear)"/>
<path d="M88.1602 117.736H67.509V138.365H88.1602V117.736Z" fill="url(#paint5_linear)"/>
<path d="M87.2636 37.2327H68.1235V56.3522H87.2636V37.2327Z" fill="#69F0AE"/>
<path d="M87.2636 77.7358H68.1235V96.8553H87.2636V77.7358Z" fill="#9D8960"/>
<path d="M87.2636 118.239H68.1235V137.358H87.2636V118.239Z" fill="#9D8960"/>
<path d="M126.09 43.1346H99.8557V44.9635H126.09V43.1346Z" fill="#E0E0E0"/>
<path d="M143.173 45.8792H99.8557V47.7082H143.173V45.8792Z" fill="#E0E0E0"/>
<path d="M140.123 48.6214H99.8557V50.4503H140.123V48.6214Z" fill="#E0E0E0"/>
<path d="M126.09 83.6377H99.8557V85.4667H126.09V83.6377Z" fill="#E0E0E0"/>
<path d="M143.173 86.3824H99.8557V88.2113H143.173V86.3824Z" fill="#E0E0E0"/>
<path d="M140.123 89.1245H99.8557V90.9535H140.123V89.1245Z" fill="#E0E0E0"/>
<path d="M126.09 124.141H99.8557V125.97H126.09V124.141Z" fill="#E0E0E0"/>
<path d="M143.173 126.886H99.8557V128.714H143.173V126.886Z" fill="#E0E0E0"/>
<path d="M140.123 129.628H99.8557V131.457H140.123V129.628Z" fill="#E0E0E0"/>
<path d="M73.3492 45.6528L76.8247 48.8377L81.7482 41.605L83.4859 43.0516L76.8247 51.7308L71.9011 46.234L73.3492 45.6528Z" fill="url(#paint6_linear)"/>
<path d="M73.916 45.7862L76.9381 48.5535L81.2194 42.2642L82.7304 43.522L76.9381 51.0692L72.6567 46.2893L73.916 45.7862Z" fill="white"/>
<path d="M73.916 86.5409L76.9381 89.3082L81.2194 83.0189L82.7304 84.2767L76.9381 91.8239L72.6567 87.044L73.916 86.5409Z" fill="white"/>
<path d="M73.916 127.296L76.9381 130.063L81.2194 123.774L82.7304 125.031L76.9381 132.579L72.6567 127.799L73.916 127.296Z" fill="white"/>
<g opacity="0.5">
<path opacity="0.5" d="M163.95 88.3019H165.461" stroke="#69F0AE" stroke-width="5" stroke-miterlimit="10"/>
<path opacity="0.5" d="M168.367 88.3019H201.784" stroke="#69F0AE" stroke-width="5" stroke-miterlimit="10" stroke-dasharray="11.54 11.54"/>
<path opacity="0.5" d="M203.237 88.3019H204.748V86.7924" stroke="#69F0AE" stroke-width="5" stroke-miterlimit="10"/>
<path opacity="0.5" d="M204.748 83.9119V56.5358" stroke="#69F0AE" stroke-width="5" stroke-miterlimit="10" stroke-dasharray="11.45 11.45"/>
<path opacity="0.5" d="M204.748 55.0943V53.5849" stroke="#69F0AE" stroke-width="5" stroke-miterlimit="10"/>
</g>
<path opacity="0.5" d="M58.3017 45.912H24.5547V77.6101" stroke="#69F0AE" stroke-width="5" stroke-miterlimit="10" stroke-dasharray="12 12"/>
<path opacity="0.5" d="M77.6936 153.836V171.95H128.062" stroke="#69F0AE" stroke-width="5" stroke-miterlimit="10" stroke-dasharray="12 12"/>
<g opacity="0.5">
<path opacity="0.5" d="M220 26.9409L200.593 10.566L181.488 26.9057L181.317 26.8101V26.9409H181.186L181.317 27.0138V27.0717V48.2918V48.5535H219.869L219.635 48.4226H220V26.9409Z" fill="url(#paint7_linear)"/>
</g>
<path d="M219.229 47.673H182.208V27.044L200.593 11.3208L219.229 27.044V47.673Z" fill="white"/>
<path d="M181.957 27.044L200.341 37.3585L218.977 27.044" fill="#E0E0E0"/>
<g opacity="0.5">
<path opacity="0.5" d="M200.724 37.0994L189.386 44.2767V17.3585H211.8V31.0491L200.724 37.0994Z" fill="url(#paint8_linear)"/>
</g>
<path d="M200.719 37.2327L189.89 44.2767V17.8616H211.296V31.2956L200.719 37.2327Z" fill="#FAFAFA"/>
<path opacity="0.05" d="M182.083 47.5472H219.103L182.083 26.9182V47.5472Z" fill="black"/>
<path d="M182.083 47.7987H219.103L182.083 27.1698V47.7987Z" fill="#F5F5F5"/>
<path d="M208.274 21.8868H192.66V22.8931H208.274V21.8868Z" fill="white"/>
<path d="M208.274 23.8994H192.66V24.9057H208.274V23.8994Z" fill="white"/>
<path d="M208.274 25.9119H192.66V26.9182H208.274V25.9119Z" fill="#9D8960"/>
<path d="M208.274 27.9245H192.66V28.9308H208.274V27.9245Z" fill="white"/>
<path d="M208.274 29.9371H192.66V30.9434H208.274V29.9371Z" fill="#9D8960"/>
<path opacity="0.05" d="M211.296 31.4465V30.9434L200.281 37.0591L200.58 37.2251L211.296 31.4465Z" fill="black"/>
<g opacity="0.5">
<path opacity="0.5" d="M180.06 155.975H136.252V200H180.06V155.975Z" fill="url(#paint9_linear)"/>
</g>
<path d="M179.06 156.981H137.254V198.994H179.06V156.981Z" fill="#F5F5F5"/>
<path d="M176.794 158.239H140.025V190.44H176.794V158.239Z" fill="white"/>
<path d="M176.794 180.126C166.632 180.126 158.409 177.537 158.409 174.34C148.247 174.34 140.025 176.591 140.025 179.371V191.447H176.794V180.126Z" fill="#E0E0E0"/>
<path d="M170.75 169.057C172.836 169.057 174.527 167.367 174.527 165.283C174.527 163.199 172.836 161.509 170.75 161.509C168.663 161.509 166.972 163.199 166.972 165.283C166.972 167.367 168.663 169.057 170.75 169.057Z" fill="#9D8960"/>
<g opacity="0.5">
<path opacity="0.5" d="M51.376 80.4402H0V116.792H51.376V80.4402Z" fill="url(#paint10_linear)"/>
</g>
<path d="M49.865 81.5094H1.51111V115.723H49.865V81.5094Z" fill="white"/>
<path d="M26.6828 90.1484C26.2786 90.1493 25.8748 90.1761 25.474 90.2289L26.6828 99.4566L17.3873 98.8378C17.3747 99.0415 17.3646 99.2478 17.3646 99.4566C17.3646 101.298 17.9111 103.097 18.935 104.628C19.9589 106.159 21.4142 107.352 23.1169 108.056C24.8196 108.761 26.6932 108.945 28.5007 108.586C30.3083 108.227 31.9686 107.34 33.2718 106.038C34.5749 104.737 35.4624 103.078 35.822 101.273C36.1815 99.4669 35.997 97.5954 35.2917 95.8945C34.5864 94.1937 33.3921 92.7399 31.8597 91.7171C30.3274 90.6944 28.5258 90.1484 26.6828 90.1484Z" fill="#E0E0E0"/>
<path d="M23.4591 88.4679C21.3226 88.7476 19.3492 89.7583 17.8748 91.3279C16.4004 92.8975 15.5161 94.9291 15.3724 97.0767L24.668 97.6956L23.4591 88.4679Z" fill="#9D8960"/>
<defs>
<linearGradient id="paint0_linear" x1="111.063" y1="150.44" x2="111.063" y2="13.8365" gradientUnits="userSpaceOnUse">
<stop stop-color="#808080" stop-opacity="0.25"/>
<stop offset="0.54" stop-color="#808080" stop-opacity="0.12"/>
<stop offset="1" stop-color="#808080" stop-opacity="0.1"/>
</linearGradient>
<linearGradient id="paint1_linear" x1="21213.1" y1="1064.86" x2="21213.1" y2="532.066" gradientUnits="userSpaceOnUse">
<stop stop-color="#808080" stop-opacity="0.25"/>
<stop offset="0.54" stop-color="#808080" stop-opacity="0.12"/>
<stop offset="1" stop-color="#808080" stop-opacity="0.1"/>
</linearGradient>
<linearGradient id="paint2_linear" x1="8194.39" y1="1462.85" x2="8194.39" y2="718.491" gradientUnits="userSpaceOnUse">
<stop stop-color="#808080" stop-opacity="0.25"/>
<stop offset="0.54" stop-color="#808080" stop-opacity="0.12"/>
<stop offset="1" stop-color="#808080" stop-opacity="0.1"/>
</linearGradient>
<linearGradient id="paint3_linear" x1="6438.24" y1="4719.25" x2="6438.24" y2="3027.67" gradientUnits="userSpaceOnUse">
<stop stop-color="#808080" stop-opacity="0.25"/>
<stop offset="0.54" stop-color="#808080" stop-opacity="0.12"/>
<stop offset="1" stop-color="#808080" stop-opacity="0.1"/>
</linearGradient>
<linearGradient id="paint4_linear" x1="6444.09" y1="8112.33" x2="6444.09" y2="6420.75" gradientUnits="userSpaceOnUse">
<stop stop-color="#808080" stop-opacity="0.25"/>
<stop offset="0.54" stop-color="#808080" stop-opacity="0.12"/>
<stop offset="1" stop-color="#808080" stop-opacity="0.1"/>
</linearGradient>
<linearGradient id="paint5_linear" x1="6449.95" y1="11463.6" x2="6449.95" y2="9772.07" gradientUnits="userSpaceOnUse">
<stop stop-color="#808080" stop-opacity="0.25"/>
<stop offset="0.54" stop-color="#808080" stop-opacity="0.12"/>
<stop offset="1" stop-color="#808080" stop-opacity="0.1"/>
</linearGradient>
<linearGradient id="paint6_linear" x1="3645.81" y1="2123.77" x2="3645.81" y2="1716.11" gradientUnits="userSpaceOnUse">
<stop stop-color="#808080" stop-opacity="0.25"/>
<stop offset="0.54" stop-color="#808080" stop-opacity="0.12"/>
<stop offset="1" stop-color="#808080" stop-opacity="0.1"/>
</linearGradient>
<linearGradient id="paint7_linear" x1="31096.6" y1="7342.14" x2="31096.6" y2="1606.04" gradientUnits="userSpaceOnUse">
<stop stop-color="#808080" stop-opacity="0.25"/>
<stop offset="0.54" stop-color="#808080" stop-opacity="0.12"/>
<stop offset="1" stop-color="#808080" stop-opacity="0.1"/>
</linearGradient>
<linearGradient id="paint8_linear" x1="18042.2" y1="4754.97" x2="18042.2" y2="1874.72" gradientUnits="userSpaceOnUse">
<stop stop-color="#808080" stop-opacity="0.25"/>
<stop offset="0.54" stop-color="#808080" stop-opacity="0.12"/>
<stop offset="1" stop-color="#808080" stop-opacity="0.1"/>
</linearGradient>
<linearGradient id="paint9_linear" x1="27647.7" y1="35156" x2="27647.7" y2="27451.6" gradientUnits="userSpaceOnUse">
<stop stop-color="#808080" stop-opacity="0.25"/>
<stop offset="0.54" stop-color="#808080" stop-opacity="0.12"/>
<stop offset="1" stop-color="#808080" stop-opacity="0.1"/>
</linearGradient>
<linearGradient id="paint10_linear" x1="5240.35" y1="16957" x2="5240.35" y2="11704.1" gradientUnits="userSpaceOnUse">
<stop stop-color="#808080" stop-opacity="0.25"/>
<stop offset="0.54" stop-color="#808080" stop-opacity="0.12"/>
<stop offset="1" stop-color="#808080" stop-opacity="0.1"/>
</linearGradient>
</defs>
</svg>
