<svg width="281" height="269" viewBox="0 0 281 269" fill="none" xmlns="http://www.w3.org/2000/svg">
<g clip-path="url(#clip0)">
<path d="M75.2773 269L74.8757 268.909C79.3532 248.948 90.6054 230.821 106.56 217.869C118.622 208.091 132.967 201.552 148.246 198.866C163.525 196.181 179.234 197.438 193.895 202.519C208.555 207.6 221.685 216.338 232.047 227.91C242.408 239.482 249.662 253.508 253.124 268.666L252.723 268.757C243.245 227.038 206.772 197.901 164.028 197.901C121.843 197.901 84.5182 227.802 75.2773 269Z" fill="#A07F3D"/>
<path d="M132.848 151.525C139.022 151.525 144.026 146.508 144.026 140.319C144.026 134.13 139.022 129.113 132.848 129.113C126.674 129.113 121.67 134.13 121.67 140.319C121.67 146.508 126.674 151.525 132.848 151.525Z" fill="#FF6584"/>
<path d="M84.689 266.454C85.0377 267.746 86.2318 268.546 86.2318 268.546C86.2318 268.546 86.8606 267.252 86.512 265.96C86.1634 264.668 84.9693 263.868 84.9693 263.868C84.9693 263.868 84.3404 265.162 84.689 266.454Z" fill="#A07F3D"/>
<path d="M85.2016 266.177C86.1582 267.11 86.275 268.545 86.275 268.545C86.275 268.545 84.8409 268.467 83.8843 267.533C82.9276 266.6 82.8108 265.165 82.8108 265.165C82.8108 265.165 84.2449 265.243 85.2016 266.177Z" fill="#A52A2A"/>
<path d="M111.238 266.454C111.586 267.746 112.781 268.546 112.781 268.546C112.781 268.546 113.409 267.252 113.061 265.96C112.712 264.668 111.518 263.868 111.518 263.868C111.518 263.868 110.889 265.162 111.238 266.454Z" fill="#A07F3D"/>
<path d="M111.75 266.177C112.707 267.11 112.824 268.545 112.824 268.545C112.824 268.545 111.389 268.467 110.433 267.533C109.476 266.6 109.359 265.165 109.359 265.165C109.359 265.165 110.794 265.243 111.75 266.177Z" fill="#A52A2A"/>
<path d="M116.502 163.547L112.299 160.176L135.838 139.107H195.525V157.648L156.854 183.773L116.502 163.547Z" fill="#A07F3D"/>
<path d="M206.407 150.925V139.528H198.483V142.319L195.525 139.107L176.19 160.176L168.624 165.232L156.892 251.155L174.585 268.891H215.701V161.019L206.407 150.925Z" fill="#CCCCCC"/>
<path d="M176.19 160.176H112.299V268.891H176.19V160.176Z" fill="#F2F2F2"/>
<path d="M148.868 242.344H137.099V268.891H148.868V242.344Z" fill="#CCCCCC"/>
<path d="M124.488 249.929V245.715H119.445V249.929H124.068H124.488Z" fill="#A07F3D"/>
<path d="M124.068 253.3H119.445V257.514H124.488V253.3H124.068Z" fill="#A07F3D"/>
<path d="M132.895 245.716H127.851V249.929H132.895V245.716Z" fill="#A07F3D"/>
<path d="M132.895 253.3H127.851V257.514H132.895V253.3Z" fill="#A07F3D"/>
<path d="M158.956 249.929V245.715H153.912V249.929H158.536H158.956Z" fill="#A07F3D"/>
<path d="M158.536 253.3H153.912V257.514H158.956V253.3H158.536Z" fill="#A07F3D"/>
<path d="M167.363 245.716H162.319V249.929H167.363V245.716Z" fill="#A07F3D"/>
<path d="M167.363 253.3H162.319V257.514H167.363V253.3Z" fill="#A07F3D"/>
<path d="M194.264 165.654V161.44H189.22V165.654H193.844H194.264Z" fill="#A07F3D"/>
<path d="M193.844 169.025H189.22V173.238H194.264V169.025H193.844Z" fill="#A07F3D"/>
<path d="M202.671 161.44H197.627V165.654H202.671V161.44Z" fill="#A07F3D"/>
<path d="M202.671 169.025H197.627V173.239H202.671V169.025Z" fill="#A07F3D"/>
<path d="M194.264 189.251V185.037H189.22V189.251H193.844H194.264Z" fill="#A07F3D"/>
<path d="M193.844 192.622H189.22V196.836H194.264V192.622H193.844Z" fill="#A07F3D"/>
<path d="M202.671 185.037H197.627V189.251H202.671V185.037Z" fill="#A07F3D"/>
<path d="M202.671 192.622H197.627V196.836H202.671V192.622Z" fill="#A07F3D"/>
<path d="M194.264 212.848V208.634H189.22V212.848H193.844H194.264Z" fill="#A07F3D"/>
<path d="M193.844 216.219H189.22V220.433H194.264V216.219H193.844Z" fill="#A07F3D"/>
<path d="M202.671 208.634H197.627V212.848H202.671V208.634Z" fill="#A07F3D"/>
<path d="M202.671 216.219H197.627V220.433H202.671V216.219Z" fill="#A07F3D"/>
<path d="M194.264 236.445V232.231H189.22V236.445H193.844H194.264Z" fill="#A07F3D"/>
<path d="M193.844 239.816H189.22V244.03H194.264V239.816H193.844Z" fill="#A07F3D"/>
<path d="M202.671 232.231H197.627V236.445H202.671V232.231Z" fill="#A07F3D"/>
<path d="M202.671 239.816H197.627V244.03H202.671V239.816Z" fill="#A07F3D"/>
<path d="M168.203 165.654H119.445V175.767H168.203V165.654Z" fill="#A07F3D"/>
<path d="M168.203 185.88H119.445V195.993H168.203V185.88Z" fill="#A07F3D"/>
<path d="M168.203 206.106H119.445V216.219H168.203V206.106Z" fill="#A07F3D"/>
<path d="M168.203 226.332H119.445V236.445H168.203V226.332Z" fill="#A07F3D"/>
<path d="M281 268.467H47V268.88H281V268.467Z" fill="#A07F3D"/>
<path d="M87.3953 220.826H86.1863V268.702H87.3953V220.826Z" fill="#A07F3D"/>
<path d="M98.5536 226.927C98.6305 243.668 86.8814 257.294 86.8814 257.294C86.8814 257.294 75.0075 243.777 74.9306 227.036C74.8536 210.295 86.6027 196.669 86.6027 196.669C86.6027 196.669 98.4766 210.186 98.5536 226.927Z" fill="#A52A2A"/>
<path opacity="0.1" d="M98.5536 226.927C98.6305 243.668 86.8814 257.294 86.8814 257.294C86.8814 257.294 75.0075 243.777 74.9306 227.036C74.8536 210.295 86.6027 196.669 86.6027 196.669C86.6027 196.669 98.4766 210.186 98.5536 226.927Z" fill="black"/>
<path d="M71.6776 220.826H70.4685V268.702H71.6776V220.826Z" fill="#A07F3D"/>
<path d="M82.8358 226.927C82.9128 243.668 71.1636 257.294 71.1636 257.294C71.1636 257.294 59.2897 243.777 59.2128 227.036C59.1358 210.295 70.8849 196.669 70.8849 196.669C70.8849 196.669 82.7588 210.186 82.8358 226.927Z" fill="#A52A2A"/>
<path d="M241.6 160.108C232.076 160.152 224.323 160.293 224.323 160.293C224.323 160.293 233.538 148.057 241.565 152.591C249.592 157.124 258.813 160.134 258.813 160.134C258.813 160.134 251.124 160.064 241.6 160.108Z" fill="#F2F2F2"/>
<path d="M82.924 183.628C73.4001 183.672 65.6479 183.813 65.6479 183.813C65.6479 183.813 74.8626 171.577 82.8895 176.111C90.9164 180.644 100.137 183.654 100.137 183.654C100.137 183.654 92.448 183.584 82.924 183.628Z" fill="#F2F2F2"/>
<path d="M117.499 134.525C107.975 134.569 100.223 134.71 100.223 134.71C100.223 134.71 109.438 122.474 117.465 127.007C125.492 131.541 134.712 134.551 134.712 134.551C134.712 134.551 127.023 134.481 117.499 134.525Z" fill="#F2F2F2"/>
<path d="M261.224 220.826H260.015V268.702H261.224V220.826Z" fill="#A07F3D"/>
<path d="M272.382 226.927C272.459 243.668 260.71 257.294 260.71 257.294C260.71 257.294 248.836 243.777 248.759 227.036C248.682 210.295 260.431 196.669 260.431 196.669C260.431 196.669 272.305 210.186 272.382 226.927Z" fill="#A52A2A"/>
<path d="M216.72 238.985H228.922V236.032H235.654V238.985H248.277V252.06H235.654V268.511H228.922V252.06H216.72L210.409 244.89L216.72 238.985Z" fill="#A07F3D"/>
</g>
<path d="M125.098 97.0235H9.75969C8.734 97.0235 7.75033 96.6164 7.02505 95.8916C6.29978 95.1669 5.89233 94.1839 5.89233 93.159C47.7025 88.3034 88.7269 88.3034 128.965 93.159C128.965 93.6665 128.865 94.169 128.671 94.6379C128.477 95.1067 128.192 95.5328 127.833 95.8916C127.474 96.2505 127.047 96.5351 126.578 96.7294C126.109 96.9236 125.606 97.0235 125.098 97.0235Z" fill="#2F2E41"/>
<path d="M128.965 93.3863L5.89233 93.159L20.1561 69.176L20.2243 69.0624V16.2067C20.2243 15.5651 20.3507 14.9298 20.5964 14.3371C20.842 13.7444 21.2021 13.2058 21.6561 12.7522C22.1101 12.2985 22.649 11.9387 23.2422 11.6932C23.8354 11.4477 24.4711 11.3214 25.1131 11.3214H109.062C109.704 11.3214 110.34 11.4477 110.933 11.6932C111.526 11.9387 112.065 12.2985 112.519 12.7522C112.973 13.2058 113.333 13.7444 113.579 14.3371C113.825 14.9298 113.951 15.5651 113.951 16.2067V69.4261L128.965 93.3863Z" fill="#A07F3D"/>
<path d="M25.0016 14.7313C24.5794 14.7318 24.1747 14.8996 23.8761 15.1979C23.5776 15.4963 23.4097 15.9007 23.4092 16.3226V64.5159C23.4097 64.9377 23.5776 65.3422 23.8761 65.6405C24.1747 65.9388 24.5794 66.1066 25.0016 66.1071H109.856C110.278 66.1066 110.683 65.9388 110.982 65.6405C111.28 65.3422 111.448 64.9377 111.449 64.5159V16.3226C111.448 15.9007 111.28 15.4963 110.982 15.198C110.683 14.8996 110.278 14.7318 109.856 14.7313H25.0016Z" fill="white"/>
<path d="M25.3572 72.4723C25.2267 72.4725 25.099 72.51 24.9892 72.5803C24.8793 72.6506 24.7919 72.7509 24.7371 72.8692L20.342 82.4169C20.2942 82.5208 20.2733 82.6351 20.2812 82.7492C20.2891 82.8633 20.3256 82.9735 20.3873 83.0699C20.4491 83.1662 20.5341 83.2454 20.6345 83.3003C20.7349 83.3552 20.8475 83.3839 20.962 83.3839H113.389C113.505 83.3839 113.619 83.3542 113.721 83.2976C113.823 83.241 113.908 83.1594 113.969 83.0605C114.03 82.9616 114.065 82.8487 114.07 82.7326C114.076 82.6164 114.051 82.5009 113.999 82.3969L109.222 72.8492C109.165 72.7357 109.078 72.6402 108.97 72.5736C108.862 72.507 108.738 72.4719 108.611 72.4723H25.3572Z" fill="#2F2E41"/>
<path d="M67.0877 13.9357C67.6531 13.9357 68.1114 13.4777 68.1114 12.9127C68.1114 12.3478 67.6531 11.8898 67.0877 11.8898C66.5223 11.8898 66.064 12.3478 66.064 12.9127C66.064 13.4777 66.5223 13.9357 67.0877 13.9357Z" fill="white"/>
<path d="M58.0029 85.2025C57.8529 85.2027 57.7071 85.2522 57.588 85.3434C57.4689 85.4346 57.3832 85.5624 57.344 85.7072L56.2415 89.799C56.2143 89.9001 56.2107 90.0061 56.231 90.1088C56.2513 90.2115 56.295 90.3081 56.3587 90.3912C56.4225 90.4743 56.5045 90.5416 56.5984 90.588C56.6923 90.6343 56.7957 90.6584 56.9005 90.6584H77.8669C77.9757 90.6584 78.0829 90.6324 78.1796 90.5826C78.2763 90.5327 78.3597 90.4605 78.4228 90.3719C78.4859 90.2834 78.5269 90.181 78.5423 90.0734C78.5578 89.9658 78.5473 89.856 78.5116 89.7533L77.0943 85.6614C77.0478 85.5275 76.9607 85.4113 76.8451 85.3291C76.7295 85.2468 76.5912 85.2026 76.4493 85.2025H58.0029Z" fill="#2F2E41"/>
<path d="M113.951 68.2668V69.1759H20.156L20.2265 69.0624V68.2668H113.951Z" fill="#2F2E41"/>
<path d="M32.6394 66.0584L32.4832 66.0232C34.2251 58.2807 38.6026 51.2498 44.8095 46.2256C49.5021 42.4331 55.0832 39.8966 61.0273 38.8551C66.9714 37.8135 73.0829 38.3011 78.7864 40.272C84.4899 42.2428 89.5978 45.6321 93.629 50.1206C97.6602 54.6091 100.482 60.0493 101.829 65.9287L101.673 65.9642C97.9857 49.7824 83.7963 38.4808 67.1669 38.4808C50.7554 38.4808 36.2345 50.0788 32.6394 66.0584Z" fill="#A07F3D"/>
<path d="M36.1706 65.2424C36.2957 65.7463 36.7244 66.0584 36.7244 66.0584C36.7244 66.0584 36.9501 65.5535 36.825 65.0496C36.6998 64.5457 36.2712 64.2336 36.2712 64.2336C36.2712 64.2336 36.0455 64.7385 36.1706 65.2424Z" fill="#A07F3D"/>
<path d="M36.4106 65.0356C36.8137 65.4387 36.863 66.0584 36.863 66.0584C36.863 66.0584 36.2586 66.0245 35.8555 65.6214C35.4523 65.2182 35.4031 64.5985 35.4031 64.5985C35.4031 64.5985 36.0075 64.6324 36.4106 65.0356Z" fill="#A52A2A"/>
<path d="M46.7551 65.2424C46.8802 65.7463 47.3088 66.0584 47.3088 66.0584C47.3088 66.0584 47.5346 65.5535 47.4094 65.0496C47.2843 64.5457 46.8557 64.2336 46.8557 64.2336C46.8557 64.2336 46.6299 64.7385 46.7551 65.2424Z" fill="#A07F3D"/>
<path d="M46.743 65.0356C47.0453 65.4387 47.0822 66.0584 47.0822 66.0584C47.0822 66.0584 46.629 66.0245 46.3266 65.6214C46.0242 65.2182 45.9873 64.5985 45.9873 64.5985C45.9873 64.5985 46.4406 64.6324 46.743 65.0356Z" fill="#A52A2A"/>
<path d="M83.5962 20.2798V15.8568H80.4977V16.94L79.3413 15.6934L71.7814 23.8695L68.8232 25.8318L64.2363 59.1757L71.1538 66.0584H87.23V24.1966L83.5962 20.2798Z" fill="#CCCCCC"/>
<path d="M71.9008 23.7226H47.0823V66.0584H71.9008V23.7226Z" fill="#F2F2F2"/>
<path d="M61.3165 55.8394H56.5718V66.0584H61.3165V55.8394Z" fill="#CCCCCC"/>
<path d="M51.8271 58.7591V56.9343H49.6372V58.7591H51.6446H51.8271Z" fill="#A07F3D"/>
<path d="M51.6446 59.854H49.6372V61.6788H51.8271V59.854H51.6446Z" fill="#A07F3D"/>
<path d="M55.1117 56.9343H52.9219V58.7591H55.1117V56.9343Z" fill="#A07F3D"/>
<path d="M55.1117 59.854H52.9219V61.6788H55.1117V59.854Z" fill="#A07F3D"/>
<path d="M65.3312 58.7591V56.9343H63.1414V58.7591H65.1488H65.3312Z" fill="#A07F3D"/>
<path d="M65.1488 59.854H63.1414V61.6788H65.3312V59.854H65.1488Z" fill="#A07F3D"/>
<path d="M68.6161 56.9343H66.4263V58.7591H68.6161V56.9343Z" fill="#A07F3D"/>
<path d="M68.6161 59.854H66.4263V61.6788H68.6161V59.854Z" fill="#A07F3D"/>
<path d="M78.6833 36.4964H77.0105V37.9562H78.8354V36.4964H78.6833Z" fill="#A07F3D"/>
<path d="M82.1203 36.4964H80.2954V37.9562H82.1203V36.4964Z" fill="#A07F3D"/>
<path d="M78.8354 44.1606V42.7007H77.0105V44.1606H78.6833H78.8354Z" fill="#A07F3D"/>
<path d="M78.6833 45.6204H77.0105V47.0803H78.8354V45.6204H78.6833Z" fill="#A07F3D"/>
<path d="M82.1203 42.7007H80.2954V44.1606H82.1203V42.7007Z" fill="#A07F3D"/>
<path d="M82.1203 45.6204H80.2954V47.0803H82.1203V45.6204Z" fill="#A07F3D"/>
<path d="M78.8354 53.2847V51.8248H77.0105V53.2847H78.6833H78.8354Z" fill="#A07F3D"/>
<path d="M78.6833 54.7445H77.0105V56.5693H78.8354V54.7445H78.6833Z" fill="#A07F3D"/>
<path d="M82.1203 51.8248H80.2954V53.2847H82.1203V51.8248Z" fill="#A07F3D"/>
<path d="M82.1203 54.7445H80.2954V56.5693H82.1203V54.7445Z" fill="#A07F3D"/>
<path d="M68.6161 33.9416H49.6372V37.5912H68.6161V33.9416Z" fill="#A07F3D"/>
<path d="M68.6161 41.6058H49.6372V45.6204H68.6161V41.6058Z" fill="#A07F3D"/>
<path d="M68.6161 49.635H49.6372V53.2847H68.6161V49.635Z" fill="#A07F3D"/>
<path d="M37.2278 47.4453H36.8628V66.0584H37.2278V47.4453Z" fill="#A07F3D"/>
<path d="M41.6075 49.7962C41.6372 56.347 37.0992 61.6788 37.0992 61.6788C37.0992 61.6788 32.513 56.3897 32.4833 49.8389C32.4536 43.2881 36.9916 37.9562 36.9916 37.9562C36.9916 37.9562 41.5778 43.2453 41.6075 49.7962Z" fill="#A52A2A"/>
<path opacity="0.1" d="M41.6075 49.7962C41.6372 56.347 37.0992 61.6788 37.0992 61.6788C37.0992 61.6788 32.513 56.3897 32.4833 49.8389C32.4536 43.2881 36.9916 37.9562 36.9916 37.9562C36.9916 37.9562 41.5778 43.2453 41.6075 49.7962Z" fill="black"/>
<path d="M35.4029 49.7962C35.4326 56.347 30.8946 61.6788 30.8946 61.6788C30.8946 61.6788 26.3084 56.3897 26.2787 49.8389C26.249 43.2881 30.787 37.9562 30.787 37.9562C30.787 37.9562 35.3732 43.2453 35.4029 49.7962Z" fill="#A52A2A"/>
<path d="M105.114 47.4453H104.749V66.0584H105.114V47.4453Z" fill="#A07F3D"/>
<path d="M109.493 49.7962C109.523 56.347 104.985 61.6788 104.985 61.6788C104.985 61.6788 100.399 56.3897 100.369 49.8389C100.34 43.2881 104.878 37.9562 104.878 37.9562C104.878 37.9562 109.464 43.2453 109.493 49.7962Z" fill="#A52A2A"/>
<path d="M87.8382 54.4459H92.5424V53.2847H95.1378V54.4459H100.004V59.5886H95.1378V66.0584H92.5424V59.5886H87.8382L85.405 56.7684L87.8382 54.4459Z" fill="#A07F3D"/>
<defs>
<clipPath id="clip0">
<rect width="234" height="143" fill="white" transform="translate(47 126)"/>
</clipPath>
</defs>
</svg>
