<svg width="293" height="210" viewBox="0 0 293 210" fill="none" xmlns="http://www.w3.org/2000/svg">
<path d="M13.5419 42.7571C16.1204 42.7571 18.2107 40.6589 18.2107 38.0706C18.2107 35.4823 16.1204 33.3841 13.5419 33.3841C10.9635 33.3841 8.87317 35.4823 8.87317 38.0706C8.87317 40.6589 10.9635 42.7571 13.5419 42.7571Z" fill="#E6E6E6"/>
<path d="M27.5483 42.7571C30.1268 42.7571 32.2171 40.6589 32.2171 38.0706C32.2171 35.4823 30.1268 33.3841 27.5483 33.3841C24.9698 33.3841 22.8795 35.4823 22.8795 38.0706C22.8795 40.6589 24.9698 42.7571 27.5483 42.7571Z" fill="#E6E6E6"/>
<path d="M41.5545 42.7571C44.133 42.7571 46.2233 40.6589 46.2233 38.0706C46.2233 35.4823 44.133 33.3841 41.5545 33.3841C38.976 33.3841 36.8857 35.4823 36.8857 38.0706C36.8857 40.6589 38.976 42.7571 41.5545 42.7571Z" fill="#E6E6E6"/>
<path d="M55.5609 42.7571C58.1394 42.7571 60.2296 40.6589 60.2296 38.0706C60.2296 35.4823 58.1394 33.3841 55.5609 33.3841C52.9824 33.3841 50.8921 35.4823 50.8921 38.0706C50.8921 40.6589 52.9824 42.7571 55.5609 42.7571Z" fill="#E6E6E6"/>
<path d="M69.5672 42.7571C72.1457 42.7571 74.236 40.6589 74.236 38.0706C74.236 35.4823 72.1457 33.3841 69.5672 33.3841C66.9887 33.3841 64.8984 35.4823 64.8984 38.0706C64.8984 40.6589 66.9887 42.7571 69.5672 42.7571Z" fill="#E6E6E6"/>
<path d="M83.5736 42.7571C86.1521 42.7571 88.2423 40.6589 88.2423 38.0706C88.2423 35.4823 86.1521 33.3841 83.5736 33.3841C80.9951 33.3841 78.9048 35.4823 78.9048 38.0706C78.9048 40.6589 80.9951 42.7571 83.5736 42.7571Z" fill="#E6E6E6"/>
<path d="M97.5799 42.7571C100.158 42.7571 102.249 40.6589 102.249 38.0706C102.249 35.4823 100.158 33.3841 97.5799 33.3841C95.0014 33.3841 92.9111 35.4823 92.9111 38.0706C92.9111 40.6589 95.0014 42.7571 97.5799 42.7571Z" fill="#E6E6E6"/>
<path d="M108.368 43.7777H2.75322C2.2495 43.7771 1.76658 43.576 1.4104 43.2184C1.05422 42.8609 0.853863 42.3762 0.853271 41.8705V34.2707C0.853863 33.7651 1.05422 33.2803 1.4104 32.9228C1.76658 32.5652 2.2495 32.3641 2.75322 32.3635H108.368C108.872 32.3641 109.355 32.5652 109.711 32.9228C110.067 33.2803 110.268 33.7651 110.268 34.2707V41.8705C110.268 42.3762 110.067 42.8609 109.711 43.2184C109.355 43.576 108.872 43.7771 108.368 43.7777ZM2.75322 33.1264C2.45098 33.1267 2.16122 33.2474 1.9475 33.4619C1.73379 33.6765 1.61358 33.9673 1.61325 34.2707V41.8705C1.61358 42.1739 1.73379 42.4648 1.9475 42.6793C2.16122 42.8938 2.45098 43.0145 2.75322 43.0148H108.368C108.671 43.0145 108.96 42.8938 109.174 42.6793C109.388 42.4648 109.508 42.1739 109.508 41.8705V34.2707C109.508 33.9673 109.388 33.6765 109.174 33.4619C108.96 33.2474 108.671 33.1267 108.368 33.1264L2.75322 33.1264Z" fill="#E6E6E6"/>
<path d="M25.3556 1.09579C25.645 1.09612 25.9225 1.21167 26.1271 1.4171C26.3318 1.62252 26.4469 1.90104 26.4472 2.19156V25.937C26.4469 26.2275 26.3318 26.5061 26.1271 26.7115C25.9225 26.9169 25.645 27.0325 25.3556 27.0328H2.18328C1.89386 27.0325 1.6164 26.9169 1.41175 26.7115C1.2071 26.5061 1.09199 26.2275 1.09165 25.937V2.19158C1.09199 1.90106 1.2071 1.62254 1.41175 1.41711C1.6164 1.21169 1.89386 1.09613 2.18328 1.0958H25.3556V1.09579ZM25.3556 1.57391e-05H2.18328C1.60424 1.57391e-05 1.04891 0.230912 0.63947 0.641913C0.230027 1.05291 0 1.61035 0 2.19159V25.937C0 26.5183 0.230027 27.0757 0.63947 27.4867C1.04891 27.8977 1.60424 28.1286 2.18328 28.1286H25.3556C25.9346 28.1286 26.49 27.8977 26.8994 27.4867C27.3089 27.0757 27.5389 26.5183 27.5389 25.937V2.19158C27.5389 1.61033 27.3089 1.0529 26.8994 0.641897C26.49 0.230897 25.9346 9.11879e-07 25.3556 0V1.57391e-05Z" fill="#E6E6E6"/>
<path d="M21.7413 7.33745H6.28086C6.2089 7.33789 6.13756 7.32405 6.07096 7.29672C6.00435 7.26938 5.94378 7.2291 5.89274 7.17818C5.8417 7.12726 5.8012 7.06671 5.77356 7.00001C5.74592 6.93332 5.73169 6.8618 5.73169 6.78957C5.73169 6.71733 5.74592 6.64581 5.77356 6.57912C5.8012 6.51243 5.8417 6.45188 5.89274 6.40096C5.94378 6.35004 6.00435 6.30975 6.07096 6.28242C6.13756 6.25508 6.2089 6.24124 6.28086 6.24168H21.7413C21.8132 6.24124 21.8846 6.25508 21.9512 6.28242C22.0178 6.30975 22.0783 6.35004 22.1294 6.40096C22.1804 6.45188 22.2209 6.51243 22.2486 6.57912C22.2762 6.64581 22.2904 6.71733 22.2904 6.78957C22.2904 6.8618 22.2762 6.93332 22.2486 7.00001C22.2209 7.06671 22.1804 7.12726 22.1294 7.17818C22.0783 7.2291 22.0178 7.26938 21.9512 7.29672C21.8846 7.32405 21.8132 7.33789 21.7413 7.33745Z" fill="#A52A2A"/>
<path d="M21.7413 11.2174H6.28086C6.2089 11.2178 6.13756 11.204 6.07096 11.1766C6.00435 11.1493 5.94378 11.109 5.89274 11.0581C5.8417 11.0072 5.8012 10.9466 5.77356 10.8799C5.74592 10.8132 5.73169 10.7417 5.73169 10.6695C5.73169 10.5972 5.74592 10.5257 5.77356 10.459C5.8012 10.3923 5.8417 10.3318 5.89274 10.2809C5.94378 10.23 6.00435 10.1897 6.07096 10.1623C6.13756 10.135 6.2089 10.1211 6.28086 10.1216H21.7413C21.8132 10.1211 21.8846 10.135 21.9512 10.1623C22.0178 10.1897 22.0783 10.23 22.1294 10.2809C22.1804 10.3318 22.2209 10.3923 22.2486 10.459C22.2762 10.5257 22.2904 10.5972 22.2904 10.6695C22.2904 10.7417 22.2762 10.8132 22.2486 10.8799C22.2209 10.9466 22.1804 11.0072 22.1294 11.0581C22.0783 11.109 22.0178 11.1493 21.9512 11.1766C21.8846 11.204 21.8132 11.2178 21.7413 11.2174Z" fill="#A52A2A"/>
<path d="M21.7413 15.097H6.28086C6.2089 15.0975 6.13756 15.0836 6.07096 15.0563C6.00435 15.029 5.94378 14.9887 5.89274 14.9378C5.8417 14.8868 5.8012 14.8263 5.77356 14.7596C5.74592 14.6929 5.73169 14.6214 5.73169 14.5491C5.73169 14.4769 5.74592 14.4054 5.77356 14.3387C5.8012 14.272 5.8417 14.2115 5.89274 14.1605C5.94378 14.1096 6.00435 14.0693 6.07096 14.042C6.13756 14.0147 6.2089 14.0008 6.28086 14.0013H21.7413C21.8132 14.0008 21.8846 14.0147 21.9512 14.042C22.0178 14.0693 22.0783 14.1096 22.1294 14.1605C22.1804 14.2115 22.2209 14.272 22.2486 14.3387C22.2762 14.4054 22.2904 14.4769 22.2904 14.5491C22.2904 14.6214 22.2762 14.6929 22.2486 14.7596C22.2209 14.8263 22.1804 14.8868 22.1294 14.9378C22.0783 14.9887 22.0178 15.029 21.9512 15.0563C21.8846 15.0836 21.8132 15.0975 21.7413 15.097Z" fill="#A52A2A"/>
<path d="M21.7413 18.977H6.28086C6.2089 18.9774 6.13756 18.9636 6.07096 18.9363C6.00435 18.9089 5.94378 18.8686 5.89274 18.8177C5.8417 18.7668 5.8012 18.7063 5.77356 18.6396C5.74592 18.5729 5.73169 18.5014 5.73169 18.4291C5.73169 18.3569 5.74592 18.2854 5.77356 18.2187C5.8012 18.152 5.8417 18.0914 5.89274 18.0405C5.94378 17.9896 6.00435 17.9493 6.07096 17.922C6.13756 17.8946 6.2089 17.8808 6.28086 17.8812H21.7413C21.8132 17.8808 21.8846 17.8946 21.9512 17.922C22.0178 17.9493 22.0783 17.9896 22.1294 18.0405C22.1804 18.0914 22.2209 18.152 22.2486 18.2187C22.2762 18.2854 22.2904 18.3569 22.2904 18.4291C22.2904 18.5014 22.2762 18.5729 22.2486 18.6396C22.2209 18.7063 22.1804 18.7668 22.1294 18.8177C22.0783 18.8686 22.0178 18.9089 21.9512 18.9363C21.8846 18.9636 21.8132 18.9774 21.7413 18.977Z" fill="#A52A2A"/>
<path d="M21.7412 22.8569H6.2808C6.13604 22.8569 5.99721 22.7992 5.89485 22.6964C5.79249 22.5937 5.73499 22.4543 5.73499 22.309C5.73499 22.1637 5.79249 22.0243 5.89485 21.9216C5.99721 21.8188 6.13604 21.7611 6.2808 21.7611H21.7412C21.886 21.7611 22.0248 21.8188 22.1272 21.9216C22.2295 22.0243 22.287 22.1637 22.287 22.309C22.287 22.4543 22.2295 22.5937 22.1272 22.6964C22.0248 22.7992 21.886 22.8569 21.7412 22.8569Z" fill="#A52A2A"/>
<path d="M104.499 1.09579C104.789 1.09612 105.066 1.21167 105.271 1.4171C105.475 1.62252 105.591 1.90104 105.591 2.19156V25.937C105.591 26.2275 105.475 26.5061 105.271 26.7115C105.066 26.9169 104.789 27.0325 104.499 27.0328H81.327C81.0375 27.0325 80.7601 26.9169 80.5554 26.7115C80.3508 26.5061 80.2357 26.2275 80.2353 25.937V2.19158C80.2357 1.90106 80.3508 1.62254 80.5554 1.41711C80.7601 1.21169 81.0375 1.09613 81.327 1.0958H104.499V1.09579ZM104.499 1.57391e-05H81.327C80.7479 1.57391e-05 80.1926 0.230912 79.7831 0.641913C79.3737 1.05291 79.1437 1.61035 79.1437 2.19159V25.937C79.1437 26.5183 79.3737 27.0757 79.7831 27.4867C80.1926 27.8977 80.7479 28.1286 81.327 28.1286H104.499C105.078 28.1286 105.634 27.8977 106.043 27.4867C106.453 27.0757 106.683 26.5183 106.683 25.937V2.19158C106.683 1.61033 106.453 1.0529 106.043 0.641897C105.634 0.230897 105.078 0 104.499 0V1.57391e-05Z" fill="#E6E6E6"/>
<path d="M100.885 7.33745H85.4244C85.3525 7.33789 85.2811 7.32405 85.2145 7.29672C85.1479 7.26938 85.0873 7.2291 85.0363 7.17818C84.9853 7.12726 84.9447 7.06671 84.9171 7.00001C84.8895 6.93332 84.8752 6.8618 84.8752 6.78957C84.8752 6.71733 84.8895 6.64581 84.9171 6.57912C84.9447 6.51243 84.9853 6.45188 85.0363 6.40096C85.0873 6.35004 85.1479 6.30975 85.2145 6.28242C85.2811 6.25508 85.3525 6.24124 85.4244 6.24168H100.885C101.029 6.24257 101.167 6.30068 101.269 6.40334C101.37 6.50599 101.427 6.64484 101.427 6.78957C101.427 6.9343 101.37 7.07314 101.269 7.17579C101.167 7.27845 101.029 7.33656 100.885 7.33745H100.885Z" fill="#A52A2A"/>
<path d="M100.885 11.2174H85.4244C85.3525 11.2178 85.2811 11.204 85.2145 11.1766C85.1479 11.1493 85.0873 11.109 85.0363 11.0581C84.9853 11.0072 84.9447 10.9466 84.9171 10.8799C84.8895 10.8132 84.8752 10.7417 84.8752 10.6695C84.8752 10.5972 84.8895 10.5257 84.9171 10.459C84.9447 10.3923 84.9853 10.3318 85.0363 10.2809C85.0873 10.23 85.1479 10.1897 85.2145 10.1623C85.2811 10.135 85.3525 10.1211 85.4244 10.1216H100.885C101.029 10.1225 101.167 10.1806 101.269 10.2832C101.37 10.3859 101.427 10.5247 101.427 10.6695C101.427 10.8142 101.37 10.9531 101.269 11.0557C101.167 11.1584 101.029 11.2165 100.885 11.2174H100.885Z" fill="#A52A2A"/>
<path d="M100.885 15.097H85.4244C85.3525 15.0975 85.2811 15.0836 85.2145 15.0563C85.1479 15.029 85.0873 14.9887 85.0363 14.9378C84.9853 14.8868 84.9447 14.8263 84.9171 14.7596C84.8895 14.6929 84.8752 14.6214 84.8752 14.5491C84.8752 14.4769 84.8895 14.4054 84.9171 14.3387C84.9447 14.272 84.9853 14.2115 85.0363 14.1605C85.0873 14.1096 85.1479 14.0693 85.2145 14.042C85.2811 14.0147 85.3525 14.0008 85.4244 14.0013H100.885C101.029 14.0021 101.167 14.0603 101.269 14.1629C101.37 14.2656 101.427 14.4044 101.427 14.5491C101.427 14.6939 101.37 14.8327 101.269 14.9354C101.167 15.038 101.029 15.0961 100.885 15.097H100.885Z" fill="#A52A2A"/>
<path d="M100.885 18.977H85.4244C85.3525 18.9774 85.2811 18.9636 85.2145 18.9363C85.1479 18.9089 85.0873 18.8686 85.0363 18.8177C84.9853 18.7668 84.9447 18.7063 84.9171 18.6396C84.8895 18.5729 84.8752 18.5014 84.8752 18.4291C84.8752 18.3569 84.8895 18.2854 84.9171 18.2187C84.9447 18.152 84.9853 18.0914 85.0363 18.0405C85.0873 17.9896 85.1479 17.9493 85.2145 17.922C85.2811 17.8946 85.3525 17.8808 85.4244 17.8812H100.885C101.029 17.8821 101.167 17.9402 101.269 18.0429C101.37 18.1455 101.427 18.2844 101.427 18.4291C101.427 18.5738 101.37 18.7127 101.269 18.8153C101.167 18.918 101.029 18.9761 100.885 18.977H100.885Z" fill="#A52A2A"/>
<path d="M100.885 22.8569H85.4245C85.2797 22.8569 85.1409 22.7992 85.0385 22.6964C84.9362 22.5937 84.8787 22.4543 84.8787 22.309C84.8787 22.1637 84.9362 22.0243 85.0385 21.9216C85.1409 21.8188 85.2797 21.7611 85.4245 21.7611H100.885C101.03 21.7611 101.168 21.8188 101.271 21.9216C101.373 22.0243 101.431 22.1637 101.431 22.309C101.431 22.4543 101.373 22.5937 101.271 22.6964C101.168 22.7992 101.03 22.8569 100.885 22.8569H100.885Z" fill="#A52A2A"/>
<path d="M183.258 46.7528C183.548 46.7532 183.825 46.8687 184.03 47.0741C184.235 47.2796 184.35 47.5581 184.35 47.8486V71.5941C184.35 71.8846 184.235 72.1631 184.03 72.3685C183.825 72.5739 183.548 72.6895 183.258 72.6898H160.086C159.797 72.6895 159.519 72.5739 159.315 72.3685C159.11 72.1631 158.995 71.8846 158.994 71.5941V47.8486C158.995 47.5581 159.11 47.2796 159.315 47.0742C159.519 46.8687 159.797 46.7532 160.086 46.7529H183.258V46.7528ZM183.258 45.6571H160.086C159.507 45.6571 158.952 45.888 158.542 46.299C158.133 46.71 157.903 47.2674 157.903 47.8487V71.5941C157.903 72.1754 158.133 72.7328 158.542 73.1438C158.952 73.5548 159.507 73.7857 160.086 73.7857H183.258C183.837 73.7857 184.393 73.5548 184.802 73.1438C185.212 72.7328 185.442 72.1754 185.442 71.5941V47.8486C185.442 47.2674 185.212 46.7099 184.802 46.2989C184.393 45.8879 183.837 45.657 183.258 45.657V45.6571Z" fill="#A52A2A"/>
<path d="M179.644 52.9945H164.184C164.112 52.9949 164.04 52.9811 163.974 52.9537C163.907 52.9264 163.847 52.8861 163.796 52.8352C163.745 52.7843 163.704 52.7237 163.676 52.657C163.649 52.5903 163.635 52.5188 163.635 52.4466C163.635 52.3743 163.649 52.3028 163.676 52.2361C163.704 52.1694 163.745 52.1089 163.796 52.058C163.847 52.0071 163.907 51.9668 163.974 51.9394C164.04 51.9121 164.112 51.8982 164.184 51.8987H179.644C179.788 51.8996 179.926 51.9577 180.028 52.0604C180.13 52.163 180.187 52.3019 180.187 52.4466C180.187 52.5913 180.13 52.7302 180.028 52.8328C179.926 52.9355 179.788 52.9936 179.644 52.9945Z" fill="#A52A2A"/>
<path d="M179.644 56.8744H164.184C164.039 56.8744 163.9 56.8167 163.798 56.7139C163.695 56.6112 163.638 56.4718 163.638 56.3265C163.638 56.1812 163.695 56.0419 163.798 55.9391C163.9 55.8364 164.039 55.7786 164.184 55.7786H179.644C179.789 55.7786 179.928 55.8364 180.03 55.9391C180.132 56.0419 180.19 56.1812 180.19 56.3265C180.19 56.4718 180.132 56.6112 180.03 56.7139C179.928 56.8167 179.789 56.8744 179.644 56.8744Z" fill="#A52A2A"/>
<path d="M179.644 60.7541H164.184C164.112 60.7544 164.041 60.7405 163.974 60.7131C163.907 60.6858 163.847 60.6455 163.796 60.5946C163.745 60.5436 163.705 60.4831 163.677 60.4165C163.649 60.3498 163.635 60.2784 163.635 60.2062C163.635 60.134 163.649 60.0625 163.677 59.9959C163.705 59.9292 163.745 59.8687 163.796 59.8178C163.847 59.7669 163.907 59.7266 163.974 59.6992C164.041 59.6718 164.112 59.6579 164.184 59.6583H179.644C179.788 59.6592 179.926 59.7173 180.028 59.82C180.13 59.9226 180.187 60.0614 180.187 60.2062C180.187 60.3509 180.13 60.4898 180.028 60.5924C179.926 60.6951 179.788 60.7532 179.644 60.7541Z" fill="#A52A2A"/>
<path d="M179.644 64.634H164.184C164.112 64.6344 164.04 64.6206 163.974 64.5933C163.907 64.5659 163.847 64.5256 163.796 64.4747C163.745 64.4238 163.704 64.3633 163.676 64.2966C163.649 64.2299 163.635 64.1584 163.635 64.0861C163.635 64.0139 163.649 63.9424 163.676 63.8757C163.704 63.809 163.745 63.7484 163.796 63.6975C163.847 63.6466 163.907 63.6063 163.974 63.579C164.04 63.5516 164.112 63.5378 164.184 63.5382H179.644C179.788 63.5391 179.926 63.5972 180.028 63.6999C180.13 63.8025 180.187 63.9414 180.187 64.0861C180.187 64.2308 180.13 64.3697 180.028 64.4724C179.926 64.575 179.788 64.6331 179.644 64.634Z" fill="#A52A2A"/>
<path d="M179.644 68.5139H164.184C164.112 68.5144 164.04 68.5005 163.974 68.4732C163.907 68.4459 163.847 68.4056 163.796 68.3547C163.745 68.3037 163.704 68.2432 163.676 68.1765C163.649 68.1098 163.635 68.0383 163.635 67.9661C163.635 67.8938 163.649 67.8223 163.676 67.7556C163.704 67.6889 163.745 67.6284 163.796 67.5774C163.847 67.5265 163.907 67.4862 163.974 67.4589C164.04 67.4316 164.112 67.4177 164.184 67.4182H179.644C179.788 67.4191 179.926 67.4772 180.028 67.5798C180.13 67.6825 180.187 67.8213 180.187 67.9661C180.187 68.1108 180.13 68.2496 180.028 68.3523C179.926 68.4549 179.788 68.513 179.644 68.5139Z" fill="#A52A2A"/>
<path d="M65.2306 28.1286H41.4515C40.8085 28.1278 40.192 27.8711 39.7373 27.4146C39.2825 26.9582 39.0268 26.3393 39.026 25.6938V8.61386C39.0267 7.96831 39.2825 7.3494 39.7372 6.8929C40.1919 6.43641 40.8084 6.17961 41.4515 6.17883H65.2306C65.8738 6.17955 66.4904 6.43632 66.9451 6.89282C67.3999 7.34932 67.6557 7.96827 67.6564 8.61386V25.6938C67.6556 26.3394 67.3998 26.9583 66.945 27.4147C66.4903 27.8711 65.8737 28.1279 65.2306 28.1286ZM41.4515 7.27462C41.0979 7.27506 40.7588 7.41631 40.5087 7.66738C40.2587 7.91844 40.118 8.25883 40.1176 8.61386V25.6938C40.118 26.0488 40.2587 26.3892 40.5088 26.6402C40.7588 26.8912 41.0979 27.0324 41.4515 27.0328H65.2306C65.5843 27.0324 65.9234 26.8912 66.1735 26.6402C66.4236 26.3892 66.5643 26.0489 66.5648 25.6938V8.61386C66.5643 8.2588 66.4236 7.91841 66.1735 7.66735C65.9234 7.41629 65.5843 7.27505 65.2306 7.27462H41.4515Z" fill="#E6E6E6"/>
<path d="M61.0715 13.8219H45.6111C45.4669 13.821 45.3289 13.7629 45.2273 13.6602C45.1257 13.5576 45.0686 13.4187 45.0686 13.274C45.0686 13.1292 45.1257 12.9904 45.2273 12.8877C45.3289 12.7851 45.4669 12.727 45.6111 12.7261H61.0715C61.1434 12.7256 61.2148 12.7395 61.2814 12.7668C61.348 12.7942 61.4086 12.8344 61.4596 12.8854C61.5106 12.9363 61.5512 12.9968 61.5788 13.0635C61.6064 13.1302 61.6207 13.2017 61.6207 13.274C61.6207 13.3462 61.6064 13.4177 61.5788 13.4844C61.5512 13.5511 61.5106 13.6117 61.4596 13.6626C61.4086 13.7135 61.348 13.7538 61.2814 13.7811C61.2148 13.8085 61.1434 13.8223 61.0715 13.8219Z" fill="#A52A2A"/>
<path d="M61.0715 17.7017H45.6111C45.4669 17.7008 45.3289 17.6427 45.2273 17.5401C45.1257 17.4374 45.0686 17.2986 45.0686 17.1539C45.0686 17.0091 45.1257 16.8703 45.2273 16.7676C45.3289 16.665 45.4669 16.6069 45.6111 16.606H61.0715C61.1434 16.6055 61.2148 16.6194 61.2814 16.6467C61.348 16.674 61.4086 16.7143 61.4596 16.7652C61.5106 16.8162 61.5512 16.8767 61.5788 16.9434C61.6064 17.0101 61.6207 17.0816 61.6207 17.1539C61.6207 17.2261 61.6064 17.2976 61.5788 17.3643C61.5512 17.431 61.5106 17.4915 61.4596 17.5425C61.4086 17.5934 61.348 17.6337 61.2814 17.661C61.2148 17.6883 61.1434 17.7022 61.0715 17.7017Z" fill="#A52A2A"/>
<path d="M61.0715 21.5814H45.6111C45.4669 21.5806 45.3289 21.5224 45.2273 21.4198C45.1257 21.3171 45.0686 21.1783 45.0686 21.0336C45.0686 20.8888 45.1257 20.75 45.2273 20.6473C45.3289 20.5447 45.4669 20.4866 45.6111 20.4857H61.0715C61.1434 20.4852 61.2148 20.4991 61.2814 20.5264C61.348 20.5537 61.4086 20.594 61.4596 20.6449C61.5106 20.6959 61.5512 20.7564 61.5788 20.8231C61.6064 20.8898 61.6207 20.9613 61.6207 21.0336C61.6207 21.1058 61.6064 21.1773 61.5788 21.244C61.5512 21.3107 61.5106 21.3712 61.4596 21.4222C61.4086 21.4731 61.348 21.5134 61.2814 21.5407C61.2148 21.568 61.1434 21.5819 61.0715 21.5814Z" fill="#A52A2A"/>
<path d="M144.134 37.5932L121.295 30.9449C120.678 30.7644 120.157 30.3454 119.847 29.7799C119.537 29.2144 119.463 28.5485 119.641 27.9283L124.381 11.5243C124.56 10.9044 124.978 10.3815 125.541 10.0702C126.105 9.75893 126.768 9.68466 127.386 9.86372L150.224 16.512C150.841 16.6925 151.362 17.1115 151.673 17.6771C151.983 18.2426 152.057 18.9086 151.878 19.5289L147.139 35.933C146.959 36.5527 146.542 37.0756 145.978 37.3868C145.415 37.6981 144.751 37.7723 144.134 37.5932ZM127.082 10.9161C126.742 10.8177 126.377 10.8585 126.067 11.0298C125.757 11.201 125.528 11.4886 125.429 11.8295L120.69 28.2335C120.592 28.5746 120.632 28.9408 120.803 29.2518C120.973 29.5628 121.26 29.7932 121.599 29.8925L144.438 36.5407C144.777 36.6392 145.142 36.5985 145.452 36.4273C145.762 36.2561 145.992 35.9686 146.09 35.6277L150.83 19.2237C150.928 18.8825 150.887 18.5163 150.717 18.2052C150.546 17.8942 150.259 17.6637 149.92 17.5644L127.082 10.9161Z" fill="#E6E6E6"/>
<path d="M144.109 22.6897L129.26 18.3672C129.121 18.3265 129.004 18.2322 128.935 18.105C128.865 17.9778 128.849 17.828 128.889 17.6887C128.929 17.5493 129.023 17.4316 129.149 17.3615C129.276 17.2914 129.425 17.2746 129.564 17.3147L144.413 21.6372C144.552 21.6777 144.669 21.772 144.739 21.8993C144.809 22.0266 144.825 22.1765 144.785 22.316C144.744 22.4556 144.651 22.5734 144.524 22.6434C144.397 22.7135 144.248 22.7301 144.109 22.6897H144.109Z" fill="#A52A2A"/>
<path d="M143.032 26.416L128.183 22.0935C128.115 22.0735 128.05 22.04 127.994 21.9951C127.938 21.9501 127.892 21.8945 127.857 21.8315C127.823 21.7685 127.801 21.6992 127.793 21.6277C127.785 21.5562 127.791 21.4838 127.811 21.4147C127.831 21.3456 127.865 21.2811 127.909 21.2249C127.954 21.1688 128.01 21.122 128.072 21.0873C128.135 21.0526 128.204 21.0307 128.275 21.0227C128.347 21.0148 128.419 21.021 128.488 21.0411L143.336 25.3636C143.475 25.4043 143.592 25.4986 143.662 25.6258C143.731 25.753 143.748 25.9027 143.707 26.0421C143.667 26.1815 143.573 26.2991 143.447 26.3692C143.32 26.4393 143.171 26.4562 143.032 26.416Z" fill="#A52A2A"/>
<path d="M141.956 30.1422L127.107 25.8197C126.968 25.779 126.851 25.6847 126.781 25.5575C126.712 25.4303 126.695 25.2806 126.736 25.1412C126.776 25.0018 126.87 24.8842 126.996 24.8141C127.123 24.744 127.272 24.7271 127.411 24.7673L142.26 29.0898C142.399 29.1303 142.516 29.2245 142.586 29.3518C142.656 29.4791 142.672 29.629 142.632 29.7686C142.591 29.9082 142.498 30.0259 142.371 30.096C142.244 30.166 142.095 30.1827 141.956 30.1422Z" fill="#A52A2A"/>
<path d="M293 208.969H53.4697V210H293V208.969Z" fill="#E6E6E6"/>
<path d="M192.546 207.356H153.594L154.915 190.126H191.225L192.546 207.356Z" fill="#E6E6E6"/>
<path d="M195.186 205.368H151.614V209.344H195.186V205.368Z" fill="#E6E6E6"/>
<path d="M247.671 79.1238H98.7987C97.7481 79.1238 96.7406 79.5427 95.9977 80.2884C95.2549 81.0341 94.8375 82.0454 94.8375 83.1V174.221H251.632V83.1C251.632 82.5778 251.53 82.0608 251.331 81.5784C251.132 81.0959 250.84 80.6576 250.472 80.2884C250.104 79.9192 249.668 79.6263 249.187 79.4265C248.706 79.2266 248.191 79.1238 247.671 79.1238H247.671Z" fill="#3F3D56"/>
<path d="M94.8375 174.221V189.132C94.8375 189.654 94.94 190.171 95.1391 190.654C95.3381 191.136 95.6299 191.574 95.9977 191.943C96.3655 192.313 96.8022 192.606 97.2828 192.805C97.7634 193.005 98.2785 193.108 98.7987 193.108H247.671C248.722 193.108 249.729 192.689 250.472 191.943C251.215 191.198 251.632 190.186 251.632 189.132V174.221H94.8375Z" fill="#E6E6E6"/>
<path d="M244.04 87.4075H102.76V166.931H244.04V87.4075Z" fill="#E6E6E6"/>
<path d="M173.4 187.475C175.587 187.475 177.361 185.695 177.361 183.499C177.361 181.303 175.587 179.523 173.4 179.523C171.212 179.523 169.439 181.303 169.439 183.499C169.439 185.695 171.212 187.475 173.4 187.475Z" fill="#3F3D56"/>
<path d="M107.165 90.7664C107.58 90.7664 107.917 90.4286 107.917 90.0118C107.917 89.5951 107.58 89.2573 107.165 89.2573C106.75 89.2573 106.413 89.5951 106.413 90.0118C106.413 90.4286 106.75 90.7664 107.165 90.7664Z" fill="white"/>
<path d="M110.018 90.7664C110.433 90.7664 110.77 90.4286 110.77 90.0118C110.77 89.5951 110.433 89.2573 110.018 89.2573C109.603 89.2573 109.267 89.5951 109.267 90.0118C109.267 90.4286 109.603 90.7664 110.018 90.7664Z" fill="white"/>
<path d="M112.872 90.7664C113.287 90.7664 113.623 90.4286 113.623 90.0118C113.623 89.5951 113.287 89.2573 112.872 89.2573C112.456 89.2573 112.12 89.5951 112.12 90.0118C112.12 90.4286 112.456 90.7664 112.872 90.7664Z" fill="white"/>
<path d="M239.968 92.5759H106.413V159.363H239.968V92.5759Z" fill="white"/>
<path d="M115.291 102.735C115.166 102.735 115.046 102.785 114.957 102.874C114.869 102.962 114.819 103.083 114.819 103.208V127.165C114.819 127.29 114.869 127.411 114.957 127.5C115.046 127.589 115.166 127.639 115.291 127.639H142.852C142.977 127.639 143.097 127.589 143.186 127.5C143.274 127.411 143.324 127.29 143.324 127.165V103.208C143.324 103.083 143.274 102.962 143.186 102.874C143.097 102.785 142.977 102.735 142.852 102.735H115.291Z" fill="#E6E6E6"/>
<path d="M159.544 102.812C159.418 102.812 159.298 102.862 159.21 102.951C159.121 103.039 159.071 103.16 159.071 103.286V127.165C159.071 127.291 159.121 127.411 159.21 127.5C159.298 127.589 159.418 127.639 159.544 127.639H187.017C187.142 127.639 187.262 127.589 187.35 127.5C187.439 127.411 187.488 127.29 187.489 127.165V103.286C187.488 103.16 187.439 103.039 187.35 102.951C187.262 102.862 187.142 102.812 187.017 102.812H159.544Z" fill="#E6E6E6"/>
<path d="M203.332 102.561C203.207 102.561 203.087 102.611 202.998 102.7C202.91 102.789 202.86 102.91 202.86 103.035V127.165C202.86 127.29 202.91 127.411 202.998 127.5C203.087 127.589 203.207 127.639 203.332 127.639H231.091C231.216 127.639 231.336 127.589 231.424 127.5C231.513 127.411 231.562 127.29 231.563 127.165V103.035C231.562 102.91 231.513 102.789 231.424 102.7C231.336 102.611 231.216 102.561 231.091 102.561H203.332Z" fill="#E6E6E6"/>
<path d="M115.795 139.497C115.536 139.497 115.289 139.601 115.106 139.785C114.923 139.968 114.821 140.217 114.821 140.477C114.821 140.736 114.923 140.985 115.106 141.169C115.289 141.353 115.536 141.456 115.795 141.457H141.708C141.966 141.456 142.214 141.353 142.397 141.169C142.579 140.985 142.682 140.736 142.682 140.477C142.682 140.217 142.579 139.968 142.397 139.785C142.214 139.601 141.966 139.497 141.708 139.497H115.795Z" fill="#E6E6E6"/>
<path d="M115.795 144.158C115.536 144.158 115.289 144.262 115.106 144.445C114.923 144.629 114.821 144.878 114.821 145.138C114.821 145.397 114.923 145.646 115.106 145.83C115.289 146.014 115.536 146.117 115.795 146.118H127.462C127.721 146.117 127.968 146.014 128.151 145.83C128.334 145.646 128.436 145.397 128.436 145.138C128.436 144.878 128.334 144.629 128.151 144.445C127.968 144.262 127.721 144.158 127.462 144.158H115.795Z" fill="#A52A2A"/>
<path d="M160.523 139.497C160.264 139.497 160.017 139.601 159.834 139.785C159.651 139.968 159.549 140.217 159.549 140.477C159.549 140.736 159.651 140.985 159.834 141.169C160.017 141.353 160.264 141.456 160.523 141.457H186.436C186.694 141.456 186.942 141.353 187.125 141.169C187.307 140.985 187.41 140.736 187.41 140.477C187.41 140.217 187.307 139.968 187.125 139.785C186.942 139.601 186.694 139.497 186.436 139.497H160.523Z" fill="#E6E6E6"/>
<path d="M160.523 144.158C160.264 144.158 160.016 144.262 159.834 144.445C159.651 144.629 159.548 144.878 159.548 145.138C159.548 145.397 159.651 145.646 159.834 145.83C160.016 146.014 160.264 146.117 160.523 146.118H172.19C172.449 146.117 172.696 146.014 172.879 145.83C173.062 145.646 173.164 145.397 173.164 145.138C173.164 144.878 173.062 144.629 172.879 144.445C172.696 144.262 172.449 144.158 172.19 144.158H160.523Z" fill="#A52A2A"/>
<path d="M204.133 139.497C203.874 139.497 203.627 139.601 203.444 139.785C203.261 139.968 203.159 140.217 203.159 140.477C203.159 140.736 203.261 140.985 203.444 141.169C203.627 141.353 203.874 141.456 204.133 141.457H230.046C230.304 141.456 230.552 141.353 230.735 141.169C230.917 140.985 231.02 140.736 231.02 140.477C231.02 140.217 230.917 139.968 230.735 139.785C230.552 139.601 230.304 139.497 230.046 139.497H204.133Z" fill="#E6E6E6"/>
<path d="M115.795 134.683C115.536 134.684 115.289 134.787 115.106 134.971C114.923 135.155 114.821 135.404 114.821 135.663C114.821 135.923 114.923 136.172 115.106 136.356C115.289 136.539 115.536 136.643 115.795 136.643H141.708C141.966 136.643 142.214 136.539 142.397 136.356C142.579 136.172 142.682 135.923 142.682 135.663C142.682 135.404 142.579 135.155 142.397 134.971C142.214 134.787 141.966 134.684 141.708 134.683H115.795Z" fill="#E6E6E6"/>
<path d="M160.523 134.683C160.264 134.684 160.017 134.787 159.834 134.971C159.651 135.155 159.549 135.404 159.549 135.663C159.549 135.923 159.651 136.172 159.834 136.356C160.017 136.539 160.264 136.643 160.523 136.643H186.436C186.694 136.643 186.942 136.539 187.125 136.356C187.307 136.172 187.41 135.923 187.41 135.663C187.41 135.404 187.307 135.155 187.125 134.971C186.942 134.787 186.694 134.684 186.436 134.683H160.523Z" fill="#E6E6E6"/>
<path d="M204.133 134.683C203.874 134.684 203.627 134.787 203.444 134.971C203.261 135.155 203.159 135.404 203.159 135.663C203.159 135.923 203.261 136.172 203.444 136.356C203.627 136.539 203.874 136.643 204.133 136.643H230.046C230.304 136.643 230.552 136.539 230.735 136.356C230.917 136.172 231.02 135.923 231.02 135.663C231.02 135.404 230.917 135.155 230.735 134.971C230.552 134.787 230.304 134.684 230.046 134.683H204.133Z" fill="#E6E6E6"/>
<path d="M204.133 144.158C203.874 144.158 203.627 144.262 203.444 144.445C203.261 144.629 203.159 144.878 203.159 145.138C203.159 145.397 203.261 145.646 203.444 145.83C203.627 146.014 203.874 146.117 204.133 146.118H215.8C216.058 146.117 216.306 146.014 216.489 145.83C216.672 145.646 216.774 145.397 216.774 145.138C216.774 144.878 216.672 144.629 216.489 144.445C216.306 144.262 216.058 144.158 215.8 144.158H204.133Z" fill="#A52A2A"/>
</svg>
