<svg width="226" height="188" viewBox="0 0 226 188" fill="none" xmlns="http://www.w3.org/2000/svg">
<g clip-path="url(#clip0)">
<path d="M210.827 117.98L188.107 128.739L208.215 113.694C204.947 108.59 201.276 103.756 197.236 99.238L98.7046 123.744L187.707 89.7715C183.639 86.1808 179.32 82.8866 174.782 79.9142L24.6431 104.113C8.70217 124.059 0.0122722 148.837 0 174.377H226C225.991 154.569 220.757 135.115 210.827 117.98Z" fill="#F2F2F2"/>
<path d="M162.494 72.9284C147.08 65.4054 130.15 61.5071 113 61.5314C78.0944 61.5314 46.887 77.369 26.1589 102.253C61.6537 94.471 123.453 80.9996 162.494 72.9284Z" fill="#F2F2F2"/>
<path d="M179.286 171.851C176.167 171.322 173.167 170.868 170.287 170.489L171.425 168.28C171.042 168.146 169.355 169.411 169.355 169.411L170.849 162.999C168.918 163.232 167.936 169.779 167.936 169.779L165.779 167.566L166.823 170.054C159.246 169.138 151.623 168.658 143.991 168.617L144.966 166.726C144.582 166.592 142.895 167.857 142.895 167.857L144.389 161.445C142.458 161.678 141.477 168.226 141.477 168.226L139.319 166.012L140.425 168.648C136.038 168.72 131.657 169.018 127.3 169.54C128.286 166.595 131.635 163.793 131.635 163.793C129.077 164.554 127.736 165.83 127.035 167.019C126.972 160.941 127.982 154.901 130.018 149.175C130.018 149.175 124.732 160.684 125.407 168.41L125.488 169.782C121.007 170.424 118.754 171.092 118.754 171.092L179.286 171.851Z" fill="#A07F3D"/>
<path d="M109.362 171.439C106.243 170.91 103.243 170.456 100.363 170.077L101.501 167.868C101.117 167.734 99.4306 168.999 99.4306 168.999L100.925 162.587C98.9938 162.82 98.012 169.367 98.012 169.367L95.8546 167.154L96.8991 169.642C89.3223 168.726 81.6991 168.246 74.0673 168.205L75.0418 166.314C74.6579 166.181 72.971 167.446 72.971 167.446L74.4653 161.033C72.5343 161.266 71.5525 167.814 71.5525 167.814L69.3951 165.6L70.5013 168.236C66.1139 168.308 61.7332 168.606 57.3763 169.128C58.362 166.183 61.7105 163.381 61.7105 163.381C59.1533 164.142 57.8118 165.418 57.1109 166.607C57.0483 160.529 58.0582 154.489 60.0941 148.763C60.0941 148.763 54.8084 160.272 55.4828 167.998L55.5635 169.37C51.0824 170.012 48.8295 170.68 48.8295 170.68L109.362 171.439Z" fill="#A07F3D"/>
<path d="M184.931 173.923C184.931 177.434 152.321 188 112.093 188C71.8656 188 39.2548 177.434 39.2548 173.923C39.2548 170.412 71.8656 175.285 112.093 175.285C152.32 175.285 184.931 170.412 184.931 173.923Z" fill="#A07F3D"/>
<path opacity="0.1" d="M184.931 173.923C184.931 177.434 152.321 188 112.093 188C71.8656 188 39.2548 177.434 39.2548 173.923C39.2548 170.412 71.8656 175.285 112.093 175.285C152.32 175.285 184.931 170.412 184.931 173.923Z" fill="black"/>
<path d="M112.093 180.28C152.32 180.28 184.931 177.434 184.931 173.923C184.931 170.412 152.32 167.565 112.093 167.565C71.8656 167.565 39.2548 170.412 39.2548 173.923C39.2548 177.434 71.8656 180.28 112.093 180.28Z" fill="#A07F3D"/>
<path opacity="0.1" d="M116.291 175.966C150.315 175.966 177.897 174.34 177.897 172.333C177.897 170.327 150.315 168.7 116.291 168.7C82.2667 168.7 54.6847 170.327 54.6847 172.333C54.6847 174.34 82.2667 175.966 116.291 175.966Z" fill="black"/>
<path d="M94.1587 149.041C94.2605 163.506 85.7023 168.616 75.1024 168.691C74.8562 168.693 74.6112 168.692 74.3673 168.688C73.8759 168.681 73.3896 168.662 72.9084 168.631C63.3369 168.021 55.8662 162.764 55.7715 149.312C55.6736 135.39 73.3311 117.697 74.6555 116.388C74.6566 116.388 74.6566 116.388 74.6578 116.387C74.7081 116.337 74.7339 116.312 74.7339 116.312C74.7339 116.312 94.0569 134.578 94.1587 149.041Z" fill="#A52A2A"/>
<path d="M74.3883 166.483L81.3391 156.619L74.3782 167.561L74.3673 168.688C73.876 168.681 73.3897 168.662 72.9084 168.631L73.5629 154.155L73.5563 154.043L73.569 154.022L73.6313 152.654L66.4993 141.785L73.6453 151.629L73.665 151.919L74.1594 140.982L68.0403 129.742L74.2201 139.06L74.6555 116.388L74.6573 116.313L74.6579 116.387L74.6847 134.264L80.6463 127.135L74.6696 135.804L74.5795 145.594L80.129 136.16L74.5672 147.034L74.5172 152.478L82.5747 139.343L74.4987 154.377L74.3883 166.483Z" fill="#A07F3D"/>
<path d="M142.25 170.168H160.192L154.232 160.529L150.034 160.178L152.494 157.717L137.5 133.467V129.507H135.484L123.251 100.2L125.362 97.2952L123.251 95.711H122.08L115.231 33.5319H116.259L117.842 29.0434V20.3303H115.731V16.1059H113.092V7.92091H112.565V0H112.037V7.92091H111.245V16.1059H108.871V20.3303H106.496V29.0433L108.343 33.5319H109.41L104.275 95.711H104.253L100.823 96.7672L102.67 99.9355L102.802 100.2H102.67L92.4009 129.507H89.7405L90.0043 133.467L67.8397 170.168H86.0464V165.943H84.9909C84.9909 165.943 88.4212 142.708 113.224 140.596C138.555 140.068 143.305 165.415 143.305 165.415H142.25V170.168ZM154.607 161.587L155.311 164.051L152.144 161.939L154.607 161.587ZM150.737 162.291L154.607 164.755L150.385 164.403L150.737 162.291ZM146.164 164.755L148.626 161.939L149.682 164.755H146.164ZM142.042 149.177L142.947 151.289L139.027 149.177H142.042ZM140.874 147.819L141.175 146.009L144.492 148.121L140.874 147.819ZM146.515 157.362L147.571 159.826L142.997 157.362H146.515ZM141.741 155.514L143.852 153.1L144.756 155.514H141.741ZM145.359 155.212L145.661 153.402L148.978 155.514L145.359 155.212ZM148.978 160.178L147.571 157.362H151.441L148.978 160.178ZM149.581 154.91L146.867 153.1L148.978 152.798L149.581 154.91ZM148.677 151.893L145.058 151.591L147.169 149.479L148.677 151.893ZM144.153 151.591L142.947 149.177H146.264L144.153 151.591ZM145.095 147.518L142.381 145.707L144.492 145.405L145.095 147.518ZM144.191 144.5L140.572 144.198L142.683 142.086L144.191 144.5ZM139.667 144.198L138.461 141.784H141.778L139.667 144.198ZM135.596 140.162L135.898 138.352L139.215 140.464L135.596 140.162ZM138.461 143.897L134.541 141.784H137.556L138.461 143.897ZM139.818 139.861L137.104 138.05L139.215 137.748L139.818 139.861ZM138.914 136.843L135.295 136.541L137.406 134.429L138.914 136.843ZM136.501 134.127L134.39 136.541L133.184 134.127H136.501ZM133.184 136.24L129.264 134.127H132.279L133.184 136.24ZM103.55 129.507L109.003 105.216H117.446L124.663 129.507H103.55ZM122.102 136.504L118.181 134.392H121.197L122.102 136.504ZM115.166 135.976L114.11 137.183L113.507 135.976H115.166ZM113.507 137.032L111.547 135.976H113.055L113.507 137.032ZM100.427 121.982L104.385 119.606L103.33 124.094L100.427 121.982ZM102.538 124.622H96.2052L99.6354 122.51L102.538 124.622ZM112.25 40.3764L111.134 41.4934L110.017 40.3764H112.25ZM110.017 39.8889L111.134 38.7719L112.25 39.8889H110.017ZM112.25 43.0573H110.017L111.134 41.9402L112.25 43.0573ZM111.357 41.7168L112.473 40.5998V42.8339L111.357 41.7168ZM112.433 44.0931V46.7334L111.114 45.4132L112.433 44.0931ZM111.357 38.5485L112.473 37.4314V39.6655L111.357 38.5485ZM111.641 35.6441L112.521 34.764V36.5242L111.641 35.6441ZM112.345 36.7002H110.586L111.465 35.8201L112.345 36.7002ZM111.465 35.4681L110.586 34.588H112.345L111.465 35.4681ZM111.289 35.6441L110.41 36.5242V34.764L111.289 35.6441ZM112.25 37.208L111.134 38.325L110.017 37.208H112.25ZM110.911 38.5485L109.794 39.6655V37.4314L110.911 38.5485ZM110.911 41.7168L109.794 42.8339V40.5998L110.911 41.7168ZM112.169 43.8291L110.85 45.1492L109.53 43.8291H112.169ZM112.169 46.9974H109.53L110.85 45.6773L112.169 46.9974ZM112.433 48.0536V50.6939L111.114 49.3737L112.433 48.0536ZM112.169 47.7895L110.85 49.1097L109.53 47.7895H112.169ZM112.169 50.9579H109.53L110.85 49.6377L112.169 50.9579ZM112.372 52.2374V55.487L110.748 53.8622L112.372 52.2374ZM112.047 55.812H108.8L110.423 54.1872L112.047 55.812ZM112.372 56.99V60.2396L110.748 58.6148L112.372 56.99ZM112.047 56.665L110.423 58.2898L108.8 56.665H112.047ZM112.047 60.5645H108.8L110.423 58.9397L112.047 60.5645ZM112.301 61.9152V65.8756L110.322 63.8954L112.301 61.9152ZM111.905 66.2717H107.947L109.926 64.2914L111.905 66.2717ZM112.301 67.7238V71.6843L110.322 69.7041L112.301 67.7238ZM111.905 67.3278L109.926 69.308L107.947 67.3278H111.905ZM111.905 72.0803H107.947L109.926 70.1001L111.905 72.0803ZM112.23 73.7051V78.3764L109.896 76.0408L112.23 73.7051ZM111.763 78.8436H107.095L109.429 76.5079L111.763 78.8436ZM112.169 81.3214V86.602L109.53 83.9617L112.169 81.3214ZM111.641 87.1301H106.364L109.003 84.4898L111.641 87.1301ZM112.128 89.3032V94.99L109.287 92.1466L112.128 89.3032ZM111.56 88.7345L108.718 91.5779L105.877 88.7345H111.56ZM111.56 95.5587H105.877L108.718 92.7153L111.56 95.5587ZM105.177 112.213H99.8993L103.066 110.365L105.177 112.213ZM103.593 109.837L107.024 107.724L106.232 112.477L103.593 109.837ZM105.704 113.533L104.913 118.022L102.802 115.645L105.704 113.533ZM104.385 113.005L101.746 115.117L99.8993 113.005H104.385ZM104.121 118.286H98.5799L101.482 116.173L104.121 118.286ZM105.93 134.127L104.724 136.541L102.613 134.127H105.93ZM106.835 134.127H109.851L105.93 136.24L106.835 134.127ZM126.696 121.377L123.944 123.682L122.586 119.275L126.696 121.377ZM121.952 117.731L120.857 113.307L123.896 115.217L121.952 117.731ZM125.248 115.654L128.288 117.564L122.759 117.94L125.248 115.654ZM124.914 114.618L122.138 112.69L126.613 112.385L124.914 114.618ZM121.294 111.954L123.275 109.966L126.559 111.595L121.294 111.954ZM120.259 112.289L119.146 107.601L122.712 109.475L120.259 112.289ZM113.833 95.5587L116.675 92.7153L119.517 95.5587H113.833ZM113.265 94.99V89.3032L116.107 92.1466L113.265 94.99ZM113.833 88.7345H119.517L116.675 91.5779L113.833 88.7345ZM113.752 87.1301L116.391 84.4897L119.029 87.1301L113.752 87.1301ZM113.224 86.602V81.3214L115.863 83.9617L113.224 86.602ZM113.164 78.3764V73.7051L115.498 76.0408L113.164 78.3764ZM115.965 76.5079L118.299 78.8436H113.63L115.965 76.5079ZM114.036 41.7168L112.92 42.8339V40.5998L114.036 41.7168ZM113.143 40.3763H115.376L114.26 41.4934L113.143 40.3763ZM112.961 48.0535L114.28 49.3737L112.961 50.6938V48.0535ZM113.224 47.7895H115.863L114.544 49.1097L113.224 47.7895ZM113.021 56.99L114.645 58.6148L113.021 60.2396V56.99ZM113.346 56.665H116.594L114.97 58.2898L113.346 56.665ZM113.092 67.7238L115.071 69.7041L113.092 71.6843V67.7238ZM113.488 67.3278H117.446L115.467 69.308L113.488 67.3278ZM115.467 70.1001L117.446 72.0803H113.488L115.467 70.1001ZM115.863 69.7041L117.842 67.7238V71.6843L115.863 69.7041ZM113.488 66.2717L115.467 64.2914L117.446 66.2717H113.488ZM113.092 65.8756V61.9151L115.071 63.8954L113.092 65.8756ZM114.97 58.9397L116.594 60.5645H113.346L114.97 58.9397ZM115.295 58.6148L116.919 56.99V60.2396L115.295 58.6148ZM113.346 55.812L114.97 54.1872L116.594 55.812H113.346ZM113.021 55.487V52.2374L114.645 53.8622L113.021 55.487ZM114.544 49.6377L115.863 50.9579H113.224L114.544 49.6377ZM114.808 49.3737L116.127 48.0536V50.6939L114.808 49.3737ZM113.224 46.9974L114.544 45.6773L115.863 46.9974H113.224ZM112.961 46.7334V44.0931L114.28 45.4132L112.961 46.7334ZM114.26 41.9402L115.376 43.0573H113.143L114.26 41.9402ZM114.483 41.7168L115.599 40.5998V42.8339L114.483 41.7168ZM113.143 39.8889L114.26 38.7719L115.376 39.8889H113.143ZM112.92 39.6655V37.4314L114.036 38.5485L112.92 39.6655ZM114.104 35.6441L114.984 34.764V36.5242L114.104 35.6441ZM114.808 36.7002H113.049L113.928 35.8201L114.808 36.7002ZM113.928 35.4681L113.049 34.588H114.808L113.928 35.4681ZM113.752 35.6441L112.873 36.5242V34.764L113.752 35.6441ZM125.419 134.392L123.308 136.805L122.102 134.392H125.419ZM124.769 124.155L127.522 121.85L131.087 123.724L124.769 124.155ZM131.56 122.898L127.976 120.761L129.975 119.037L131.56 122.898ZM127.151 120.288L123.866 118.659L129.131 118.3L127.151 120.288ZM128.76 116.738L125.739 115.091L127.439 112.858L128.76 116.738ZM126.769 110.787L123.747 109.14L125.465 107.17L126.769 110.787ZM125.165 106.662L123.203 108.912L119.637 107.038L125.165 106.662ZM120.085 94.99L117.243 92.1466L120.085 89.3032V94.99ZM119.557 86.602L116.919 83.9617L119.557 81.3214V86.602ZM116.391 83.4336L113.752 80.7933H119.029L116.391 83.4336ZM118.766 78.3764L116.431 76.0408L118.766 73.7051V78.3764ZM115.965 75.5737L113.63 73.238H118.299L115.965 75.5737ZM117.842 65.8756L115.863 63.8954L117.842 61.9152V65.8756ZM115.467 63.4993L113.488 61.5191H117.446L115.467 63.4993ZM116.919 55.487L115.295 53.8622L116.919 52.2374V55.487ZM114.97 53.5373L113.346 51.9125H116.594L114.97 53.5373ZM116.127 46.7334L114.808 45.4132L116.127 44.0931V46.7334ZM114.544 45.1492L113.224 43.8291H115.863L114.544 45.1492ZM115.599 39.6655L114.483 38.5485L115.599 37.4314V39.6655ZM114.26 38.325L113.143 37.208H115.376L114.26 38.325ZM109.266 44.0931L110.586 45.4132L109.266 46.7334V44.0931ZM109.266 48.0535L110.586 49.3737L109.266 50.6938V48.0535ZM112.047 51.9124L110.423 53.5373L108.8 51.9124H112.047ZM108.475 52.2374L110.099 53.8622L108.475 55.487V52.2374ZM108.475 56.99L110.099 58.6148L108.475 60.2396V56.99ZM111.905 61.5191L109.926 63.4993L107.947 61.5191H111.905ZM107.551 61.9151L109.53 63.8954L107.551 65.8756V61.9151ZM107.551 67.7238L109.53 69.704L107.551 71.6843V67.7238ZM111.763 73.238L109.429 75.5736L107.095 73.238H111.763ZM106.628 73.7051L108.962 76.0408L106.628 78.3764V73.7051ZM111.641 80.7933L109.003 83.4336L106.364 80.7933H111.641ZM105.836 81.3214L108.475 83.9617L105.836 86.602V81.3214ZM105.308 89.3032L108.15 92.1466L105.308 94.99V89.3032ZM106.496 107.196L103.066 109.309L100.955 107.196L106.496 107.196ZM100.691 107.724L102.538 109.573L99.6354 111.421L100.691 107.724ZM99.1077 113.533L100.955 115.645L98.0522 117.494L99.1077 113.533ZM103.066 119.078L99.8993 120.926L97.7884 119.078H103.066ZM96.9968 119.87L99.1077 121.454L95.6774 123.83L96.9968 119.87ZM98.5046 134.127L94.5843 136.24L95.489 134.127H98.5046ZM94.5843 134.127L93.378 136.541L91.2671 134.127H94.5843ZM90.3624 134.429L92.4734 136.541L88.8547 136.843L90.3624 134.429ZM93.755 141.784L89.8347 143.897L90.7394 141.784H93.755ZM88.5531 140.464L91.8702 138.352L92.1718 140.162L88.5531 140.464ZM88.5531 137.748L90.664 138.05L87.95 139.861L88.5531 137.748ZM89.8347 141.784L88.6285 144.198L86.5176 141.784H89.8347ZM85.6129 142.086L87.7238 144.198L84.1051 144.5L85.6129 142.086ZM85.2988 157.362L80.7251 159.826L81.7806 157.362H85.2988ZM79.3178 155.514L82.635 153.402L82.9366 155.212L79.3178 155.514ZM83.5397 155.514L84.4444 153.1L86.5553 155.514H83.5397ZM89.2693 149.177L85.349 151.289L86.2537 149.177H89.2693ZM83.8035 148.121L87.1207 146.009L87.4222 147.819L83.8035 148.121ZM83.8035 145.405L85.9144 145.707L83.2004 147.518L83.8035 145.405ZM85.349 149.177L84.1428 151.591L82.0319 149.177H85.349ZM81.1272 149.479L83.2381 151.591L79.6194 151.893L81.1272 149.479ZM79.3178 152.798L81.4287 153.1L78.7147 154.91L79.3178 152.798ZM80.7251 157.362L79.3178 160.178L76.8551 157.362H80.7251ZM73.6887 161.587L76.1515 161.939L72.9851 164.051L73.6887 161.587ZM73.6887 164.755L77.5587 162.291L77.9106 164.403L73.6887 164.755ZM74.0405 160.531L75.7996 157.714L78.2624 160.178L74.0405 160.531ZM78.6142 164.755L79.6696 161.939L82.1324 164.755H78.6142ZM83.5397 164.403L81.0769 161.587L85.2988 161.235L83.5397 164.403ZM85.6506 160.178H81.7806L86.706 157.714L85.6506 160.178ZM87.7615 155.212L85.6506 152.798L89.2693 152.496L87.7615 155.212ZM89.5709 151.591H86.2537L90.4755 149.479L89.5709 151.591ZM88.0254 148.121L88.9301 145.707L91.041 148.121H88.0254ZM92.2472 147.819L90.1363 145.405L93.755 145.104L92.2472 147.819ZM94.0566 144.198H90.7394L94.9612 142.086L94.0566 144.198ZM92.7749 140.464L93.6796 138.05L95.7905 140.464H92.7749ZM96.9968 140.162L94.8858 137.748L98.5046 137.447L96.9968 140.162ZM95.489 136.541L99.7108 134.429L98.8061 136.541H95.489ZM99.8993 137.748L102.01 138.05L99.2962 139.861L99.8993 137.748ZM99.8993 140.464L103.216 138.352L103.518 140.162L99.8993 140.464ZM100.201 136.843L101.709 134.429L103.82 136.541L100.201 136.843ZM104.121 140.464L105.026 138.05L107.137 140.464H104.121ZM108.343 140.162L106.232 137.748L109.851 137.447L108.343 140.162ZM106.835 136.541L111.057 134.429L110.152 136.541H106.835ZM110.944 136.127L113.055 137.183H111.396L110.944 136.127ZM111.547 137.635L113.356 137.786L112.301 138.993L111.547 137.635ZM112.904 139.144L113.959 137.937L114.412 139.144H112.904ZM115.618 136.127L116.372 137.334L114.563 137.183L115.618 136.127ZM114.713 138.993L114.864 138.088L116.523 139.144L114.713 138.993ZM115.467 137.937L116.523 137.786L116.824 138.842L115.467 137.937ZM116.975 134.693L121.197 136.805H117.88L116.975 134.693ZM118.181 137.711L121.8 138.013L119.689 140.426L118.181 137.711ZM120.895 140.728L123.006 138.314L123.911 140.728H120.895ZM126.323 134.693L127.831 137.107L124.213 136.806L126.323 134.693ZM124.514 140.426L124.816 138.616L128.133 140.728L124.514 140.426ZM126.022 138.314L128.133 138.013L128.736 140.125L126.022 138.314ZM128.057 134.429L132.279 136.541H128.962L128.057 134.429ZM129.264 137.447L132.882 137.748L130.771 140.162L129.264 137.447ZM134.089 138.05L134.993 140.464H131.978L134.089 138.05ZM134.239 144.198L133.335 142.086L137.557 144.198H134.239ZM134.541 145.104L138.16 145.405L136.049 147.819L134.541 145.104ZM139.366 145.707L140.271 148.121H137.255L139.366 145.707ZM137.82 149.479L142.042 151.591H138.725L137.82 149.479ZM139.027 152.496L142.645 152.798L140.534 155.212L139.027 152.496ZM141.59 157.714L146.515 160.178H142.645L141.59 157.714ZM142.997 161.235L147.219 161.587L144.756 164.403L142.997 161.235Z" fill="#A07F3D"/>
<path opacity="0.1" d="M110.981 21.3865H107.551V22.9707H110.981V21.3865Z" fill="black"/>
<path opacity="0.1" d="M116.523 21.3865H113.092V22.9707H116.523V21.3865Z" fill="black"/>
<path d="M175.872 166.417C173.028 168.095 171.909 171.468 171.909 171.468C171.909 171.468 175.401 172.121 178.245 170.442C181.089 168.764 182.208 165.391 182.208 165.391C182.208 165.391 178.717 164.739 175.872 166.417Z" fill="#A07F3D"/>
<path d="M176.869 167.457C175.276 170.351 171.94 171.57 171.94 171.57C171.94 171.57 171.185 168.097 172.778 165.203C174.37 162.309 177.707 161.09 177.707 161.09C177.707 161.09 178.462 164.563 176.869 167.457Z" fill="#A52A2A"/>
</g>
<defs>
<clipPath id="clip0">
<rect width="226" height="188" fill="white"/>
</clipPath>
</defs>
</svg>
