<svg width="242" height="162" viewBox="0 0 242 162" fill="none" xmlns="http://www.w3.org/2000/svg">
<g clip-path="url(#clip0)">
<path d="M198.636 96.9899C198.796 96.9422 198.959 96.9072 199.125 96.8852L205.733 83.4617L203.715 80.4381L207.882 76.7978L213.12 83.2054L202.452 98.7261C202.715 99.313 202.792 99.966 202.674 100.598C202.557 101.23 202.249 101.811 201.793 102.265C201.336 102.718 200.753 103.021 200.12 103.135C199.487 103.248 198.834 103.166 198.249 102.9C197.664 102.634 197.173 102.196 196.843 101.644C196.513 101.092 196.358 100.453 196.4 99.8115C196.442 99.1699 196.679 98.5563 197.078 98.0522C197.477 97.5482 198.02 97.1777 198.636 96.9899V96.9899Z" fill="#A0616A"/>
<path d="M209.916 78.6524C209.826 78.7472 209.723 78.8286 209.61 78.894L202.848 82.8124C202.686 82.9066 202.506 82.9661 202.319 82.9871C202.132 83.008 201.943 82.9901 201.764 82.9343C201.585 82.8785 201.419 82.7861 201.277 82.6629C201.135 82.5398 201.02 82.3885 200.94 82.2188L197.652 75.2734C197.512 74.9811 197.482 74.6483 197.567 74.3357C197.652 74.023 197.847 73.7514 198.116 73.5704L202.307 70.7201C202.568 70.5423 202.884 70.4613 203.199 70.4913C203.514 70.5213 203.809 70.6602 204.032 70.8842L209.89 76.7613C210.14 77.0114 210.282 77.3486 210.286 77.7016C210.291 78.0546 210.159 78.3956 209.916 78.6524H209.916Z" fill="#CCCCCC"/>
<path d="M219.41 155.571L215.84 156.542L210.395 143.239L215.663 141.806L219.41 155.571Z" fill="#A0616A"/>
<path d="M213.012 156.216L219.897 154.343L221.076 158.677L209.857 161.729C209.702 161.159 209.661 160.565 209.736 159.98C209.81 159.395 210 158.831 210.293 158.319C210.586 157.807 210.977 157.358 211.443 156.997C211.91 156.636 212.443 156.371 213.012 156.216Z" fill="#AF8023"/>
<path d="M188.892 158.294L185.193 158.294L183.433 144.028L188.893 144.029L188.892 158.294Z" fill="#A0616A"/>
<path d="M182.55 157.237H189.685V161.728H178.058C178.058 161.138 178.174 160.554 178.4 160.01C178.625 159.465 178.956 158.97 179.373 158.553C179.791 158.136 180.286 157.805 180.831 157.579C181.376 157.353 181.96 157.237 182.55 157.237Z" fill="#AF8023"/>
<path d="M192.79 65.9845C196.883 65.9845 200.202 62.6672 200.202 58.575C200.202 54.4829 196.883 51.1656 192.79 51.1656C188.697 51.1656 185.378 54.4829 185.378 58.575C185.378 62.6672 188.697 65.9845 192.79 65.9845Z" fill="#A0616A"/>
<path d="M188.666 148.123H183.61C183.264 148.122 182.932 147.99 182.68 147.754C182.428 147.517 182.276 147.194 182.253 146.849C180.747 122.908 181.628 105.734 185.027 92.8028C185.041 92.7462 185.06 92.6906 185.082 92.6363L185.352 91.9596C185.452 91.7072 185.626 91.4907 185.851 91.3385C186.076 91.1862 186.342 91.1053 186.613 91.1061H197.01C197.205 91.106 197.399 91.1483 197.577 91.2301C197.755 91.312 197.913 91.4314 198.041 91.5802L199.453 93.2273C199.48 93.2594 199.506 93.2921 199.531 93.3266C205.898 102.204 211.605 119.559 218.214 142.885C218.311 143.224 218.273 143.588 218.106 143.899C217.939 144.21 217.657 144.443 217.321 144.55L211.888 146.288C211.576 146.386 211.239 146.369 210.939 146.24C210.638 146.111 210.394 145.878 210.251 145.584L196.151 116.35C196.053 116.145 195.891 115.978 195.69 115.873C195.489 115.768 195.259 115.73 195.035 115.766C194.811 115.801 194.604 115.908 194.446 116.07C194.287 116.232 194.184 116.441 194.154 116.665L190.011 146.949C189.966 147.274 189.805 147.571 189.557 147.787C189.31 148.003 188.994 148.122 188.666 148.123Z" fill="#AF8023"/>
<path d="M198.883 93.3478C198.868 93.3478 198.854 93.3475 198.84 93.3472L186.212 92.9486C185.887 92.9395 185.577 92.814 185.337 92.595C185.097 92.3761 184.944 92.0782 184.906 91.7557C183.305 78.8014 187.695 75.3309 189.657 74.4403C189.821 74.3663 189.963 74.2513 190.069 74.1063C190.176 73.9613 190.243 73.7913 190.264 73.6128L190.434 72.2549C190.463 72.0151 190.556 71.7875 190.702 71.5956C193.778 67.6119 197.979 66.3363 200.209 65.9306C200.389 65.8981 200.575 65.9027 200.754 65.9441C200.933 65.9855 201.102 66.0629 201.25 66.1715C201.398 66.2801 201.523 66.4177 201.616 66.576C201.71 66.7342 201.77 66.9097 201.793 67.092L202.048 69.0416C202.073 69.2276 202.148 69.4036 202.263 69.5519C208.678 77.9361 201.531 90.3154 200.033 92.7117C199.911 92.9063 199.741 93.0667 199.54 93.178C199.339 93.2892 199.113 93.3476 198.883 93.3478Z" fill="#CCCCCC"/>
<path d="M207.743 59.4092C206.09 57.0817 204.107 55.0066 201.857 53.2488C199.987 51.7883 197.905 50.5404 195.608 49.9436C193.311 49.3467 190.774 49.4483 188.678 50.5617C186.583 51.6752 184.416 53.8876 184.403 56.2602C184.399 57.0224 184.592 58.0537 185.343 57.9218L185.56 57.9506C187.372 57.5849 189.183 57.2191 190.994 56.8534C191.766 59.5298 192.537 62.2063 193.309 64.8827C193.471 65.4468 193.689 66.0776 194.225 66.3181C194.729 66.5447 195.313 66.3313 195.823 66.1182C195.907 66.0832 196.628 64.4646 196.628 64.4646C196.646 64.414 196.678 64.3691 196.719 64.3347C196.76 64.3002 196.81 64.2773 196.863 64.2685C196.916 64.2596 196.97 64.265 197.02 64.2842C197.07 64.3034 197.115 64.3356 197.148 64.3775L197.577 64.9129C197.659 65.0152 197.771 65.0881 197.898 65.1205C198.025 65.153 198.159 65.1432 198.28 65.0928C201.234 63.86 204.188 62.6273 207.142 61.3946C207.55 61.2243 208.006 61.0018 208.125 60.5757C208.238 60.1674 207.989 59.7546 207.743 59.4092Z" fill="#AF8023"/>
<path d="M241.698 162H150.867C150.787 162 150.711 161.968 150.654 161.912C150.597 161.855 150.566 161.778 150.566 161.698C150.566 161.618 150.597 161.542 150.654 161.485C150.711 161.428 150.787 161.397 150.867 161.397H241.698C241.778 161.397 241.855 161.428 241.912 161.485C241.968 161.542 242 161.618 242 161.698C242 161.778 241.968 161.855 241.912 161.912C241.855 161.968 241.778 162 241.698 162Z" fill="#A5A2CA"/>
<path d="M192.456 114.988C192.25 114.987 192.051 114.921 191.886 114.799L190.512 113.802C190.398 113.718 190.26 113.674 190.119 113.674C189.978 113.674 189.841 113.718 189.727 113.802L188.353 114.799C188.188 114.92 187.988 114.984 187.783 114.985C187.578 114.985 187.379 114.92 187.213 114.799C187.048 114.679 186.924 114.509 186.861 114.315C186.798 114.12 186.798 113.91 186.861 113.716L187.386 112.101C187.429 111.967 187.43 111.823 187.386 111.689C187.342 111.554 187.257 111.438 187.143 111.355L185.769 110.357C185.604 110.237 185.48 110.067 185.417 109.872C185.354 109.678 185.354 109.468 185.417 109.273C185.48 109.078 185.604 108.909 185.769 108.789C185.935 108.668 186.135 108.603 186.339 108.603H188.037C188.178 108.604 188.316 108.559 188.43 108.476C188.544 108.393 188.629 108.276 188.672 108.142L189.197 106.528C189.26 106.333 189.384 106.163 189.549 106.043C189.715 105.923 189.915 105.858 190.119 105.858C190.324 105.858 190.524 105.923 190.689 106.043C190.855 106.163 190.978 106.333 191.042 106.528L191.566 108.142C191.61 108.276 191.694 108.393 191.809 108.476C191.923 108.559 192.06 108.604 192.201 108.603H193.899C194.104 108.603 194.304 108.668 194.469 108.789C194.635 108.909 194.758 109.078 194.822 109.273C194.885 109.468 194.885 109.678 194.822 109.872C194.758 110.067 194.635 110.237 194.469 110.357L193.096 111.355C192.981 111.437 192.896 111.554 192.853 111.688C192.809 111.823 192.809 111.967 192.853 112.101L193.378 113.716C193.443 113.91 193.445 114.121 193.381 114.316C193.318 114.511 193.193 114.681 193.025 114.799C192.86 114.921 192.661 114.987 192.456 114.988Z" fill="#6C2626"/>
<path d="M197.705 111.761C198.093 111.489 198.416 111.135 198.653 110.724C198.889 110.314 199.033 109.856 199.073 109.384C199.114 108.912 199.05 108.437 198.887 107.992C198.724 107.547 198.465 107.144 198.129 106.809L200.475 78.4907L193.491 79.4512L193.358 106.965C192.834 107.567 192.549 108.34 192.557 109.137C192.565 109.935 192.865 110.702 193.401 111.293C193.937 111.884 194.671 112.258 195.464 112.345C196.257 112.431 197.055 112.223 197.705 111.761Z" fill="#A0616A"/>
<path d="M200.931 82.5685C200.801 82.5685 200.67 82.5496 200.545 82.5125L193.047 80.308C192.867 80.255 192.7 80.1652 192.556 80.0443C192.412 79.9234 192.295 79.774 192.212 79.6056C192.129 79.4371 192.082 79.2532 192.074 79.0656C192.066 78.878 192.096 78.6907 192.164 78.5156L194.939 71.3496C195.055 71.047 195.275 70.796 195.561 70.6425C195.846 70.489 196.177 70.4432 196.494 70.5135L201.447 71.59C201.756 71.6573 202.032 71.8304 202.227 72.0795C202.423 72.3285 202.525 72.6378 202.516 72.954L202.286 81.2478C202.276 81.6007 202.129 81.9358 201.876 82.1823C201.623 82.4289 201.284 82.5673 200.931 82.5685H200.931Z" fill="#CCCCCC"/>
<path d="M130.362 117.955H2.11234C1.55231 117.955 1.01539 117.732 0.619385 117.336C0.22338 116.94 0.00062858 116.403 0 115.844V77.5307C0.00062858 76.9709 0.22338 76.4341 0.619385 76.0382C1.01539 75.6423 1.55231 75.4196 2.11234 75.419H130.362C130.922 75.4196 131.459 75.6423 131.855 76.0382C132.251 76.4341 132.474 76.9709 132.474 77.5307V115.844C132.474 116.403 132.251 116.94 131.855 117.336C131.459 117.732 130.922 117.955 130.362 117.955ZM2.11234 76.0224C1.71232 76.0228 1.32882 76.1819 1.04596 76.4647C0.763106 76.7474 0.60399 77.1308 0.603527 77.5307V115.844C0.60399 116.243 0.763106 116.627 1.04596 116.91C1.32882 117.192 1.71232 117.352 2.11234 117.352H130.362C130.762 117.352 131.145 117.192 131.428 116.91C131.711 116.627 131.87 116.243 131.871 115.844V77.5307C131.87 77.1308 131.711 76.7474 131.428 76.4647C131.145 76.1819 130.762 76.0228 130.362 76.0224H2.11234Z" fill="#A5A2CA"/>
<path d="M58.2328 134.087C57.9814 134.086 57.7369 134.006 57.5346 133.856L55.8518 132.634C55.7122 132.532 55.5438 132.477 55.3709 132.477C55.198 132.477 55.0296 132.532 54.89 132.634L53.2072 133.856C53.0043 134.004 52.7598 134.083 52.509 134.083C52.2581 134.083 52.0137 134.004 51.8108 133.856C51.6078 133.709 51.4567 133.501 51.3792 133.263C51.3017 133.024 51.3016 132.767 51.3791 132.529L52.0219 130.551C52.0756 130.387 52.0758 130.21 52.0224 130.045C51.969 129.881 51.8647 129.738 51.7247 129.636L50.0419 128.414C49.839 128.267 49.6879 128.059 49.6104 127.82C49.5329 127.582 49.5329 127.325 49.6104 127.087C49.6879 126.848 49.839 126.64 50.0419 126.493C50.2449 126.345 50.4893 126.266 50.7401 126.266H52.8202C52.9931 126.266 53.1615 126.212 53.3014 126.11C53.4412 126.009 53.5452 125.865 53.5983 125.701L54.241 123.723C54.3185 123.485 54.4696 123.277 54.6726 123.129C54.8755 122.982 55.12 122.902 55.3709 122.902C55.6218 122.902 55.8662 122.982 56.0692 123.129C56.2721 123.277 56.4232 123.485 56.5007 123.723L57.1434 125.701C57.1965 125.865 57.3005 126.009 57.4403 126.11C57.5802 126.212 57.7487 126.266 57.9215 126.266H60.0016C60.2524 126.266 60.4969 126.345 60.6998 126.493C60.9027 126.64 61.0538 126.848 61.1313 127.087C61.2088 127.325 61.2088 127.582 61.1313 127.82C61.0538 128.059 60.9027 128.267 60.6998 128.414L59.017 129.636C58.877 129.738 58.7727 129.881 58.7193 130.045C58.6659 130.21 58.6661 130.387 58.7198 130.551L59.3626 132.529C59.443 132.767 59.4444 133.025 59.3666 133.264C59.2889 133.503 59.1361 133.711 58.931 133.856C58.7287 134.006 58.4842 134.086 58.2328 134.087Z" fill="#6C2626"/>
<path d="M75.285 134.087C75.0336 134.086 74.789 134.006 74.5867 133.856L72.904 132.634C72.7643 132.532 72.5959 132.477 72.423 132.477C72.2502 132.477 72.0817 132.532 71.9421 132.634L70.2594 133.856C70.0564 134.004 69.812 134.083 69.5612 134.083C69.3103 134.083 69.0659 134.004 68.8629 133.856C68.66 133.709 68.5089 133.501 68.4314 133.263C68.3538 133.024 68.3538 132.767 68.4313 132.529L69.0741 130.551C69.1278 130.387 69.128 130.21 69.0746 130.045C69.0211 129.881 68.9169 129.738 68.7769 129.636L67.0941 128.414C66.8912 128.267 66.7401 128.059 66.6626 127.82C66.5851 127.582 66.5851 127.325 66.6626 127.087C66.7402 126.848 66.8912 126.64 67.0942 126.493C67.2971 126.345 67.5415 126.266 67.7924 126.266H69.8723C70.0452 126.266 70.2137 126.212 70.3536 126.11C70.4934 126.009 70.5974 125.865 70.6505 125.701L71.2933 123.723C71.3708 123.485 71.5218 123.277 71.7248 123.129C71.9277 122.982 72.1722 122.902 72.4231 122.902C72.6739 122.902 72.9184 122.982 73.1213 123.129C73.3243 123.277 73.4753 123.485 73.5528 123.723L74.1955 125.701C74.2487 125.865 74.3527 126.009 74.4925 126.11C74.6324 126.212 74.8009 126.266 74.9738 126.266H77.0538C77.3046 126.266 77.549 126.345 77.752 126.493C77.9549 126.64 78.106 126.848 78.1835 127.087C78.261 127.325 78.261 127.582 78.1835 127.82C78.106 128.059 77.955 128.267 77.752 128.414L76.0693 129.636C75.9292 129.738 75.8249 129.881 75.7715 130.045C75.7181 130.21 75.7182 130.387 75.772 130.551L76.4148 132.529C76.4951 132.767 76.4965 133.025 76.4188 133.264C76.341 133.503 76.1883 133.711 75.9832 133.856C75.7809 134.006 75.5364 134.086 75.285 134.087Z" fill="#6C2626"/>
<path d="M92.3371 134.087C92.0858 134.086 91.8412 134.006 91.6389 133.856L89.9562 132.634C89.8164 132.532 89.648 132.478 89.4752 132.478C89.3024 132.478 89.134 132.532 88.9943 132.634L87.3115 133.856C87.1085 134.004 86.8641 134.083 86.6133 134.083C86.3624 134.083 86.118 134.004 85.9151 133.856C85.7121 133.709 85.5611 133.501 85.4835 133.263C85.406 133.024 85.406 132.767 85.4835 132.529L86.1262 130.551C86.1799 130.387 86.1801 130.21 86.1267 130.045C86.0733 129.881 85.969 129.738 85.829 129.636L84.1462 128.414C83.9433 128.267 83.7922 128.059 83.7147 127.82C83.6372 127.582 83.6372 127.325 83.7148 127.087C83.7923 126.848 83.9433 126.64 84.1463 126.493C84.3492 126.345 84.5937 126.266 84.8445 126.266H86.9245C87.0973 126.266 87.2658 126.212 87.4057 126.11C87.5455 126.009 87.6495 125.865 87.7026 125.701L88.3454 123.723C88.4229 123.485 88.574 123.277 88.7769 123.129C88.9799 122.982 89.2243 122.902 89.4752 122.902C89.7261 122.902 89.9705 122.982 90.1735 123.129C90.3764 123.277 90.5275 123.485 90.605 123.723L91.2478 125.701C91.3009 125.865 91.4049 126.009 91.5447 126.11C91.6846 126.212 91.8531 126.266 92.0259 126.266H94.1059C94.3568 126.266 94.6012 126.345 94.8041 126.493C95.0071 126.64 95.1581 126.848 95.2356 127.087C95.3132 127.325 95.3132 127.582 95.2357 127.82C95.1582 128.059 95.0071 128.267 94.8042 128.414L93.1214 129.636C92.9814 129.738 92.8771 129.881 92.8237 130.045C92.7703 130.21 92.7705 130.387 92.8242 130.551L93.4669 132.529C93.5472 132.767 93.5487 133.025 93.4709 133.264C93.3932 133.503 93.2405 133.711 93.0354 133.856C92.8331 134.006 92.5885 134.086 92.3371 134.087Z" fill="#6C2626"/>
<path d="M109.389 134.088C109.138 134.086 108.894 134.006 108.691 133.856L107.008 132.634C106.869 132.532 106.7 132.477 106.528 132.477C106.355 132.477 106.186 132.532 106.047 132.634L104.364 133.856C104.161 134.004 103.916 134.083 103.666 134.083C103.415 134.083 103.17 134.004 102.967 133.856C102.764 133.709 102.613 133.501 102.536 133.263C102.458 133.024 102.458 132.767 102.536 132.529L103.179 130.551C103.232 130.387 103.232 130.21 103.179 130.045C103.126 129.881 103.021 129.738 102.881 129.637L101.198 128.414C100.996 128.267 100.844 128.059 100.767 127.82C100.689 127.582 100.689 127.325 100.767 127.087C100.845 126.848 100.996 126.64 101.199 126.493C101.401 126.345 101.646 126.266 101.897 126.266H103.977C104.15 126.266 104.318 126.212 104.458 126.11C104.598 126.009 104.702 125.865 104.755 125.701L105.398 123.723C105.475 123.485 105.626 123.277 105.829 123.129C106.032 122.982 106.277 122.902 106.527 122.902C106.778 122.902 107.023 122.982 107.226 123.129C107.429 123.277 107.58 123.485 107.657 123.723L108.3 125.701C108.353 125.865 108.457 126.009 108.597 126.11C108.737 126.212 108.905 126.266 109.078 126.266H111.158C111.409 126.266 111.653 126.345 111.856 126.493C112.059 126.64 112.21 126.848 112.288 127.087C112.365 127.325 112.365 127.582 112.288 127.82C112.21 128.059 112.059 128.267 111.856 128.414L110.174 129.636C110.034 129.738 109.929 129.881 109.876 130.045C109.823 130.21 109.823 130.387 109.876 130.551L110.519 132.529C110.6 132.767 110.601 133.025 110.523 133.264C110.446 133.503 110.293 133.711 110.088 133.856C109.885 134.006 109.641 134.086 109.389 134.088Z" fill="#6C2626"/>
<path d="M120.718 134.205C120.442 134.204 120.173 134.115 119.951 133.951C119.725 133.791 119.558 133.563 119.472 133.3C119.387 133.037 119.388 132.754 119.477 132.492L120.12 130.515C120.166 130.374 120.166 130.222 120.12 130.082C120.074 129.941 119.985 129.818 119.865 129.731L118.182 128.509C117.959 128.347 117.793 128.119 117.708 127.857C117.623 127.595 117.623 127.312 117.708 127.05C117.793 126.788 117.959 126.56 118.182 126.398C118.405 126.236 118.673 126.149 118.949 126.149H121.029C121.177 126.149 121.322 126.103 121.441 126.015C121.561 125.928 121.65 125.805 121.696 125.665L122.339 123.687C122.424 123.425 122.59 123.197 122.813 123.035C123.036 122.873 123.304 122.786 123.58 122.786C123.855 122.786 124.124 122.873 124.347 123.035C124.57 123.197 124.736 123.425 124.821 123.687L125.463 125.665C125.509 125.805 125.598 125.928 125.718 126.015C125.838 126.103 125.982 126.149 126.13 126.149H128.21C128.486 126.149 128.754 126.236 128.977 126.398C129.2 126.56 129.366 126.788 129.451 127.05C129.536 127.312 129.536 127.595 129.451 127.857C129.366 128.119 129.2 128.347 128.977 128.509L127.295 129.731C127.175 129.818 127.085 129.941 127.039 130.081C126.994 130.222 126.994 130.374 127.04 130.515L127.683 132.492C127.768 132.754 127.768 133.037 127.683 133.299C127.597 133.561 127.431 133.789 127.208 133.951C126.986 134.113 126.717 134.2 126.442 134.2C126.166 134.2 125.897 134.113 125.675 133.951L123.992 132.729C123.872 132.641 123.728 132.594 123.58 132.594C123.431 132.594 123.287 132.641 123.167 132.729L121.485 133.951C121.262 134.115 120.994 134.204 120.718 134.205ZM123.58 131.991C123.855 131.991 124.124 132.078 124.347 132.241L126.029 133.463C126.149 133.55 126.293 133.597 126.441 133.597C126.59 133.597 126.734 133.55 126.854 133.463C126.974 133.376 127.063 133.253 127.109 133.112C127.154 132.971 127.154 132.82 127.108 132.679L126.466 130.701C126.38 130.439 126.38 130.157 126.465 129.895C126.55 129.633 126.716 129.405 126.94 129.243L128.623 128.021C128.742 127.934 128.832 127.811 128.877 127.67C128.923 127.529 128.923 127.378 128.877 127.237C128.832 127.096 128.742 126.973 128.623 126.886C128.503 126.799 128.358 126.752 128.21 126.752H126.13C125.855 126.753 125.586 126.666 125.363 126.504C125.14 126.342 124.974 126.113 124.889 125.851L124.247 123.873C124.201 123.733 124.112 123.61 123.992 123.523C123.872 123.436 123.728 123.389 123.58 123.389C123.431 123.389 123.287 123.436 123.167 123.523C123.048 123.61 122.958 123.733 122.913 123.873L122.27 125.851C122.185 126.113 122.019 126.342 121.796 126.504C121.573 126.666 121.305 126.753 121.029 126.752H118.949C118.801 126.752 118.657 126.799 118.537 126.886C118.417 126.973 118.328 127.096 118.282 127.237C118.236 127.378 118.236 127.529 118.282 127.67C118.328 127.811 118.417 127.934 118.537 128.021L120.219 129.243C120.443 129.405 120.609 129.633 120.694 129.895C120.779 130.157 120.779 130.439 120.694 130.701L120.051 132.679C120.005 132.82 120.005 132.971 120.051 133.112C120.096 133.253 120.186 133.376 120.305 133.463C120.425 133.55 120.57 133.597 120.718 133.597C120.866 133.597 121.01 133.55 121.13 133.463L122.813 132.241C123.035 132.078 123.304 131.991 123.58 131.991Z" fill="#A5A2CA"/>
<path d="M16.597 84.4693C16.0767 84.4693 15.5778 84.6759 15.21 85.0436C14.8421 85.4113 14.6355 85.9101 14.6355 86.4302C14.6355 86.9502 14.8421 87.449 15.21 87.8167C15.5778 88.1845 16.0767 88.3911 16.597 88.3911H115.877C116.397 88.3911 116.896 88.1845 117.264 87.8167C117.632 87.449 117.839 86.9502 117.839 86.4302C117.839 85.9101 117.632 85.4113 117.264 85.0436C116.896 84.6759 116.397 84.4693 115.877 84.4693H16.597Z" fill="#CCCCCC"/>
<path d="M16.597 94.7263C16.0767 94.7263 15.5778 94.9329 15.21 95.3006C14.8421 95.6683 14.6355 96.1671 14.6355 96.6872C14.6355 97.2072 14.8421 97.706 15.21 98.0737C15.5778 98.4415 16.0767 98.6481 16.597 98.6481H115.877C116.397 98.6481 116.896 98.4415 117.264 98.0737C117.632 97.706 117.839 97.2072 117.839 96.6872C117.839 96.1671 117.632 95.6683 117.264 95.3006C116.896 94.9329 116.397 94.7263 115.877 94.7263H16.597Z" fill="#CCCCCC"/>
<path d="M16.597 104.983C16.0767 104.983 15.5778 105.19 15.21 105.558C14.8421 105.925 14.6355 106.424 14.6355 106.944C14.6355 107.464 14.8421 107.963 15.21 108.331C15.5778 108.698 16.0767 108.905 16.597 108.905H115.877C116.397 108.905 116.896 108.698 117.264 108.331C117.632 107.963 117.839 107.464 117.839 106.944C117.839 106.424 117.632 105.925 117.264 105.558C116.896 105.19 116.397 104.983 115.877 104.983H16.597Z" fill="#CCCCCC"/>
<path d="M16.597 84.4693C16.0767 84.4693 15.5778 84.6759 15.21 85.0436C14.8421 85.4113 14.6355 85.9101 14.6355 86.4302C14.6355 86.9502 14.8421 87.449 15.21 87.8167C15.5778 88.1845 16.0767 88.3911 16.597 88.3911H115.877C116.397 88.3911 116.896 88.1845 117.264 87.8167C117.632 87.449 117.839 86.9502 117.839 86.4302C117.839 85.9101 117.632 85.4113 117.264 85.0436C116.896 84.6759 116.397 84.4693 115.877 84.4693H16.597Z" fill="#CCCCCC"/>
<path d="M16.597 94.7263C16.0767 94.7263 15.5778 94.9329 15.21 95.3006C14.8421 95.6683 14.6355 96.1671 14.6355 96.6872C14.6355 97.2072 14.8421 97.706 15.21 98.0737C15.5778 98.4415 16.0767 98.6481 16.597 98.6481H115.877C116.397 98.6481 116.896 98.4415 117.264 98.0737C117.632 97.706 117.839 97.2072 117.839 96.6872C117.839 96.1671 117.632 95.6683 117.264 95.3006C116.896 94.9329 116.397 94.7263 115.877 94.7263H16.597Z" fill="#CCCCCC"/>
<path d="M16.597 104.983C16.0767 104.983 15.5778 105.19 15.21 105.558C14.8421 105.925 14.6355 106.424 14.6355 106.944C14.6355 107.464 14.8421 107.963 15.21 108.331C15.5778 108.698 16.0767 108.905 16.597 108.905H115.877C116.397 108.905 116.896 108.698 117.264 108.331C117.632 107.963 117.839 107.464 117.839 106.944C117.839 106.424 117.632 105.925 117.264 105.558C116.896 105.19 116.397 104.983 115.877 104.983H16.597Z" fill="#CCCCCC"/>
<path d="M130.362 42.5363H2.11234C1.55231 42.5357 1.01539 42.313 0.619385 41.9171C0.22338 41.5212 0.00062858 40.9845 0 40.4246V2.11173C0.00062858 1.55186 0.22338 1.0151 0.619385 0.619205C1.01539 0.223315 1.55231 0.000628398 2.11234 0H130.362C130.922 0.000627602 131.459 0.223315 131.855 0.619205C132.251 1.0151 132.474 1.55186 132.474 2.11173V40.4246C132.474 40.9845 132.251 41.5212 131.855 41.9171C131.459 42.313 130.922 42.5357 130.362 42.5363ZM2.11234 0.603352C1.71232 0.603815 1.32882 0.76288 1.04596 1.04566C0.763106 1.32843 0.60399 1.71183 0.603527 2.11173V40.4246C0.60399 40.8245 0.763106 41.2079 1.04596 41.4907C1.32882 41.7734 1.71232 41.9325 2.11234 41.933H130.362C130.762 41.9325 131.145 41.7734 131.428 41.4907C131.711 41.2079 131.87 40.8245 131.871 40.4246V2.11173C131.87 1.71183 131.711 1.32843 131.428 1.04565C131.145 0.762874 130.762 0.603809 130.362 0.603352H2.11234Z" fill="#A5A2CA"/>
<path d="M58.2328 58.6685C57.9814 58.6675 57.7369 58.5865 57.5346 58.4373L55.8518 57.2151C55.7122 57.1132 55.5438 57.0583 55.3709 57.0583C55.198 57.0583 55.0296 57.1132 54.89 57.2151L53.2072 58.4373C53.0043 58.5847 52.7598 58.6641 52.509 58.6641C52.2581 58.6642 52.0137 58.5848 51.8108 58.4374C51.6078 58.29 51.4567 58.0822 51.3792 57.8437C51.3017 57.6052 51.3016 57.3482 51.3791 57.1097L52.0219 55.1321C52.0756 54.9679 52.0758 54.7908 52.0224 54.6264C51.969 54.462 51.8647 54.3188 51.7247 54.2174L50.0419 52.9952C49.839 52.8478 49.6879 52.64 49.6104 52.4015C49.5329 52.1629 49.5329 51.906 49.6104 51.6675C49.6879 51.429 49.839 51.2211 50.0419 51.0737C50.2449 50.9263 50.4893 50.8469 50.7401 50.8469H52.8202C52.9931 50.8472 53.1615 50.7927 53.3014 50.6911C53.4412 50.5895 53.5452 50.4462 53.5983 50.2818L54.241 48.3042C54.3185 48.0656 54.4696 47.8577 54.6726 47.7103C54.8755 47.5629 55.12 47.4835 55.3709 47.4835C55.6218 47.4835 55.8662 47.5629 56.0692 47.7103C56.2721 47.8577 56.4232 48.0656 56.5007 48.3042L57.1434 50.2818C57.1965 50.4462 57.3005 50.5895 57.4403 50.6911C57.5802 50.7927 57.7487 50.8472 57.9215 50.8469H60.0016C60.2524 50.8469 60.4969 50.9263 60.6998 51.0737C60.9027 51.2212 61.0538 51.429 61.1313 51.6675C61.2088 51.906 61.2088 52.163 61.1313 52.4015C61.0538 52.64 60.9027 52.8478 60.6998 52.9952L59.017 54.2174C58.877 54.3188 58.7727 54.462 58.7193 54.6264C58.6659 54.7908 58.6661 54.9679 58.7198 55.1321L59.3626 57.1097C59.443 57.348 59.4444 57.6058 59.3666 57.8449C59.2889 58.0841 59.1361 58.2918 58.931 58.4373C58.7287 58.5865 58.4842 58.6675 58.2328 58.6685Z" fill="#6C2626"/>
<path d="M75.285 58.6685C75.0336 58.6675 74.789 58.5865 74.5867 58.4373L72.904 57.2151C72.7643 57.1132 72.5959 57.0583 72.423 57.0583C72.2502 57.0583 72.0817 57.1132 71.9421 57.2151L70.2594 58.4373C70.0564 58.5847 69.812 58.6641 69.5612 58.6642C69.3103 58.6642 69.0659 58.5848 68.8629 58.4374C68.66 58.29 68.5089 58.0822 68.4314 57.8437C68.3538 57.6052 68.3538 57.3482 68.4313 57.1097L69.0741 55.1321C69.1278 54.9679 69.128 54.7908 69.0746 54.6264C69.0211 54.462 68.9169 54.3188 68.7769 54.2174L67.0941 52.9952C66.8912 52.8478 66.7401 52.6399 66.6626 52.4014C66.5851 52.1629 66.5851 51.906 66.6626 51.6675C66.7402 51.429 66.8912 51.2211 67.0942 51.0737C67.2971 50.9263 67.5415 50.8469 67.7924 50.8469H69.8723C70.0452 50.8472 70.2137 50.7927 70.3536 50.6911C70.4934 50.5895 70.5974 50.4462 70.6505 50.2818L71.2933 48.3042C71.3708 48.0656 71.5218 47.8577 71.7248 47.7103C71.9277 47.5629 72.1722 47.4835 72.4231 47.4835C72.6739 47.4835 72.9184 47.5629 73.1213 47.7103C73.3243 47.8577 73.4753 48.0656 73.5528 48.3042L74.1955 50.2818C74.2487 50.4462 74.3527 50.5895 74.4925 50.6911C74.6324 50.7927 74.8009 50.8472 74.9738 50.8469H77.0538C77.3046 50.8469 77.549 50.9263 77.752 51.0737C77.9549 51.2211 78.106 51.429 78.1835 51.6675C78.261 51.906 78.261 52.1629 78.1835 52.4014C78.106 52.6399 77.955 52.8478 77.752 52.9952L76.0693 54.2174C75.9292 54.3188 75.8249 54.462 75.7715 54.6264C75.7181 54.7908 75.7182 54.9679 75.772 55.1321L76.4148 57.1097C76.4951 57.348 76.4965 57.6058 76.4188 57.8449C76.341 58.0841 76.1883 58.2918 75.9832 58.4373C75.7809 58.5865 75.5364 58.6675 75.285 58.6685Z" fill="#6C2626"/>
<path d="M92.3371 58.6685C92.0858 58.6675 91.8412 58.5865 91.6389 58.4373L89.9562 57.2151C89.8164 57.1134 89.648 57.0587 89.4752 57.0587C89.3024 57.0587 89.134 57.1134 88.9943 57.2151L87.3115 58.4373C87.1085 58.5847 86.8641 58.6641 86.6133 58.6642C86.3624 58.6642 86.118 58.5848 85.9151 58.4374C85.7121 58.29 85.5611 58.0822 85.4835 57.8437C85.406 57.6052 85.406 57.3482 85.4835 57.1097L86.1262 55.1321C86.1799 54.9679 86.1801 54.7908 86.1267 54.6264C86.0733 54.462 85.969 54.3188 85.829 54.2174L84.1462 52.9952C83.9433 52.8478 83.7922 52.6399 83.7147 52.4014C83.6372 52.1629 83.6372 51.906 83.7148 51.6675C83.7923 51.429 83.9433 51.2211 84.1463 51.0737C84.3492 50.9263 84.5937 50.8469 84.8445 50.8469H86.9245C87.0973 50.8472 87.2658 50.7927 87.4057 50.6911C87.5455 50.5895 87.6495 50.4462 87.7026 50.2818L88.3454 48.3042C88.4229 48.0656 88.574 47.8577 88.7769 47.7103C88.9799 47.5629 89.2243 47.4835 89.4752 47.4835C89.7261 47.4835 89.9705 47.5629 90.1735 47.7103C90.3764 47.8577 90.5275 48.0656 90.605 48.3042L91.2478 50.2818C91.3009 50.4462 91.4049 50.5895 91.5447 50.6911C91.6846 50.7927 91.8531 50.8472 92.0259 50.8469H94.1059C94.3568 50.8469 94.6012 50.9263 94.8041 51.0737C95.0071 51.2211 95.1581 51.429 95.2356 51.6675C95.3132 51.906 95.3132 52.1629 95.2357 52.4014C95.1582 52.6399 95.0071 52.8478 94.8042 52.9952L93.1214 54.2174C92.9814 54.3188 92.8771 54.462 92.8237 54.6264C92.7703 54.7908 92.7705 54.9679 92.8242 55.1321L93.4669 57.1097C93.5472 57.348 93.5487 57.6058 93.4709 57.8449C93.3932 58.0841 93.2405 58.2918 93.0354 58.4373C92.8331 58.5865 92.5885 58.6675 92.3371 58.6685Z" fill="#6C2626"/>
<path d="M120.718 58.7857C120.442 58.7846 120.173 58.6958 119.951 58.5321C119.725 58.3722 119.558 58.1439 119.472 57.8812C119.387 57.6185 119.388 57.3352 119.477 57.0735L120.12 55.0959C120.166 54.9551 120.166 54.8034 120.12 54.6625C120.074 54.5217 119.985 54.399 119.865 54.3121L118.182 53.0898C117.959 52.9279 117.793 52.6996 117.708 52.4376C117.623 52.1756 117.623 51.8933 117.708 51.6313C117.793 51.3693 117.959 51.141 118.182 50.9791C118.405 50.8172 118.673 50.73 118.949 50.73H121.029C121.177 50.7303 121.322 50.6835 121.441 50.5964C121.561 50.5094 121.65 50.3865 121.696 50.2455L122.339 48.268C122.424 48.006 122.59 47.7777 122.813 47.6158C123.036 47.4538 123.304 47.3666 123.58 47.3666C123.855 47.3666 124.124 47.4538 124.347 47.6158C124.57 47.7777 124.736 48.006 124.821 48.268L125.463 50.2455C125.509 50.3865 125.598 50.5094 125.718 50.5964C125.838 50.6835 125.982 50.7303 126.13 50.73H128.21C128.486 50.73 128.754 50.8172 128.977 50.9792C129.2 51.1411 129.366 51.3694 129.451 51.6314C129.536 51.8934 129.536 52.1756 129.451 52.4376C129.366 52.6996 129.2 52.9279 128.977 53.0898L127.295 54.3121C127.175 54.3989 127.085 54.5216 127.039 54.6625C126.994 54.8034 126.994 54.9551 127.04 55.0959L127.683 57.0735C127.768 57.3355 127.768 57.6177 127.683 57.8797C127.597 58.1417 127.431 58.37 127.208 58.5319C126.986 58.6938 126.717 58.781 126.442 58.781C126.166 58.781 125.897 58.6938 125.675 58.5319L123.992 57.3097C123.872 57.2224 123.728 57.1754 123.58 57.1754C123.431 57.1754 123.287 57.2224 123.167 57.3097L121.485 58.5319C121.262 58.6958 120.994 58.7846 120.718 58.7857ZM123.58 56.5718C123.855 56.5718 124.124 56.6593 124.347 56.8216L126.029 58.0438C126.149 58.1308 126.293 58.1777 126.441 58.1778C126.59 58.1778 126.734 58.1309 126.854 58.0439C126.974 57.9569 127.063 57.8341 127.109 57.6933C127.154 57.5525 127.154 57.4008 127.108 57.26L126.466 55.2824C126.38 55.0205 126.38 54.7381 126.465 54.476C126.55 54.2138 126.716 53.9855 126.94 53.824L128.623 52.6017C128.742 52.5146 128.832 52.3919 128.877 52.2511C128.923 52.1103 128.923 51.9586 128.877 51.8178C128.832 51.677 128.742 51.5543 128.623 51.4673C128.503 51.3803 128.358 51.3334 128.21 51.3334H126.13C125.855 51.3339 125.586 51.2469 125.363 51.0849C125.14 50.9229 124.974 50.6943 124.889 50.432L124.247 48.4545C124.201 48.3137 124.112 48.1909 123.992 48.1039C123.872 48.0169 123.728 47.97 123.58 47.97C123.431 47.97 123.287 48.0169 123.167 48.1039C123.048 48.1909 122.958 48.3137 122.913 48.4545L122.27 50.432C122.185 50.6943 122.019 50.9229 121.796 51.0849C121.573 51.2469 121.305 51.3339 121.029 51.3334H118.949C118.801 51.3334 118.657 51.3802 118.537 51.4673C118.417 51.5543 118.328 51.677 118.282 51.8178C118.236 51.9586 118.236 52.1103 118.282 52.2511C118.328 52.3919 118.417 52.5146 118.537 52.6017L120.219 53.824C120.443 53.9856 120.609 54.2139 120.694 54.476C120.779 54.7381 120.779 55.0205 120.694 55.2824L120.051 57.26C120.005 57.4008 120.005 57.5524 120.051 57.6933C120.096 57.8341 120.186 57.9568 120.305 58.0438C120.425 58.1308 120.57 58.1777 120.718 58.1777C120.866 58.1777 121.01 58.1308 121.13 58.0438L122.813 56.8216C123.035 56.6593 123.304 56.5718 123.58 56.5718Z" fill="#A5A2CA"/>
<path d="M103.517 58.7373C103.241 58.7362 102.973 58.6473 102.75 58.4836C102.525 58.3237 102.357 58.0955 102.272 57.8328C102.186 57.57 102.188 57.2868 102.276 57.025L102.919 55.0475C102.965 54.9067 102.965 54.7549 102.919 54.6141C102.874 54.4732 102.784 54.3505 102.664 54.2637L100.981 53.0414C100.759 52.8794 100.593 52.6511 100.507 52.3891C100.422 52.1271 100.422 51.8449 100.507 51.5829C100.593 51.3209 100.759 51.0926 100.982 50.9307C101.204 50.7688 101.473 50.6816 101.748 50.6816H103.828C103.977 50.6819 104.121 50.6351 104.241 50.548C104.361 50.4609 104.45 50.3381 104.495 50.1971L105.138 48.2196C105.223 47.9576 105.389 47.7292 105.612 47.5673C105.835 47.4054 106.104 47.3182 106.379 47.3182C106.655 47.3182 106.923 47.4054 107.146 47.5673C107.369 47.7292 107.535 47.9576 107.62 48.2196L108.263 50.1971C108.308 50.3381 108.398 50.4609 108.517 50.548C108.637 50.6351 108.782 50.6818 108.93 50.6816H111.01C111.285 50.6816 111.554 50.7688 111.777 50.9307C112 51.0926 112.166 51.321 112.251 51.5829C112.336 51.8449 112.336 52.1271 112.251 52.3891C112.166 52.6511 112 52.8794 111.777 53.0414L110.094 54.2637C109.974 54.3505 109.885 54.4732 109.839 54.6141C109.793 54.7549 109.793 54.9067 109.839 55.0475L110.482 57.025C110.567 57.287 110.567 57.5692 110.482 57.8312C110.397 58.0932 110.231 58.3215 110.008 58.4835C109.785 58.6454 109.517 58.7326 109.241 58.7326C108.966 58.7326 108.697 58.6454 108.474 58.4835L106.791 57.2613C106.672 57.174 106.527 57.127 106.379 57.127C106.231 57.127 106.087 57.174 105.967 57.2613L104.284 58.4835C104.062 58.6473 103.793 58.7362 103.517 58.7373ZM106.379 56.5233C106.655 56.5234 106.923 56.6108 107.146 56.7731L108.829 57.9953C108.949 58.0824 109.093 58.1293 109.241 58.1293C109.389 58.1293 109.533 58.0825 109.653 57.9954C109.773 57.9084 109.862 57.7857 109.908 57.6449C109.954 57.504 109.954 57.3523 109.908 57.2115L109.265 55.234C109.18 54.972 109.179 54.6896 109.265 54.4275C109.35 54.1654 109.516 53.9371 109.739 53.7755L111.422 52.5532C111.542 52.4662 111.631 52.3435 111.677 52.2027C111.723 52.0619 111.723 51.9102 111.677 51.7694C111.631 51.6286 111.542 51.5059 111.422 51.4188C111.302 51.3318 111.158 51.2849 111.01 51.2849H108.93C108.654 51.2854 108.385 51.1984 108.162 51.0364C107.939 50.8744 107.774 50.6458 107.689 50.3836L107.046 48.406C107 48.2652 106.911 48.1425 106.791 48.0555C106.672 47.9684 106.527 47.9215 106.379 47.9215C106.231 47.9215 106.087 47.9684 105.967 48.0555C105.847 48.1425 105.758 48.2652 105.712 48.406L105.069 50.3836C104.985 50.6458 104.819 50.8744 104.596 51.0364C104.373 51.1984 104.104 51.2854 103.828 51.2849H101.748C101.6 51.2849 101.456 51.3318 101.336 51.4188C101.216 51.5058 101.127 51.6285 101.082 51.7693C101.036 51.9102 101.036 52.0618 101.081 52.2026C101.127 52.3435 101.216 52.4662 101.336 52.5532L103.019 53.7755C103.242 53.9371 103.409 54.1654 103.494 54.4275C103.579 54.6896 103.579 54.972 103.493 55.234L102.85 57.2115C102.804 57.3523 102.804 57.504 102.85 57.6448C102.896 57.7856 102.985 57.9083 103.105 57.9953C103.225 58.0824 103.369 58.1292 103.517 58.1292C103.665 58.1292 103.81 58.0823 103.929 57.9953L105.612 56.7731C105.835 56.6108 106.104 56.5234 106.379 56.5233Z" fill="#A5A2CA"/>
<path d="M16.597 9.05028C16.0767 9.05028 15.5778 9.25687 15.21 9.62461C14.8421 9.99235 14.6355 10.4911 14.6355 11.0112C14.6355 11.5312 14.8421 12.03 15.21 12.3977C15.5778 12.7655 16.0767 12.9721 16.597 12.9721H115.877C116.397 12.9721 116.896 12.7655 117.264 12.3977C117.632 12.03 117.839 11.5312 117.839 11.0112C117.839 10.4911 117.632 9.99235 117.264 9.62461C116.896 9.25687 116.397 9.05028 115.877 9.05028H16.597Z" fill="#CCCCCC"/>
<path d="M16.597 19.3073C16.0767 19.3073 15.5778 19.5139 15.21 19.8816C14.8421 20.2493 14.6355 20.7481 14.6355 21.2682C14.6355 21.7882 14.8421 22.287 15.21 22.6547C15.5778 23.0225 16.0767 23.2291 16.597 23.2291H115.877C116.397 23.2291 116.896 23.0225 117.264 22.6547C117.632 22.287 117.839 21.7882 117.839 21.2682C117.839 20.7481 117.632 20.2493 117.264 19.8816C116.896 19.5139 116.397 19.3073 115.877 19.3073H16.597Z" fill="#CCCCCC"/>
<path d="M16.597 29.5642C16.0767 29.5642 15.5778 29.7708 15.21 30.1386C14.8421 30.5063 14.6355 31.0051 14.6355 31.5251C14.6355 32.0452 14.8421 32.544 15.21 32.9117C15.5778 33.2794 16.0767 33.486 16.597 33.486H115.877C116.397 33.486 116.896 33.2794 117.264 32.9117C117.632 32.544 117.839 32.0452 117.839 31.5251C117.839 31.0051 117.632 30.5063 117.264 30.1386C116.896 29.7708 116.397 29.5642 115.877 29.5642H16.597Z" fill="#CCCCCC"/>
<path d="M16.597 9.05028C16.0767 9.05028 15.5778 9.25687 15.21 9.62461C14.8421 9.99235 14.6355 10.4911 14.6355 11.0112C14.6355 11.5312 14.8421 12.03 15.21 12.3977C15.5778 12.7655 16.0767 12.9721 16.597 12.9721H115.877C116.397 12.9721 116.896 12.7655 117.264 12.3977C117.632 12.03 117.839 11.5312 117.839 11.0112C117.839 10.4911 117.632 9.99235 117.264 9.62461C116.896 9.25687 116.397 9.05028 115.877 9.05028H16.597Z" fill="#CCCCCC"/>
<path d="M16.597 19.3073C16.0767 19.3073 15.5778 19.5139 15.21 19.8816C14.8421 20.2493 14.6355 20.7481 14.6355 21.2682C14.6355 21.7882 14.8421 22.287 15.21 22.6547C15.5778 23.0225 16.0767 23.2291 16.597 23.2291H115.877C116.397 23.2291 116.896 23.0225 117.264 22.6547C117.632 22.287 117.839 21.7882 117.839 21.2682C117.839 20.7481 117.632 20.2493 117.264 19.8816C116.896 19.5139 116.397 19.3073 115.877 19.3073H16.597Z" fill="#CCCCCC"/>
<path d="M16.597 29.5642C16.0767 29.5642 15.5778 29.7708 15.21 30.1386C14.8421 30.5063 14.6355 31.0051 14.6355 31.5251C14.6355 32.0452 14.8421 32.544 15.21 32.9117C15.5778 33.2794 16.0767 33.486 16.597 33.486H115.877C116.397 33.486 116.896 33.2794 117.264 32.9117C117.632 32.544 117.839 32.0452 117.839 31.5251C117.839 31.0051 117.632 30.5063 117.264 30.1386C116.896 29.7708 116.397 29.5642 115.877 29.5642H16.597Z" fill="#CCCCCC"/>
</g>
<defs>
<clipPath id="clip0">
<rect width="242" height="162" fill="white"/>
</clipPath>
</defs>
</svg>
